Inter-Italic.glyphspackage
{
glyphname = numbersign;
layers = (
{
layerId = "11F4534A-B963-4AB5-820F-DAF9A20CD933";
shapes = (
{
closed = 1;
nodes = (
(882,0,l),
(1152,1490,l),
(999,1490,l),
(729,0,l)
);
},
{
closed = 1;
nodes = (
(1174,411,l),
(1203,561,l),
(87,561,l),
(60,411,l)
);
},
{
closed = 1;
nodes = (
(358,0,l),
(628,1490,l),
(477,1490,l),
(205,0,l)
);
},
{
closed = 1;
nodes = (
(1270,927,l),
(1299,1079,l),
(183,1079,l),
(156,927,l)
);
}
);
width = 1297;
},
{
layerId = "D0EC06BF-13F9-4C88-A6F5-B8203AF6C77E";
shapes = (
{
closed = 1;
nodes = (
(980,0,l),
(1250,1490,l),
(960,1490,l),
(690,0,l)
);
},
{
closed = 1;
nodes = (
(1234,340,l),
(1288,632,l),
(90,632,l),
(34,340,l)
);
},
{
closed = 1;
nodes = (
(456,0,l),
(728,1490,l),
(436,1490,l),
(166,0,l)
);
},
{
closed = 1;
nodes = (
(1328,858,l),
(1382,1150,l),
(184,1150,l),
(130,858,l)
);
}
);
width = 1356;
},
{
layerId = "200BE2C5-40F6-4CF4-AF4F-A33C0CC0964F";
shapes = (
{
closed = 1;
nodes = (
(830,0,l),
(1100,1490,l),
(1054,1490,l),
(782,0,l)
);
},
{
closed = 1;
nodes = (
(1184,462,l),
(1192,510,l),
(82,510,l),
(72,462,l)
);
},
{
closed = 1;
nodes = (
(306,0,l),
(576,1490,l),
(530,1490,l),
(258,0,l)
);
},
{
closed = 1;
nodes = (
(1278,980,l),
(1288,1026,l),
(176,1026,l),
(166,980,l)
);
}
);
width = 1298;
},
{
layerId = m008;
name = ital_gen;
shapes = (
{
closed = 1;
nodes = (
(738.59,0,l),
(1229.258,1490,l),
(1085.258,1490,l),
(592.59,0,l)
);
},
{
closed = 1;
nodes = (
(1095.127,414,l),
(1142.966,558,l),
(30.966,558,l),
(-16.873,414,l)
);
},
{
closed = 1;
nodes = (
(214.59,0,l),
(705.258,1490,l),
(561.258,1490,l),
(70.59,0,l)
);
},
{
closed = 1;
nodes = (
(1268.551,930,l),
(1314.721,1076,l),
(204.721,1076,l),
(156.551,930,l)
);
}
);
width = 1228;
},
{
layerId = m010;
name = ital_gen;
shapes = (
{
closed = 1;
nodes = (
(858.59,0,l),
(1351.258,1490,l),
(1059.258,1490,l),
(568.59,0,l)
);
},
{
closed = 1;
nodes = (
(1162.877,340,l),
(1261.217,632,l),
(63.217,632,l),
(-35.123,340,l)
);
},
{
closed = 1;
nodes = (
(336.59,0,l),
(827.258,1490,l),
(535.258,1490,l),
(44.59,0,l)
);
},
{
closed = 1;
nodes = (
(1332.631,858,l),
(1430.971,1150,l),
(232.971,1150,l),
(134.631,858,l)
);
}
);
width = 1324;
},
{
layerId = m012;
name = ital_gen;
shapes = (
{
closed = 1;
nodes = (
(660.59,0,l),
(1151.258,1490,l),
(1105.258,1490,l),
(614.59,0,l)
);
},
{
closed = 1;
nodes = (
(1083.074,462,l),
(1099.02,510,l),
(-10.98,510,l),
(-28.926,462,l)
);
},
{
closed = 1;
nodes = (
(136.59,0,l),
(627.258,1490,l),
(581.258,1490,l),
(90.59,0,l)
);
},
{
closed = 1;
nodes = (
(1252.828,980,l),
(1268.443,1026,l),
(158.443,1026,l),
(140.828,980,l)
);
}
);
width = 1170;
}
);
note = "1. outline\0122. slant 9.4 deg\0123. remove extra shapes created by outlining";
unicode = 35;
userData = {
"interface.width-adjustments" = (
-16
);
};
}
{
glyphname = dollar;
kernLeft = S;
kernRight = S;
layers = (
{
layerId = "11F4534A-B963-4AB5-820F-DAF9A20CD933";
name = ital_gen;
shapes = (
{
closed = 1;
nodes = (
(588,-218,l),
(907,1708,l),
(787,1708,l),
(468,-218,l)
);
},
{
ref = S;
}
);
width = 1312;
},
{
guides = (
{
pos = (0,2280);
}
);
layerId = "D0EC06BF-13F9-4C88-A6F5-B8203AF6C77E";
name = ital_gen;
shapes = (
{
closed = 1;
nodes = (
(636,-186,l),
(944,1676,l),
(824,1676,l),
(516,-186,l)
);
},
{
ref = S;
}
);
width = 1364;
},
{
layerId = "200BE2C5-40F6-4CF4-AF4F-A33C0CC0964F";
name = ital_gen;
shapes = (
{
closed = 1;
nodes = (
(532,-186,l),
(840,1676,l),
(794,1676,l),
(486,-186,l)
);
},
{
alignment = -1;
ref = S;
}
);
width = 1254;
},
{
layerId = m008;
name = ital_gen;
shapes = (
{
closed = 1;
nodes = (
(582,-222,l),
(902,1712,l),
(742,1712,l),
(422,-222,l)
);
},
{
ref = S;
}
);
width = 1259;
},
{
guides = (
{
pos = (-96,2280);
}
);
layerId = m010;
name = ital_gen;
shapes = (
{
closed = 1;
nodes = (
(698,-218,l),
(1017,1708,l),
(803,1708,l),
(484,-218,l)
);
},
{
ref = S;
}
);
width = 1403;
},
{
layerId = m012;
name = ital_gen;
shapes = (
{
closed = 1;
nodes = (
(476,-186,l),
(784,1676,l),
(738,1676,l),
(430,-186,l)
);
},
{
alignment = -1;
ref = S;
}
);
width = 1127;
}
);
metricLeft = S;
metricRight = S;
unicode = 36;
userData = {
"interface.width-adjustments" = (
-16
);
};
}
{
glyphname = ampersand;
layers = (
{
layerId = "11F4534A-B963-4AB5-820F-DAF9A20CD933";
shapes = (
{
closed = 1;
nodes = (
(625,-20,o),
(793,31,o),
(908,137,c),
(923,151,o),
(942,167,o),
(957,182,c),
(1025,243,o),
(1164,362,o),
(1213,658,c),
(1040,658,l),
(988,339,o),
(729,137,o),
(508,137,cs),
(332,137,o),
(239,260,o),
(262,397,c),
(267,438,o),
(324,540,o),
(470,637,cs),
(803,858,ls),
(940,949,o),
(1032,1048,o),
(1055,1189,c),
(1085,1359,o),
(969,1504,o),
(745,1504,cs),
(525,1504,o),
(357,1365,o),
(325,1162,cs),
(297,985,o),
(404,856,o),
(523,678,cs),
(977,0,l),
(1192,0,l),
(646,832,ls),
(566,954,o),
(486,1057,o),
(504,1162,cs),
(520,1255,o),
(614,1349,o),
(724,1349,cs),
(829,1349,o),
(886,1263,o),
(875,1188,c),
(857,1090,o),
(795,1035,o),
(704,980,c),
(456,818,l),
(254,694,o),
(107,581,o),
(77,396,c),
(37,155,o),
(189,-20,o),
(483,-20,c)
);
}
);
width = 1319;
},
{
layerId = "D0EC06BF-13F9-4C88-A6F5-B8203AF6C77E";
shapes = (
{
closed = 1;
nodes = (
(606,-23,o),
(745,6,o),
(876,82,c),
(919,102,o),
(960,119,o),
(1004,140,c),
(1222,276,o),
(1339,518,o),
(1378,776,c),
(1062,776,l),
(1016,495,o),
(760,291,o),
(562,290,cs),
(463,291,o),
(411,340,o),
(422,424,c),
(434,492,o),
(481,532,o),
(532,564,cs),
(878,782,ls),
(1022,873,o),
(1112,995,o),
(1134,1134,c),
(1170,1341,o),
(1042,1513,o),
(792,1512,cs),
(530,1513,o),
(326,1327,o),
(288,1100,cs),
(253,896,o),
(368,735,o),
(442,640,cs),
(940,0,l),
(1340,0,l),
(750,794,l),
(667,922,o),
(600,1007,o),
(610,1094,cs),
(619,1159,o),
(673,1196,o),
(738,1196,cs),
(815,1196,o),
(841,1152,o),
(832,1106,cs),
(825,1071,o),
(798,1020,o),
(724,978,cs),
(352,768,l),
(181,663,o),
(62,564,o),
(34,396,c),
(-2,166,o),
(161,-23,o),
(480,-24,c)
);
}
);
width = 1422;
},
{
associatedMasterId = "D0EC06BF-13F9-4C88-A6F5-B8203AF6C77E";
layerId = "A024DAEF-5CF1-4DB6-A2CD-0618C3F5EE1E";
name = "Sep 16 18, 17:30";
shapes = (
{
closed = 1;
nodes = (
(207,663,o),
(88,567,o),
(62,404,c),
(21,154,o),
(181,-20,o),
(488,-20,c),
(737,-20,o),
(850,49,o),
(980,120,cs),
(990,125,o),
(1025,137,o),
(1030,140,cs),
(1249,276,o),
(1365,518,o),
(1406,776,c),
(1088,776,l),
(1042,495,o),
(786,291,o),
(588,290,cs),
(492,291,o),
(437,340,o),
(450,434,c),
(463,509,o),
(478,529,o),
(510,562,c),
(904,808,ls),
(1033,887,o),
(1138,1007,o),
(1160,1134,c),
(1196,1341,o),
(1068,1513,o),
(818,1512,cs),
(556,1513,o),
(353,1327,o),
(314,1100,cs),
(280,896,o),
(396,736,o),
(468,640,cs),
(936,0,l),
(1368,0,l),
(776,794,l),
(693,922,o),
(623,1001,o),
(638,1094,cs),
(649,1158,o),
(693,1196,o),
(766,1196,cs),
(836,1196,o),
(865,1143,o),
(858,1100,c),
(853,1076,o),
(847,1033,o),
(750,978,cs),
(378,768,l)
);
}
);
width = 1506;
},
{
layerId = "200BE2C5-40F6-4CF4-AF4F-A33C0CC0964F";
shapes = (
{
closed = 1;
nodes = (
(600,-20,o),
(756,47,o),
(877,148,cs),
(891,161,o),
(904,176,o),
(917,192,cs),
(993,285,o),
(1070,410,o),
(1111,536,c),
(1065,542,l),
(965,241,o),
(742,33,o),
(451,26,cs),
(241,21,o),
(115,180,o),
(145,372,cs),
(165,492,o),
(240,578,o),
(443,712,cs),
(687,876,ls),
(860,991,o),
(935,1088,o),
(955,1208,cs),
(983,1382,o),
(880,1510,o),
(711,1510,cs),
(539,1510,o),
(369,1364,o),
(341,1196,cs),
(322,1082,o),
(382,996,o),
(489,824,cs),
(1005,0,l),
(1063,0,l),
(529,852,ls),
(422,1025,o),
(372,1100,o),
(387,1196,cs),
(410,1338,o),
(569,1463,o),
(713,1464,cs),
(857,1463,o),
(931,1356,o),
(909,1208,cs),
(891,1102,o),
(824,1020,o),
(663,914,cs),
(419,750,ls),
(205,607,o),
(123,506,o),
(99,372,cs),
(62,155,o),
(219,-20,o),
(455,-20,cs)
);
}
);
width = 1195;
},
{
layerId = m008;
name = ital_gen;
shapes = (
{
closed = 1;
nodes = (
(597,-20,o),
(766,32,o),
(881,140,c),
(894,154,o),
(906,169,o),
(920,184,c),
(980,235,o),
(1128,355,o),
(1178,652,c),
(1012,652,l),
(959,332,o),
(698,130,o),
(475,130,cs),
(297,130,o),
(202,256,o),
(225,396,cs),
(232,436,o),
(286,541,o),
(436,640,cs),
(770,862,ls),
(906,952,o),
(999,1050,o),
(1023,1192,cs),
(1051,1359,o),
(938,1504,o),
(713,1504,cs),
(496,1504,o),
(330,1367,o),
(297,1166,cs),
(268,992,o),
(373,870,o),
(498,680,cs),
(950,0,l),
(1158,0,l),
(612,834,ls),
(535,952,o),
(453,1059,o),
(470,1164,cs),
(486,1257,o),
(581,1356,o),
(694,1356,cs),
(802,1356,o),
(860,1268,o),
(847,1192,cs),
(830,1091,o),
(765,1040,o),
(674,980,cs),
(431,820,ls),
(231,688,o),
(80,582,o),
(49,396,cs),
(9,154,o),
(161,-20,o),
(454,-20,c)
);
}
);
width = 1245;
},
{
layerId = m010;
name = ital_gen;
shapes = (
{
closed = 1;
nodes = (
(595,-24,o),
(733,5,o),
(865,82,c),
(909,102,o),
(950,119,o),
(995,140,c),
(1211,276,o),
(1327,518,o),
(1370,776,c),
(1052,776,l),
(1006,495,o),
(749,290,o),
(550,290,cs),
(453,290,o),
(398,340,o),
(412,424,cs),
(423,492,o),
(470,531,o),
(523,564,cs),
(867,782,ls),
(1010,873,o),
(1100,996,o),
(1123,1134,c),
(1158,1341,o),
(1032,1512,o),
(782,1512,cs),
(520,1512,o),
(315,1327,o),
(278,1100,cs),
(244,896,o),
(357,735,o),
(432,640,cs),
(930,0,l),
(1332,0,l),
(741,794,l),
(655,922,o),
(588,1007,o),
(603,1094,cs),
(613,1156,o),
(662,1196,o),
(730,1196,cs),
(803,1196,o),
(830,1153,o),
(823,1106,cs),
(817,1069,o),
(788,1020,o),
(713,978,cs),
(341,768,l),
(170,663,o),
(51,563,o),
(23,396,cs),
(-15,165,o),
(149,-24,o),
(470,-24,cs)
);
}
);
width = 1391;
},
{
associatedMasterId = m010;
layerId = "8FACB6CB-6DBA-4AB2-BE75-46B49E9CB2DD";
name = "Sep 16 18, 17:30";
shapes = (
{
closed = 1;
nodes = (
(207,663,o),
(88,567,o),
(62,404,c),
(21,154,o),
(181,-20,o),
(488,-20,c),
(737,-20,o),
(850,49,o),
(980,120,cs),
(990,125,o),
(1025,137,o),
(1030,140,cs),
(1249,276,o),
(1365,518,o),
(1406,776,c),
(1088,776,l),
(1042,495,o),
(786,291,o),
(588,290,cs),
(492,291,o),
(437,340,o),
(450,434,c),
(463,509,o),
(478,529,o),
(510,562,c),
(904,808,ls),
(1033,887,o),
(1138,1007,o),
(1160,1134,c),
(1196,1341,o),
(1068,1513,o),
(818,1512,cs),
(556,1513,o),
(353,1327,o),
(314,1100,cs),
(280,896,o),
(396,736,o),
(468,640,cs),
(936,0,l),
(1368,0,l),
(776,794,l),
(693,922,o),
(623,1001,o),
(638,1094,cs),
(649,1158,o),
(693,1196,o),
(766,1196,cs),
(836,1196,o),
(865,1143,o),
(858,1100,c),
(853,1076,o),
(847,1033,o),
(750,978,cs),
(378,768,l)
);
}
);
width = 1506;
},
{
layerId = m012;
name = ital_gen;
shapes = (
{
closed = 1;
nodes = (
(595,-20,o),
(750,77,o),
(843,175,cs),
(848,181,o),
(853,186,o),
(858,192,cs),
(938,283,o),
(1010,410,o),
(1051,536,c),
(1006,542,l),
(905,241,o),
(694,26,o),
(403,26,cs),
(193,26,o),
(54,180,o),
(86,372,cs),
(106,492,o),
(182,580,o),
(382,714,cs),
(627,878,ls),
(800,994,o),
(875,1088,o),
(895,1208,cs),
(923,1382,o),
(820,1510,o),
(651,1510,cs),
(475,1510,o),
(312,1371,o),
(283,1196,cs),
(261,1068,o),
(324,997,o),
(431,824,cs),
(946,0,l),
(1005,0,l),
(473,852,ls),
(365,1024,o),
(310,1086,o),
(329,1196,cs),
(353,1345,o),
(493,1464,o),
(643,1464,cs),
(786,1464,o),
(873,1357,o),
(849,1209,cs),
(831,1102,o),
(761,1019,o),
(606,915,cs),
(359,750,ls),
(145,608,o),
(62,506,o),
(40,372,cs),
(4,154,o),
(159,-20,o),
(395,-20,cs)
);
}
);
width = 1092;
}
);
metricLeft = d;
unicode = 38;
userData = {
"interface.width-adjustments" = (
-16
);
};
}
{
glyphname = quotesingle;
kernLeft = quotedbl;
kernRight = quotedbl;
layers = (
{
layerId = "11F4534A-B963-4AB5-820F-DAF9A20CD933";
shapes = (
{
closed = 1;
nodes = (
(443,923,l),
(558,1490,l),
(364,1490,l),
(292,923,l)
);
}
);
width = 614;
},
{
guides = (
{
pos = (164,1240);
},
{
pos = (8,764);
}
);
layerId = "D0EC06BF-13F9-4C88-A6F5-B8203AF6C77E";
shapes = (
{
closed = 1;
nodes = (
(573,824,l),
(720,1490,l),
(350,1490,l),
(277,824,l)
);
}
);
width = 762;
},
{
layerId = "200BE2C5-40F6-4CF4-AF4F-A33C0CC0964F";
shapes = (
{
closed = 1;
nodes = (
(382,1040,l),
(461,1490,l),
(410,1490,l),
(341,1040,l)
);
}
);
width = 563;
},
{
layerId = m008;
name = ital_gen;
shapes = (
{
closed = 1;
nodes = (
(399.49,984,l),
(503.258,1490,l),
(335.258,1490,l),
(271.49,984,l)
);
}
);
width = 520;
},
{
background = {
shapes = (
{
pos = (-3,0);
ref = quoteright;
}
);
};
layerId = m010;
name = ital_gen;
shapes = (
{
closed = 1;
nodes = (
(493.273,880,l),
(629.258,1490,l),
(275.258,1490,l),
(209.273,880,l)
);
}
);
width = 586;
},
{
background = {
shapes = (
{
pos = (58,0);
ref = quoteright;
}
);
};
layerId = m012;
name = ital_gen;
shapes = (
{
closed = 1;
nodes = (
(347.41,1056,l),
(423.258,1490,l),
(375.258,1490,l),
(307.41,1056,l)
);
}
);
width = 480;
}
);
unicode = 39;
userData = {
"interface.width-adjustments" = (
-16
);
};
}
{
glyphname = parenright;
kernLeft = parenright;
kernRight = parenright;
layers = (
{
guides = (
{
pos = (210,1560);
},
{
name = "Mid center";
pos = (-137,651);
}
);
layerId = "11F4534A-B963-4AB5-820F-DAF9A20CD933";
shapes = (
{
closed = 1;
nodes = (
(133,-280,l),
(352,11,o),
(488,317,o),
(536,606,cs),
(590,931,o),
(549,1334,o),
(441,1580,c),
(265,1580,l),
(369,1261,o),
(402,898,o),
(354,607,cs),
(310,340,o),
(186,71,o),
(-43,-280,c)
);
}
);
width = 746;
},
{
guides = (
{
name = "Mid center";
pos = (-197,651);
}
);
layerId = "D0EC06BF-13F9-4C88-A6F5-B8203AF6C77E";
shapes = (
{
closed = 1;
nodes = (
(283,-294,l),
(472,-43,o),
(601,264,o),
(655,592,cs),
(715,951,o),
(689,1344,o),
(591,1566,c),
(209,1566,l),
(276,1292,o),
(307,930,o),
(251,592,cs),
(202,296,o),
(86,45,o),
(-99,-294,c)
);
}
);
width = 778;
},
{
guides = (
{
orientation = center;
pos = (-332,864);
}
);
layerId = "200BE2C5-40F6-4CF4-AF4F-A33C0CC0964F";
shapes = (
{
closed = 1;
nodes = (
(49,-302,l),
(239,-3,o),
(367,317,o),
(419,628,cs),
(471,943,o),
(449,1263,o),
(358,1560,c),
(308,1560,l),
(403,1258,o),
(424,940,o),
(371,628,cs),
(320,314,o),
(193,-3,o),
(-1,-302,c)
);
}
);
width = 647;
},
{
guides = (
{
angle = -9.4;
name = "Mid center";
pos = (-259,636);
}
);
layerId = m008;
name = ital_gen;
shapes = (
{
closed = 1;
nodes = (
(85.919,-294,l),
(288.451,-25,o),
(423.275,282,o),
(474.595,592,cs),
(530.716,931,o),
(497.101,1332,o),
(393.84,1566,c),
(227.84,1566,l),
(325.334,1273,o),
(353.584,900,o),
(302.595,592,cs),
(256.573,314,o),
(136.55,36,o),
(-80.081,-294,c)
);
}
);
width = 612;
},
{
guides = (
{
angle = -9.4;
pos = (-318,1240);
},
{
angle = -9.4;
pos = (-318,764);
},
{
angle = -9.4;
name = "Mid center";
pos = (-198,636);
}
);
layerId = m010;
name = ital_gen;
shapes = (
{
closed = 1;
nodes = (
(277.919,-294,l),
(467.472,-43,o),
(596.295,264,o),
(650.595,592,cs),
(710.027,951,o),
(684.088,1344,o),
(585.84,1566,c),
(203.84,1566,l),
(271.479,1292,o),
(302.551,930,o),
(246.595,592,cs),
(197.593,296,o),
(81.04,45,o),
(-104.081,-294,c)
);
}
);
width = 736;
},
{
guides = (
{
angle = -9.4;
name = "Mid center";
pos = (0,636);
}
);
layerId = m012;
name = ital_gen;
shapes = (
{
closed = 1;
nodes = (
(-8,-294,l),
(181,5,o),
(309,325,o),
(362,636,cs),
(413,951,o),
(391,1271,o),
(300,1568,c),
(250,1568,l),
(345,1266,o),
(367,948,o),
(314,636,cs),
(263,322,o),
(135,5,o),
(-58,-294,c)
);
}
);
width = 518;
}
);
metricLeft = "=|parenleft";
metricRight = "=|parenleft";
unicode = 41;
userData = {
"interface.width-adjustments" = (
-16
);
};
}
{
glyphname = asterisk;
kernLeft = asciicircum;
kernRight = asciicircum;
layers = (
{
guides = (
{
pos = (844,1344);
},
{
angle = -32;
pos = (812,1472);
},
{
angle = 28;
pos = (812,1472);
},
{
angle = -99.4;
pos = (820,1520);
}
);
layerId = "11F4534A-B963-4AB5-820F-DAF9A20CD933";
shapes = (
{
closed = 1;
nodes = (
(599,652,l),
(642,969,l),
(883,798,l),
(976,924,l),
(716,1070,l),
(1020,1216,l),
(966,1344,l),
(675,1173,l),
(739,1490,l),
(595,1490,l),
(556,1173,l),
(314,1344,l),
(222,1216,l),
(480,1070,l),
(178,924,l),
(228,798,l),
(523,969,l),
(455,652,l)
);
}
);
width = 1026;
},
{
associatedMasterId = "11F4534A-B963-4AB5-820F-DAF9A20CD933";
guides = (
{
pos = (1080,1344);
},
{
angle = -30;
pos = (832,1472);
},
{
angle = 30;
pos = (832,1472);
},
{
angle = -99.4;
pos = (840,1520);
}
);
layerId = "CC0E1785-E413-44A4-BA29-F4CA3A7668BA";
name = _base;
shapes = (
{
closed = 1;
nodes = (
(460,652,l),
(602,652,l),
(744,1490,l),
(602,1490,l)
);
},
{
closed = 1;
nodes = (
(190,968,l),
(244,840,l),
(1016,1176,l),
(960,1304,l)
);
},
{
closed = 1;
nodes = (
(306,1376,l),
(224,1262,l),
(898,766,l),
(980,878,l)
);
}
);
width = 1036;
},
{
background = {
shapes = (
{
closed = 1;
nodes = (
(726,884,o),
(809,968,o),
(808,1070,cs),
(809,1173,o),
(726,1257,o),
(622,1256,cs),
(521,1257,o),
(437,1173,o),
(436,1070,cs),
(437,968,o),
(521,884,o),
(622,884,cs)
);
}
);
};
guides = (
{
pos = (180,1240);
},
{
pos = (24,764);
},
{
orientation = center;
angle = 90;
pos = (1224,1752);
},
{
angle = -30;
pos = (1088,1472);
},
{
angle = 30;
pos = (1088,1472);
},
{
angle = 60;
pos = (1088,1472);
},
{
angle = -60;
pos = (1088,1472);
}
);
layerId = "D0EC06BF-13F9-4C88-A6F5-B8203AF6C77E";
shapes = (
{
closed = 1;
nodes = (
(754,652,l),
(774,908,l),
(960,760,l),
(1112,962,l),
(896,1070,l),
(1146,1178,l),
(1064,1382,l),
(826,1234,l),
(894,1490,l),
(660,1490,l),
(640,1234,l),
(454,1382,l),
(302,1178,l),
(518,1070,l),
(268,962,l),
(350,760,l),
(588,908,l),
(520,652,l)
);
}
);
width = 1246;
},
{
layerId = "200BE2C5-40F6-4CF4-AF4F-A33C0CC0964F";
shapes = (
{
closed = 1;
nodes = (
(550,652,l),
(614,1032,l),
(914,840,l),
(936,882,l),
(642,1068,l),
(1006,1260,l),
(984,1300,l),
(626,1112,l),
(690,1490,l),
(642,1490,l),
(578,1108,l),
(280,1300,l),
(256,1260,l),
(550,1074,l),
(186,882,l),
(210,840,l),
(568,1030,l),
(504,652,l)
);
}
);
width = 1024;
},
{
background = {
shapes = (
{
closed = 1;
nodes = (
(573,960,o),
(623,1009,o),
(622,1070,cs),
(623,1132,o),
(573,1181,o),
(512,1182,cs),
(451,1181,o),
(401,1132,o),
(402,1070,cs),
(401,1009,o),
(451,960,o),
(512,960,cs)
);
}
);
};
guides = (
{
angle = -9.4;
pos = (492,1472);
},
{
angle = -39.4;
pos = (412,1472);
},
{
angle = 20.6;
pos = (412,1472);
},
{
orientation = center;
angle = 80.6;
pos = (-3770,1408);
}
);
layerId = m008;
name = ital_gen;
shapes = (
{
closed = 1;
nodes = (
(570.528,652,l),
(611.504,972,l),
(853.029,800,l),
(943.226,922,l),
(683.728,1070,l),
(992.229,1218,l),
(942.757,1342,l),
(644.282,1170,l),
(709.258,1490,l),
(569.258,1490,l),
(528.282,1170,l),
(286.757,1342,l),
(196.229,1218,l),
(455.728,1070,l),
(147.226,922,l),
(197.029,800,l),
(495.504,972,l),
(430.528,652,l)
);
}
);
width = 960;
},
{
associatedMasterId = m008;
guides = (
{
pos = (1080,1344);
},
{
angle = -30;
pos = (832,1472);
},
{
angle = 30;
pos = (832,1472);
},
{
angle = -99.4;
pos = (840,1520);
}
);
layerId = "9504058E-6A4A-4053-B621-6C41BFA29E23";
name = _base;
shapes = (
{
closed = 1;
nodes = (
(460,652,l),
(602,652,l),
(744,1490,l),
(602,1490,l)
);
},
{
closed = 1;
nodes = (
(190,968,l),
(244,840,l),
(1016,1176,l),
(960,1304,l)
);
},
{
closed = 1;
nodes = (
(306,1376,l),
(224,1262,l),
(898,766,l),
(980,878,l)
);
}
);
width = 1036;
},
{
background = {
shapes = (
{
closed = 1;
nodes = (
(726,884,o),
(809,968,o),
(808,1070,cs),
(809,1173,o),
(726,1257,o),
(622,1256,cs),
(521,1257,o),
(437,1173,o),
(436,1070,cs),
(437,968,o),
(521,884,o),
(622,884,cs)
);
}
);
};
guides = (
{
angle = -9.4;
pos = (-72,1240);
},
{
angle = -9.4;
pos = (-72,764);
},
{
orientation = center;
angle = 80.6;
pos = (-2255,1752);
},
{
angle = -39.4;
pos = (760,1472);
},
{
angle = 20.6;
pos = (760,1472);
},
{
angle = 50.6;
pos = (760,1472);
},
{
angle = -69.4;
pos = (760,1472);
}
);
layerId = m010;
name = ital_gen;
shapes = (
{
closed = 1;
nodes = (
(742.528,652,l),
(762.909,908,l),
(950.407,760,l),
(1099.848,962,l),
(885.728,1070,l),
(1135.607,1178,l),
(1053.379,1382,l),
(816.878,1234,l),
(881.258,1490,l),
(649.258,1490,l),
(630.878,1234,l),
(443.379,1382,l),
(291.607,1178,l),
(507.728,1070,l),
(255.848,962,l),
(340.407,760,l),
(576.909,908,l),
(510.528,652,l)
);
}
);
width = 1214;
},
{
guides = (
{
angle = 20.6;
pos = (576,1472);
},
{
orientation = center;
angle = -9.4;
pos = (-304,1472);
},
{
angle = -39.4;
pos = (576,1472);
}
);
layerId = m012;
name = ital_gen;
shapes = (
{
closed = 1;
nodes = (
(492.528,652,l),
(555.106,1030,l),
(851.651,840,l),
(882.604,882,l),
(583.728,1070,l),
(945.182,1260,l),
(927.804,1300,l),
(568.681,1112,l),
(631.258,1490,l),
(583.258,1490,l),
(520.681,1112,l),
(223.804,1300,l),
(193.182,1260,l),
(491.728,1070,l),
(130.604,882,l),
(147.651,840,l),
(507.106,1030,l),
(444.528,652,l)
);
}
);
width = 896;
}
);
note = "hexagonal angle: 30 deg";
unicode = 42;
userData = {
com.typemytype.robofont.guideline.magnetic.x5LXEmmtln = 5;
"interface.width-adjustments" = (
-16
);
};
}
{
glyphname = hyphen;
kernLeft = hyphen;
kernRight = hyphen;
layers = (
{
background = {
shapes = (
{
pos = (-1,0);
ref = x;
}
);
};
layerId = "11F4534A-B963-4AB5-820F-DAF9A20CD933";
name = ital_gen;
shapes = (
{
closed = 1;
nodes = (
(172,719,l),
(144,553,l),
(798,553,l),
(826,719,l)
);
}
);
width = 944;
},
{
background = {
shapes = (
{
pos = (1,0);
ref = x;
}
);
};
layerId = "D0EC06BF-13F9-4C88-A6F5-B8203AF6C77E";
name = ital_gen;
shapes = (
{
closed = 1;
nodes = (
(168,744,l),
(118,442,l),
(816,442,l),
(866,744,l)
);
}
);
width = 972;
},
{
background = {
shapes = (
{
pos = (-2,0);
ref = x;
}
);
};
layerId = "200BE2C5-40F6-4CF4-AF4F-A33C0CC0964F";
name = ital_gen;
shapes = (
{
closed = 1;
nodes = (
(189,662,l),
(181,616,l),
(737,616,l),
(745,662,l)
);
}
);
width = 898;
},
{
associatedMasterId = "11F4534A-B963-4AB5-820F-DAF9A20CD933";
guides = (
{
orientation = center;
pos = (1104,816);
}
);
layerId = "FA942A48-6198-45E0-B3DC-94AD50B28E82";
name = low;
shapes = (
{
closed = 1;
nodes = (
(164,674,l),
(138,514,l),
(790,514,l),
(816,674,l)
);
}
);
width = 942;
},
{
associatedMasterId = "200BE2C5-40F6-4CF4-AF4F-A33C0CC0964F";
guides = (
{
orientation = center;
pos = (1104,816);
}
);
layerId = "628641A3-A77A-48BD-AD1C-A1A5E33F57F0";
name = low;
shapes = (
{
closed = 1;
nodes = (
(182,616,l),
(174,570,l),
(728,570,l),
(738,616,l)
);
}
);
width = 898;
},
{
background = {
shapes = (
{
pos = (1,0);
ref = x;
}
);
};
guides = (
{
orientation = center;
pos = (-3717,878);
}
);
layerId = m008;
name = ital_gen;
shapes = (
{
closed = 1;
nodes = (
(140,688,l),
(113,528,l),
(765,528,l),
(792,688,l)
);
}
);
width = 879;
},
{
associatedMasterId = m008;
guides = (
{
orientation = center;
pos = (1104,816);
}
);
layerId = "8219FCA5-55E9-407D-B48F-811E641E65DF";
name = low;
shapes = (
{
closed = 1;
nodes = (
(164,674,l),
(138,514,l),
(790,514,l),
(816,674,l)
);
}
);
width = 942;
},
{
background = {
shapes = (
{
pos = (1,0);
ref = x;
}
);
};
guides = (
{
orientation = center;
pos = (-1835,816);
}
);
layerId = m010;
name = ital_gen;
shapes = (
{
closed = 1;
nodes = (
(153,720,l),
(103,418,l),
(801,418,l),
(851,720,l)
);
}
);
width = 940;
},
{
background = {
shapes = (
{
pos = (-1,0);
ref = x;
}
);
};
layerId = m012;
name = ital_gen;
shapes = (
{
closed = 1;
nodes = (
(125,630,l),
(118,584,l),
(674,584,l),
(681,630,l)
);
}
);
width = 771;
},
{
associatedMasterId = m012;
guides = (
{
orientation = center;
pos = (1104,816);
}
);
layerId = "64E4E782-A065-4601-86D3-F65473F65BC2";
name = low;
shapes = (
{
closed = 1;
nodes = (
(182,616,l),
(174,570,l),
(728,570,l),
(738,616,l)
);
}
);
width = 898;
}
);
unicode = 45;
userData = {
"interface.width-adjustments" = (
-16
);
};
}
{
glyphname = slash;
kernLeft = slash;
kernRight = slash;
layers = (
{
layerId = "11F4534A-B963-4AB5-820F-DAF9A20CD933";
shapes = (
{
closed = 1;
nodes = (
(692,1560,l),
(-82,-224,l),
(84,-224,l),
(858,1560,l)
);
}
);
width = 738;
},
{
guides = (
{
pos = (324,1240);
},
{
pos = (8,764);
}
);
layerId = "D0EC06BF-13F9-4C88-A6F5-B8203AF6C77E";
shapes = (
{
closed = 1;
nodes = (
(658,1560,l),
(-116,-224,l),
(224,-224,l),
(998,1560,l)
);
}
);
width = 844;
},
{
layerId = "200BE2C5-40F6-4CF4-AF4F-A33C0CC0964F";
shapes = (
{
closed = 1;
nodes = (
(710,1560,l),
(-64,-224,l),
(-14,-224,l),
(762,1560,l)
);
}
);
width = 662;
},
{
layerId = m008;
name = ital_gen;
shapes = (
{
closed = 1;
nodes = (
(664.846,1560,l),
(-110.493,-224,l),
(47.507,-224,l),
(822.846,1560,l)
);
}
);
width = 666;
},
{
guides = (
{
angle = -9.4;
pos = (-84,1240);
},
{
angle = -9.4;
pos = (-84,764);
}
);
layerId = m010;
name = ital_gen;
shapes = (
{
closed = 1;
nodes = (
(646.846,1560,l),
(-128.493,-224,l),
(211.507,-224,l),
(986.846,1560,l)
);
}
);
width = 812;
},
{
layerId = m012;
name = ital_gen;
shapes = (
{
closed = 1;
nodes = (
(652.846,1560,l),
(-122.493,-224,l),
(-72.493,-224,l),
(702.846,1560,l)
);
}
);
width = 534;
}
);
unicode = 47;
userData = {
"interface.width-adjustments" = (
-16
);
};
}
{
glyphname = zero;
kernLeft = six;
kernRight = nine;
layers = (
{
anchors = (
{
name = center;
pos = (635,745);
},
{
name = top;
pos = (759,1490);
}
);
guides = (
{
pos = (848,2044);
},
{
pos = (848,4);
}
);
layerId = "200BE2C5-40F6-4CF4-AF4F-A33C0CC0964F";
name = ital_gen;
shapes = (
{
closed = 1;
nodes = (
(793,-20,o),
(1014,271,o),
(1092,744,cs),
(1171,1219,o),
(1046,1510,o),
(763,1510,cs),
(478,1510,o),
(257,1219,o),
(178,744,cs),
(100,271,o),
(225,-20,o),
(510,-20,cs)
);
},
{
closed = 1;
nodes = (
(262,26,o),
(150,297,o),
(224,744,cs),
(298,1193,o),
(500,1464,o),
(755,1464,cs),
(1008,1464,o),
(1120,1193,o),
(1046,744,cs),
(972,297,o),
(770,26,o),
(517,26,cs)
);
}
);
width = 1208;
},
{
anchors = (
{
name = center;
pos = (576,745);
},
{
name = top;
pos = (700,1490);
}
);
guides = (
{
pos = (720,4);
}
);
layerId = m012;
name = ital_gen;
shapes = (
{
closed = 1;
nodes = (
(734,-20,o),
(955,271,o),
(1033,744,cs),
(1112,1219,o),
(987,1510,o),
(704,1510,cs),
(419,1510,o),
(198,1219,o),
(119,744,cs),
(41,271,o),
(166,-20,o),
(451,-20,cs)
);
},
{
closed = 1;
nodes = (
(203,26,o),
(91,297,o),
(165,744,cs),
(239,1193,o),
(441,1464,o),
(696,1464,cs),
(949,1464,o),
(1061,1193,o),
(987,744,cs),
(913,297,o),
(711,26,o),
(458,26,cs)
);
}
);
width = 1080;
},
{
anchors = (
{
name = center;
pos = (676,745);
},
{
name = top;
pos = (800,1490);
}
);
layerId = "11F4534A-B963-4AB5-820F-DAF9A20CD933";
name = ital_gen;
shapes = (
{
closed = 1;
nodes = (
(882,-20,o),
(1121,257,o),
(1201,747,cs),
(1280,1231,o),
(1131,1510,o),
(803,1510,cs),
(474,1510,o),
(232,1229,o),
(152,744,cs),
(72,259,o),
(217,-20,o),
(550,-20,cs)
);
},
{
closed = 1;
nodes = (
(359,146,o),
(273,367,o),
(335,743,cs),
(399,1131,o),
(562,1345,o),
(776,1345,cs),
(997,1345,o),
(1079,1119,o),
(1018,747,cs),
(956,369,o),
(797,146,o),
(577,146,cs)
);
}
);
width = 1291;
},
{
anchors = (
{
name = center;
pos = (664,745);
},
{
name = top;
pos = (788,1490);
}
);
guides = (
{
orientation = center;
angle = 80.6;
pos = (-5705,792);
},
{
angle = 80.6;
pos = (629,1552);
}
);
layerId = m008;
name = ital_gen;
shapes = (
{
closed = 1;
nodes = (
(867,-24,o),
(1125,275,o),
(1202,744,cs),
(1280,1215,o),
(1122,1514,o),
(792,1514,cs),
(462,1514,o),
(204,1215,o),
(126,744,cs),
(49,275,o),
(207,-24,o),
(537,-24,cs)
);
},
{
closed = 1;
nodes = (
(336,136,o),
(234,366,o),
(296,744,cs),
(359,1124,o),
(537,1354,o),
(765,1354,cs),
(993,1354,o),
(1095,1124,o),
(1032,744,cs),
(970,366,o),
(792,136,o),
(564,136,cs)
);
}
);
width = 1256;
},
{
anchors = (
{
name = center;
pos = (779,745);
},
{
name = top;
pos = (903,1490);
}
);
layerId = "D0EC06BF-13F9-4C88-A6F5-B8203AF6C77E";
name = ital_gen;
shapes = (
{
closed = 1;
nodes = (
(1068,-20,o),
(1358,263,o),
(1437,744,cs),
(1517,1225,o),
(1320,1510,o),
(906,1510,cs),
(492,1510,o),
(201,1226,o),
(121,744,cs),
(42,263,o),
(239,-20,o),
(653,-20,cs)
);
},
{
closed = 1;
nodes = (
(552,308,o),
(494,461,o),
(541,744,cs),
(588,1027,o),
(699,1184,o),
(852,1184,cs),
(1006,1184,o),
(1064,1028,o),
(1017,744,cs),
(970,461,o),
(861,308,o),
(707,308,cs)
);
}
);
width = 1496;
},
{
anchors = (
{
name = center;
pos = (734,745);
},
{
name = top;
pos = (858,1490);
}
);
layerId = m010;
name = ital_gen;
shapes = (
{
closed = 1;
nodes = (
(1020,-24,o),
(1313,267,o),
(1392,744,cs),
(1471,1222,o),
(1275,1514,o),
(862,1514,cs),
(449,1514,o),
(155,1221,o),
(76,744,cs),
(-3,268,o),
(194,-24,o),
(607,-24,cs)
);
},
{
closed = 1;
nodes = (
(495,296,o),
(422,466,o),
(468,744,cs),
(514,1023,o),
(644,1194,o),
(809,1194,cs),
(974,1194,o),
(1046,1023,o),
(1000,744,cs),
(954,466,o),
(825,296,o),
(660,296,cs)
);
}
);
width = 1396;
}
);
metricLeft = O;
metricRight = O;
unicode = 48;
}
{
glyphname = seven;
kernLeft = seven;
kernRight = seven;
layers = (
{
layerId = "11F4534A-B963-4AB5-820F-DAF9A20CD933";
name = ital_gen;
shapes = (
{
closed = 1;
nodes = (
(308,0,l),
(1186,1313,l),
(1216,1490,l),
(253,1490,l),
(225,1323,l),
(978,1323,l),
(976,1311,l),
(97,0,l)
);
}
);
width = 1162;
},
{
layerId = "D0EC06BF-13F9-4C88-A6F5-B8203AF6C77E";
name = ital_gen;
shapes = (
{
closed = 1;
nodes = (
(489,0,l),
(1270,1166,l),
(1324,1490,l),
(218,1490,l),
(164,1166,l),
(842,1166,l),
(841,1158,l),
(65,0,l)
);
}
);
width = 1226;
},
{
layerId = "200BE2C5-40F6-4CF4-AF4F-A33C0CC0964F";
name = ital_gen;
shapes = (
{
closed = 1;
nodes = (
(184,0,l),
(1131,1442,l),
(1139,1490,l),
(275,1490,l),
(267,1444,l),
(1075,1444,l),
(1074,1438,l),
(132,0,l)
);
}
);
width = 1113;
},
{
layerId = m008;
name = ital_gen;
shapes = (
{
closed = 1;
nodes = (
(237,0,l),
(1120,1320,l),
(1148,1490,l),
(192,1490,l),
(165,1330,l),
(932,1330,l),
(932,1329,l),
(40,0,l)
);
}
);
width = 1039;
},
{
layerId = m010;
name = ital_gen;
shapes = (
{
closed = 1;
nodes = (
(478,0,l),
(1259,1166,l),
(1313,1490,l),
(207,1490,l),
(151,1152,l),
(829,1152,l),
(828,1150,l),
(54,0,l)
);
}
);
width = 1194;
},
{
layerId = m012;
name = ital_gen;
shapes = (
{
closed = 1;
nodes = (
(125,0,l),
(1072,1442,l),
(1080,1490,l),
(216,1490,l),
(208,1444,l),
(1017,1444,l),
(1016,1440,l),
(71,0,l)
);
}
);
width = 981;
}
);
metricRight = "=|T";
unicode = 55;
}
{
glyphname = nine;
kernRight = nine;
layers = (
{
layerId = "11F4534A-B963-4AB5-820F-DAF9A20CD933";
name = ital_gen;
shapes = (
{
closed = 1;
nodes = (
(862,-20,o),
(1100,279,o),
(1187,803,cs),
(1277,1346,o),
(1018,1506,o),
(768,1510,cs),
(455,1515,o),
(241,1280,o),
(196,1012,cs),
(148,726,o),
(330,517,o),
(591,517,cs),
(743,517,o),
(880,591,o),
(983,716,c),
(995,716,l),
(935,354,o),
(752,148,o),
(526,148,cs),
(372,148,o),
(301,244,o),
(291,379,c),
(103,379,l),
(98,141,o),
(271,-20,o),
(524,-20,cs)
);
},
{
closed = 1;
nodes = (
(454,683,o),
(353,832,o),
(381,1009,cs),
(411,1199,o),
(577,1343,o),
(753,1343,cs),
(938,1343,o),
(1047,1184,o),
(1017,1012,cs),
(986,834,o),
(814,683,o),
(638,683,cs)
);
}
);
width = 1268;
},
{
layerId = "D0EC06BF-13F9-4C88-A6F5-B8203AF6C77E";
name = ital_gen;
shapes = (
{
closed = 1;
nodes = (
(1025,-24,o),
(1285,280,o),
(1365,762,cs),
(1455,1304,o),
(1176,1514,o),
(828,1514,cs),
(477,1514,o),
(212,1299,o),
(159,978,cs),
(114,705,o),
(262,506,o),
(533,506,cs),
(702,506,o),
(869,588,o),
(949,724,c),
(957,724,l),
(917,484,o),
(814,320,o),
(644,320,cs),
(559,320,o),
(491,361,o),
(487,446,c),
(89,446,l),
(72,191,o),
(306,-24,o),
(635,-24,cs)
);
},
{
closed = 1;
nodes = (
(606,780,o),
(533,869,o),
(553,992,cs),
(573,1114,o),
(677,1204,o),
(796,1204,cs),
(915,1204,o),
(987,1114,o),
(967,992,cs),
(947,870,o),
(845,780,o),
(726,780,cs)
);
}
);
width = 1421;
},
{
layerId = "200BE2C5-40F6-4CF4-AF4F-A33C0CC0964F";
name = ital_gen;
shapes = (
{
closed = 1;
nodes = (
(825,-20,o),
(984,416,o),
(1050,818,cs),
(1128,1286,o),
(969,1510,o),
(715,1510,cs),
(466,1510,o),
(269,1295,o),
(228,1048,cs),
(185,783,o),
(351,582,o),
(587,582,cs),
(758,582,o),
(931,689,o),
(1002,838,c),
(1008,838,l),
(921,314,o),
(734,26,o),
(463,26,cs),
(268,26,o),
(170,172,o),
(189,376,c),
(143,376,l),
(120,143,o),
(243,-20,o),
(464,-20,cs)
);
},
{
closed = 1;
nodes = (
(374,628,o),
(235,812,o),
(274,1048,cs),
(312,1277,o),
(500,1463,o),
(715,1464,cs),
(899,1463,o),
(1017,1329,o),
(1024,1068,cs),
(1028,835,o),
(816,628,o),
(589,628,cs)
);
}
);
width = 1154;
},
{
layerId = m008;
name = ital_gen;
shapes = (
{
closed = 1;
nodes = (
(858,-24,o),
(1069,307,o),
(1152,808,cs),
(1226,1258,o),
(1065,1514,o),
(735,1514,cs),
(442,1514,o),
(219,1312,o),
(171,1018,cs),
(124,735,o),
(304,528,o),
(573,528,cs),
(733,528,o),
(871,595,o),
(958,710,c),
(960,710,l),
(904,377,o),
(741,136,o),
(483,136,cs),
(332,136,o),
(248,228,o),
(244,372,c),
(68,372,l),
(56,135,o),
(225,-24,o),
(484,-24,cs)
);
},
{
closed = 1;
nodes = (
(429,688,o),
(313,830,o),
(345,1018,cs),
(376,1207,o),
(544,1354,o),
(724,1354,cs),
(902,1354,o),
(1022,1207,o),
(991,1020,cs),
(960,834,o),
(789,688,o),
(608,688,cs)
);
}
);
width = 1196;
},
{
layerId = m010;
name = ital_gen;
shapes = (
{
closed = 1;
nodes = (
(1013,-24,o),
(1241,280,o),
(1321,762,cs),
(1400,1236,o),
(1183,1514,o),
(776,1514,cs),
(428,1514,o),
(169,1304,o),
(117,992,cs),
(69,701,o),
(262,490,o),
(566,490,cs),
(715,490,o),
(826,540,o),
(923,652,c),
(925,652,l),
(887,421,o),
(775,280,o),
(600,280,cs),
(487,280,o),
(428,340,o),
(427,434,c),
(45,434,l),
(28,179,o),
(278,-24,o),
(607,-24,cs)
);
},
{
closed = 1;
nodes = (
(561,782,o),
(489,870,o),
(509,992,cs),
(529,1114,o),
(631,1202,o),
(752,1202,cs),
(871,1202,o),
(943,1114,o),
(923,992,cs),
(903,870,o),
(801,782,o),
(682,782,cs)
);
}
);
width = 1322;
},
{
layerId = m012;
name = ital_gen;
shapes = (
{
closed = 1;
nodes = (
(763,-16,o),
(924,410,o),
(990,812,cs),
(1068,1279,o),
(908,1506,o),
(655,1506,cs),
(405,1506,o),
(209,1288,o),
(168,1040,cs),
(124,776,o),
(292,576,o),
(525,576,cs),
(698,576,o),
(875,684,o),
(948,843,c),
(950,843,l),
(866,314,o),
(676,30,o),
(405,30,cs),
(219,30,o),
(121,151,o),
(127,338,c),
(81,338,l),
(71,124,o),
(194,-16,o),
(405,-16,cs)
);
},
{
closed = 1;
nodes = (
(313,622,o),
(175,805,o),
(214,1040,cs),
(252,1271,o),
(441,1460,o),
(656,1460,cs),
(840,1460,o),
(956,1323,o),
(962,1062,cs),
(967,828,o),
(756,622,o),
(529,622,cs)
);
}
);
width = 1026;
}
);
metricLeft = zero;
metricRight = zero;
note = "six mirrored";
unicode = 57;
}
{
glyphname = less;
layers = (
{
guides = (
{
pos = (268,800);
}
);
layerId = "11F4534A-B963-4AB5-820F-DAF9A20CD933";
shapes = (
{
closed = 1;
nodes = (
(1033,44,l),
(1066,238,l),
(403,579,l),
(409,569,l),
(411,597,l),
(407,585,l),
(1180,926,l),
(1210,1122,l),
(190,646,l),
(168,520,l)
);
}
);
width = 1356;
},
{
associatedMasterId = "11F4534A-B963-4AB5-820F-DAF9A20CD933";
guides = (
{
angle = 41.9872;
pos = (320,896);
},
{
angle = 318.0498;
pos = (320,896);
},
{
pos = (764,176);
},
{
pos = (1716,1616);
},
{
pos = (320,896);
}
);
layerId = "EF43BAE6-FFF7-42F6-8EF1-6FA5FACED43C";
name = "Sep 11 18, 20:42";
shapes = (
{
closed = 1;
nodes = (
(346,648,l),
(346,654,l),
(876,1064,l),
(780,1176,l),
(110,652,l),
(606,128,l),
(738,238,l)
);
}
);
width = 942;
},
{
guides = (
{
pos = (476,1240);
},
{
pos = (392,896);
},
{
angle = 90;
pos = (1892,1620);
}
);
layerId = "D0EC06BF-13F9-4C88-A6F5-B8203AF6C77E";
shapes = (
{
closed = 1;
nodes = (
(1149,-2,l),
(1209,364,l),
(559,602,l),
(567,584,l),
(575,626,l),
(561,608,l),
(1289,846,l),
(1349,1214,l),
(197,780,l),
(139,430,l)
);
}
);
width = 1420;
},
{
guides = (
{
pos = (288,800);
}
);
layerId = "200BE2C5-40F6-4CF4-AF4F-A33C0CC0964F";
shapes = (
{
closed = 1;
nodes = (
(926,40,l),
(934,96,l),
(260,584,l),
(268,570,l),
(272,594,l),
(260,578,l),
(1094,1068,l),
(1104,1122,l),
(222,606,l),
(214,558,l)
);
}
);
width = 1304;
},
{
guides = (
{
angle = -9.4;
pos = (1004,1616);
},
{
angle = -9.4;
pos = (-24,800);
}
);
layerId = m008;
name = ital_gen;
shapes = (
{
closed = 1;
nodes = (
(1008.205,46,l),
(1038.998,232,l),
(376.277,578,l),
(380.622,568,l),
(385.257,596,l),
(377.271,584,l),
(1154.551,930,l),
(1185.674,1118,l),
(168.541,640,l),
(149.338,524,l)
);
}
);
width = 1287;
},
{
associatedMasterId = m008;
guides = (
{
angle = 41.9872;
pos = (320,896);
},
{
angle = 318.0498;
pos = (320,896);
},
{
pos = (764,176);
},
{
pos = (1716,1616);
},
{
pos = (320,896);
}
);
layerId = "891F68A4-811C-408A-BEDD-B3C93F07E2B9";
name = "Sep 11 18, 20:42";
shapes = (
{
closed = 1;
nodes = (
(346,648,l),
(346,654,l),
(876,1064,l),
(780,1176,l),
(110,652,l),
(606,128,l),
(738,238,l)
);
}
);
width = 942;
},
{
background = {
guides = (
{
orientation = center;
pos = (408,832);
}
);
shapes = (
{
closed = 1;
nodes = (
(646,24,l),
(972,24,l),
(972,1094,l),
(646,1094,l)
);
}
);
};
guides = (
{
orientation = center;
angle = -9.4;
pos = (-3182,832);
}
);
layerId = m010;
name = ital_gen;
shapes = (
{
closed = 1;
nodes = (
(1138.259,-2,l),
(1198.85,364,l),
(550.251,602,l),
(559.271,584,l),
(566.224,626,l),
(551.244,608,l),
(1278.645,846,l),
(1339.567,1214,l),
(185.718,780,l),
(127.776,430,l)
);
}
);
width = 1388;
},
{
guides = (
{
orientation = center;
angle = -9.4;
pos = (-1100,800);
}
);
layerId = m012;
name = ital_gen;
shapes = (
{
closed = 1;
nodes = (
(873.212,40,l),
(882.483,96,l),
(209.271,584,l),
(216.953,570,l),
(220.926,594,l),
(208.277,578,l),
(1043.396,1068,l),
(1052.336,1122,l),
(170.913,606,l),
(162.966,558,l)
);
}
);
width = 1176;
}
);
metricWidth = plus;
note = "Recipe: Make rect and rotate 63deg (regular) or 69deg (black)";
unicode = 60;
userData = {
com.typemytype.robofont.guideline.magnetic.UCqMAsbNEX = 5;
com.typemytype.robofont.guideline.magnetic.abdyNxiJ0X = 5;
com.typemytype.robofont.guideline.magnetic.hl7wBCA74H = 5;
com.typemytype.robofont.guideline.magnetic.o3FB2ulJxh = 5;
com.typemytype.robofont.guideline.magnetic.oUvmdsbOwf = 5;
"interface.width-adjustments" = (
-16
);
};
}
{
glyphname = B;
kernLeft = B;
kernRight = B;
layers = (
{
anchors = (
{
name = bottom;
pos = (558,0);
},
{
name = cross;
pos = (320,422);
},
{
name = top;
pos = (797,1490);
},
{
name = topl;
pos = (334,1490);
}
);
layerId = "11F4534A-B963-4AB5-820F-DAF9A20CD933";
name = ital_gen;
shapes = (
{
closed = 1;
nodes = (
(639,0,ls),
(988,0,o),
(1160,164,o),
(1196,388,cs),
(1234,624,o),
(1093,759,o),
(954,768,c),
(954,778,l),
(1096,815,o),
(1225,904,o),
(1254,1087,cs),
(1289,1308,o),
(1167,1490,o),
(856,1490,cs),
(334,1490,l),
(87,0,l)
);
},
{
closed = 1;
nodes = (
(390,676,l),
(755,676,ls),
(939,676,o),
(1040,561,o),
(1017,414,cs),
(996,280,o),
(886,167,o),
(650,167,cs),
(305,167,l)
);
},
{
closed = 1;
nodes = (
(497,1323,l),
(836,1323,ls),
(1031,1323,o),
(1094,1225,o),
(1073,1101,cs),
(1046,941,o),
(896,836,o),
(739,836,cs),
(416,836,l)
);
}
);
width = 1340;
},
{
anchors = (
{
name = bottom;
pos = (571,0);
},
{
name = cross;
pos = (309,480);
},
{
name = top;
pos = (820,1490);
},
{
name = topl;
pos = (250,1490);
}
);
layerId = "D0EC06BF-13F9-4C88-A6F5-B8203AF6C77E";
name = ital_gen;
shapes = (
{
closed = 1;
nodes = (
(716,0,ls),
(1039,0,o),
(1255,164,o),
(1293,396,cs),
(1330,619,o),
(1195,769,o),
(1005,776,c),
(1005,789,l),
(1180,822,o),
(1325,940,o),
(1350,1092,cs),
(1390,1331,o),
(1226,1490,o),
(886,1490,cs),
(250,1490,l),
(3,0,l)
);
},
{
closed = 1;
nodes = (
(513,638,l),
(719,638,ls),
(841,638,o),
(899,592,o),
(884,500,cs),
(866,388,o),
(775,322,o),
(640,322,cs),
(461,322,l)
);
},
{
closed = 1;
nodes = (
(601,1172,l),
(784,1172,ls),
(884,1172,o),
(941,1134,o),
(928,1056,cs),
(911,951,o),
(816,888,o),
(710,888,cs),
(554,888,l)
);
}
);
width = 1368;
},
{
anchors = (
{
name = bottom;
pos = (543,0);
},
{
name = cross;
pos = (266,390);
},
{
name = top;
pos = (772,1490);
},
{
name = topl;
pos = (384,1490);
}
);
layerId = "200BE2C5-40F6-4CF4-AF4F-A33C0CC0964F";
name = ital_gen;
shapes = (
{
closed = 1;
nodes = (
(655,0,ls),
(911,0,o),
(1084,149,o),
(1122,379,cs),
(1157,586,o),
(1045,741,o),
(900,755,c),
(900,759,l),
(1050,795,o),
(1156,934,o),
(1185,1109,cs),
(1224,1344,o),
(1099,1490,o),
(849,1490,cs),
(386,1490,l),
(139,0,l)
);
},
{
closed = 1;
nodes = (
(307,734,l),
(777,734,ls),
(987,734,o),
(1111,590,o),
(1077,385,cs),
(1044,182,o),
(878,46,o),
(660,46,cs),
(193,46,l)
);
},
{
closed = 1;
nodes = (
(425,1444,l),
(844,1444,ls),
(1061,1444,o),
(1175,1325,o),
(1140,1115,cs),
(1110,936,o),
(984,780,o),
(781,780,cs),
(315,780,l)
);
}
);
width = 1310;
},
{
anchors = (
{
name = bottom;
pos = (549,0);
},
{
name = cross;
pos = (254,419);
},
{
name = top;
pos = (787,1490);
},
{
name = topl;
pos = (307,1490);
}
);
layerId = m008;
name = ital_gen;
shapes = (
{
closed = 1;
nodes = (
(612,0,ls),
(970,0,o),
(1166,157,o),
(1207,407,cs),
(1243,625,o),
(1129,741,o),
(965,769,c),
(965,770,l),
(1125,821,o),
(1230,917,o),
(1258,1083,cs),
(1299,1331,o),
(1139,1490,o),
(840,1490,cs),
(307,1490,l),
(61,0,l)
);
},
{
closed = 1;
nodes = (
(353,678,l),
(734,678,ls),
(952,678,o),
(1053,582,o),
(1026,422,cs),
(998,252,o),
(853,160,o),
(628,160,cs),
(267,160,l)
);
},
{
closed = 1;
nodes = (
(461,1330,l),
(831,1330,ls),
(1016,1330,o),
(1106,1241,o),
(1082,1094,cs),
(1056,937,o),
(924,836,o),
(739,836,cs),
(379,836,l)
);
}
);
width = 1307;
},
{
anchors = (
{
name = bottom;
pos = (561,0);
},
{
name = cross;
pos = (301,459);
},
{
name = top;
pos = (809,1490);
},
{
name = topl;
pos = (239,1490);
}
);
layerId = m010;
name = ital_gen;
shapes = (
{
closed = 1;
nodes = (
(705,0,ls),
(1028,0,o),
(1236,165,o),
(1274,396,cs),
(1311,619,o),
(1181,768,o),
(990,783,c),
(990,784,l),
(1168,817,o),
(1313,932,o),
(1339,1092,cs),
(1377,1322,o),
(1215,1490,o),
(875,1490,cs),
(239,1490,l),
(-7,0,l)
);
},
{
closed = 1;
nodes = (
(497,606,l),
(717,606,ls),
(818,606,o),
(873,548,o),
(859,459,cs),
(844,370,o),
(769,312,o),
(668,312,cs),
(448,312,l)
);
},
{
closed = 1;
nodes = (
(592,1178,l),
(787,1178,ls),
(879,1178,o),
(929,1123,o),
(915,1039,cs),
(901,955,o),
(833,900,o),
(741,900,cs),
(546,900,l)
);
}
);
width = 1331;
},
{
anchors = (
{
name = bottom;
pos = (512,0);
},
{
name = cross;
pos = (191,390);
},
{
name = top;
pos = (738,1479);
},
{
name = topl;
pos = (327,1490);
}
);
layerId = m012;
name = ital_gen;
shapes = (
{
closed = 1;
nodes = (
(596,0,ls),
(875,0,o),
(1075,159,o),
(1114,393,cs),
(1148,600,o),
(1008,732,o),
(852,758,c),
(852,759,l),
(1000,800,o),
(1145,934,o),
(1174,1109,cs),
(1213,1344,o),
(1056,1490,o),
(790,1490,cs),
(327,1490,l),
(81,0,l)
);
},
{
closed = 1;
nodes = (
(248,734,l),
(718,734,ls),
(928,734,o),
(1104,612,o),
(1069,399,cs),
(1034,191,o),
(856,46,o),
(601,46,cs),
(134,46,l)
);
},
{
closed = 1;
nodes = (
(366,1444,l),
(785,1444,ls),
(1021,1444,o),
(1164,1325,o),
(1129,1115,cs),
(1099,936,o),
(925,780,o),
(722,780,cs),
(256,780,l)
);
}
);
width = 1236;
},
{
anchors = (
{
name = bottom;
pos = (527,0);
},
{
name = cross;
pos = (220,419);
},
{
name = top;
pos = (796,1676);
},
{
name = topl;
pos = (308,1490);
}
);
associatedMasterId = m008;
guides = (
{
angle = 80.6;
pos = (632,1772);
},
{
angle = 80.6;
pos = (1320,1340);
}
);
layerId = "008E653D-5D82-4295-90C7-D8BB40835FFD";
name = "Apr 27, 23, 12:36";
shapes = (
{
closed = 1;
nodes = (
(599,0,ls),
(952,0,o),
(1125.474,172,o),
(1162.557,396,cs),
(1201.461,631,o),
(1059.652,759,o),
(924.142,768,c),
(926.459,782,l),
(1060.253,817,o),
(1188.325,902,o),
(1220.111,1094,cs),
(1256.2,1312,o),
(1139.668,1490,o),
(829.668,1490,cs),
(307.668,1490,l),
(61,0,l)
);
},
{
closed = 1;
nodes = (
(353.242,678,l),
(721.242,678,ls),
(915.242,678,o),
(1015.555,547,o),
(990.557,396,cs),
(968.87,265,o),
(861.488,160,o),
(625.488,160,cs),
(267.488,160,l)
);
},
{
closed = 1;
nodes = (
(461.18,1330,l),
(803.18,1330,ls),
(1000.18,1330,o),
(1069.797,1225,o),
(1048.111,1094,cs),
(1022.119,937,o),
(877.068,834,o),
(715.068,834,cs),
(379.068,834,l)
);
}
);
width = 1269;
}
);
metricLeft = H;
unicode = 66;
userData = {
com.typemytype.robofont.guideline.magnetic.olHMUUD5VH = 5;
com.typemytype.robofont.guideline.magnetic.rWKPWS6RQH = 5;
"interface.width-adjustments" = (
-16
);
};
}
{
glyphname = E;
kernLeft = B;
kernRight = E;
layers = (
{
anchors = (
{
name = bottom;
pos = (546,0);
},
{
name = cedilla;
pos = (546,0);
},
{
name = ogonek;
pos = (1004,0);
},
{
name = tonos;
pos = (334,1490);
},
{
name = top;
pos = (793,1490);
}
);
layerId = "11F4534A-B963-4AB5-820F-DAF9A20CD933";
name = ital_gen;
shapes = (
{
closed = 1;
nodes = (
(1004,0,l),
(1031,167,l),
(304,167,l),
(387,669,l),
(1057,669,l),
(1085,836,l),
(416,836,l),
(496,1323,l),
(1214,1323,l),
(1242,1490,l),
(334,1490,l),
(87,0,l)
);
}
);
width = 1232;
},
{
anchors = (
{
name = bottom;
pos = (540,0);
},
{
name = cedilla;
pos = (542,0);
},
{
name = ogonek;
pos = (1073,0);
},
{
name = tonos;
pos = (250,1490);
},
{
name = top;
pos = (787,1490);
}
);
layerId = "D0EC06BF-13F9-4C88-A6F5-B8203AF6C77E";
name = ital_gen;
shapes = (
{
closed = 1;
nodes = (
(1073,0,l),
(1127,326,l),
(461,326,l),
(505,594,l),
(1119,594,l),
(1172,912,l),
(558,912,l),
(600,1164,l),
(1270,1164,l),
(1324,1490,l),
(250,1490,l),
(3,0,l)
);
}
);
width = 1274;
},
{
anchors = (
{
name = bottom;
pos = (547,0);
},
{
name = cedilla;
pos = (547,0);
},
{
name = ogonek;
pos = (955,0);
},
{
name = tonos;
pos = (386,1490);
},
{
name = top;
pos = (794,1490);
}
);
layerId = "200BE2C5-40F6-4CF4-AF4F-A33C0CC0964F";
name = ital_gen;
shapes = (
{
closed = 1;
nodes = (
(955,0,l),
(963,46,l),
(195,46,l),
(307,722,l),
(1011,722,l),
(1018,768,l),
(314,768,l),
(426,1442,l),
(1172,1442,l),
(1180,1490,l),
(386,1490,l),
(139,0,l)
);
}
);
width = 1196;
},
{
anchors = (
{
name = bottom;
pos = (545,0);
},
{
name = cedilla;
pos = (556,0);
},
{
name = ogonek;
pos = (1030,0);
},
{
name = tonos;
pos = (308,1490);
},
{
name = top;
pos = (792,1490);
}
);
layerId = m008;
name = ital_gen;
shapes = (
{
closed = 1;
nodes = (
(1030,0,l),
(1056,160,l),
(267,160,l),
(354,683,l),
(1085,683,l),
(1112,843,l),
(381,843,l),
(461,1330,l),
(1250,1330,l),
(1277,1490,l),
(308,1490,l),
(61,0,l)
);
}
);
width = 1183;
},
{
anchors = (
{
name = bottom;
pos = (570,0);
},
{
name = cedilla;
pos = (568,0);
},
{
name = ogonek;
pos = (1147,0);
},
{
name = tonos;
pos = (240,1490);
},
{
name = top;
pos = (817,1490);
}
);
layerId = m010;
name = ital_gen;
shapes = (
{
closed = 1;
nodes = (
(1147,0,l),
(1205,352,l),
(467,352,l),
(504,574,l),
(1185,574,l),
(1241,914,l),
(560,914,l),
(597,1138,l),
(1335,1138,l),
(1393,1490,l),
(240,1490,l),
(-7,0,l)
);
}
);
width = 1289;
},
{
anchors = (
{
name = bottom;
pos = (532,0);
},
{
name = cedilla;
pos = (529,0);
},
{
name = ogonek;
pos = (983,0);
},
{
name = tonos;
pos = (328,1490);
},
{
name = top;
pos = (779,1490);
}
);
layerId = m012;
name = ital_gen;
shapes = (
{
closed = 1;
nodes = (
(983,0,l),
(991,46,l),
(137,46,l),
(251,738,l),
(1028,738,l),
(1036,784,l),
(259,784,l),
(368,1442,l),
(1222,1442,l),
(1230,1490,l),
(328,1490,l),
(81,0,l)
);
}
);
width = 1146;
}
);
metricLeft = H;
unicode = 69;
userData = {
"interface.width-adjustments" = (
-16
);
};
}
{
glyphname = F;
kernLeft = B;
kernRight = F;
layers = (
{
anchors = (
{
name = bottom;
pos = (182,0);
},
{
name = cross;
pos = (239,346);
},
{
name = lfthook;
pos = (87,0);
},
{
name = top;
pos = (785,1490);
}
);
background = {
shapes = (
{
ref = E;
}
);
};
layerId = "11F4534A-B963-4AB5-820F-DAF9A20CD933";
name = ital_gen;
shapes = (
{
closed = 1;
nodes = (
(277,0,l),
(384,644,l),
(1027,644,l),
(1054,811,l),
(411,811,l),
(496,1323,l),
(1207,1323,l),
(1235,1490,l),
(334,1490,l),
(87,0,l)
);
}
);
width = 1209;
},
{
anchors = (
{
name = bottom;
pos = (205,0);
},
{
name = cross;
pos = (246,250);
},
{
name = lfthook;
pos = (3,0);
},
{
name = top;
pos = (776,1490);
}
);
background = {
shapes = (
{
ref = E;
}
);
};
layerId = "D0EC06BF-13F9-4C88-A6F5-B8203AF6C77E";
name = ital_gen;
shapes = (
{
closed = 1;
nodes = (
(407,0,l),
(491,510,l),
(1071,510,l),
(1124,828,l),
(544,828,l),
(600,1164,l),
(1244,1164,l),
(1298,1490,l),
(250,1490,l),
(3,0,l)
);
}
);
width = 1196;
},
{
anchors = (
{
name = bottom;
pos = (162,0);
},
{
name = cross;
pos = (230,410);
},
{
name = lfthook;
pos = (139,0);
},
{
name = top;
pos = (786,1490);
}
);
layerId = "200BE2C5-40F6-4CF4-AF4F-A33C0CC0964F";
name = ital_gen;
shapes = (
{
closed = 1;
nodes = (
(185,0,l),
(305,722,l),
(987,722,l),
(994,768,l),
(312,768,l),
(424,1444,l),
(1176,1444,l),
(1184,1490,l),
(386,1490,l),
(139,0,l)
);
}
);
width = 1196;
},
{
anchors = (
{
name = bottom;
pos = (151,0);
},
{
name = cross;
pos = (209,350);
},
{
name = lfthook;
pos = (61,0);
},
{
name = top;
pos = (777,1490);
}
);
background = {
shapes = (
{
pos = (1,0);
ref = E;
}
);
};
layerId = m008;
metricRight = "=T";
name = ital_gen;
shapes = (
{
closed = 1;
nodes = (
(241,0,l),
(354,683,l),
(1051,683,l),
(1078,843,l),
(381,843,l),
(461,1330,l),
(1218,1330,l),
(1245,1490,l),
(308,1490,l),
(61,0,l)
);
}
);
width = 1136;
},
{
anchors = (
{
name = bottom;
pos = (201,0);
},
{
name = cross;
pos = (242,250);
},
{
name = lfthook;
pos = (-7,0);
},
{
name = top;
pos = (797,1490);
}
);
background = {
shapes = (
{
pos = (1,0);
ref = E;
}
);
};
layerId = m010;
metricRight = "=T";
name = ital_gen;
shapes = (
{
closed = 1;
nodes = (
(409,0,l),
(498,536,l),
(1161,536,l),
(1217,874,l),
(554,874,l),
(597,1138,l),
(1300,1138,l),
(1359,1490,l),
(240,1490,l),
(-7,0,l)
);
}
);
width = 1240;
},
{
anchors = (
{
name = bottom;
pos = (104,0);
},
{
name = cross;
pos = (172,410);
},
{
name = lfthook;
pos = (81,0);
},
{
name = top;
pos = (760,1490);
}
);
background = {
shapes = (
{
pos = (1,0);
ref = E;
}
);
};
layerId = m012;
metricRight = "=T";
name = ital_gen;
shapes = (
{
closed = 1;
nodes = (
(127,0,l),
(249,738,l),
(971,738,l),
(979,784,l),
(257,784,l),
(366,1444,l),
(1182,1444,l),
(1190,1490,l),
(328,1490,l),
(81,0,l)
);
}
);
width = 1091;
}
);
metricLeft = H;
unicode = 70;
userData = {
"interface.width-adjustments" = (
-16
);
};
}
{
glyphname = H;
kernLeft = B;
kernRight = H;
layers = (
{
anchors = (
{
name = bottom;
pos = (667,0);
},
{
name = cedilla;
pos = (184,0);
},
{
name = cyrtic;
pos = (1249,0);
},
{
name = lfthook;
pos = (1059,0);
},
{
name = right;
pos = (1249,0);
},
{
name = tonos;
pos = (334,1490);
},
{
name = top;
pos = (914,1490);
}
);
guides = (
{
angle = 80.6;
pos = (756,1400);
}
);
layerId = "11F4534A-B963-4AB5-820F-DAF9A20CD933";
name = ital_gen;
shapes = (
{
closed = 1;
nodes = (
(277,0,l),
(389,678,l),
(1172,678,l),
(1059,0,l),
(1249,0,l),
(1496,1490,l),
(1306,1490,l),
(1199,846,l),
(417,846,l),
(524,1490,l),
(334,1490,l),
(87,0,l)
);
}
);
width = 1522;
},
{
anchors = (
{
name = bottom;
pos = (675,0);
},
{
name = cedilla;
pos = (206,0);
},
{
name = cyrtic;
pos = (1347,0);
},
{
name = lfthook;
pos = (943,0);
},
{
name = right;
pos = (1347,0);
},
{
name = tonos;
pos = (250,1490);
},
{
name = top;
pos = (922,1490);
}
);
layerId = "D0EC06BF-13F9-4C88-A6F5-B8203AF6C77E";
name = ital_gen;
shapes = (
{
closed = 1;
nodes = (
(407,0,l),
(505.998,598,l),
(1041.998,598,l),
(943,0,l),
(1347,0,l),
(1594,1490,l),
(1190,1490,l),
(1096,924,l),
(560,924,l),
(654,1490,l),
(250,1490,l),
(3,0,l)
);
}
);
width = 1536;
},
{
anchors = (
{
name = bottom;
pos = (661,0);
},
{
name = cedilla;
pos = (164,0);
},
{
name = cyrtic;
pos = (1181,0);
},
{
name = lfthook;
pos = (1135,0);
},
{
name = right;
pos = (1181,0);
},
{
name = tonos;
pos = (386,1490);
},
{
name = top;
pos = (908,1490);
}
);
layerId = "200BE2C5-40F6-4CF4-AF4F-A33C0CC0964F";
name = ital_gen;
shapes = (
{
closed = 1;
nodes = (
(187,0,l),
(309,738,l),
(1257,738,l),
(1135,0,l),
(1181,0,l),
(1428,1490,l),
(1382,1490,l),
(1265,784,l),
(317,784,l),
(434,1490,l),
(386,1490,l),
(139,0,l)
);
}
);
width = 1506;
},
{
anchors = (
{
name = bottom;
pos = (638,0);
},
{
name = cedilla;
pos = (154,0);
},
{
name = cyrtic;
pos = (1215,0);
},
{
name = lfthook;
pos = (1035,0);
},
{
name = right;
pos = (1217,0);
},
{
name = tonos;
pos = (308,1490);
},
{
name = top;
pos = (885,1490);
}
);
guides = (
{
orientation = center;
angle = 80.6;
pos = (-6639,56);
}
);
layerId = m008;
name = ital_gen;
shapes = (
{
closed = 1;
nodes = (
(241,0,l),
(354,683,l),
(1148,683,l),
(1035,0,l),
(1215,0,l),
(1462,1490,l),
(1282,1490,l),
(1175,843,l),
(381,843,l),
(488,1490,l),
(308,1490,l),
(61,0,l)
);
}
);
width = 1451;
},
{
anchors = (
{
name = bottom;
pos = (657,0);
},
{
name = cedilla;
pos = (201,0);
},
{
name = cyrtic;
pos = (1321,0);
},
{
name = lfthook;
pos = (905,0);
},
{
name = right;
pos = (1321,0);
},
{
name = tonos;
pos = (240,1490);
},
{
name = top;
pos = (904,1490);
}
);
layerId = m010;
name = ital_gen;
shapes = (
{
closed = 1;
nodes = (
(409,0,l),
(505,581,l),
(1001,581,l),
(905,0,l),
(1321,0,l),
(1568,1490,l),
(1152,1490,l),
(1059,933,l),
(563,933,l),
(656,1490,l),
(240,1490,l),
(-7,0,l)
);
}
);
width = 1489;
},
{
anchors = (
{
name = bottom;
pos = (603,0);
},
{
name = cedilla;
pos = (106,0);
},
{
name = cyrtic;
pos = (1123,0);
},
{
name = lfthook;
pos = (1077,0);
},
{
name = right;
pos = (1123,0);
},
{
name = tonos;
pos = (328,1490);
},
{
name = top;
pos = (850,1490);
}
);
layerId = m012;
name = ital_gen;
shapes = (
{
closed = 1;
nodes = (
(129,0,l),
(251,738,l),
(1199,738,l),
(1077,0,l),
(1123,0,l),
(1370,1490,l),
(1324,1490,l),
(1207,784,l),
(259,784,l),
(376,1490,l),
(328,1490,l),
(81,0,l)
);
}
);
width = 1379;
}
);
unicode = 72;
userData = {
"interface.width-adjustments" = (
-16
);
};
}
{
glyphname = J;
kernLeft = J;
kernRight = J;
layers = (
{
anchors = (
{
name = cross;
pos = (973,884);
},
{
name = top;
pos = (1074,1490);
}
);
layerId = "200BE2C5-40F6-4CF4-AF4F-A33C0CC0964F";
name = ital_gen;
shapes = (
{
closed = 1;
nodes = (
(705,-20,o),
(875,140,o),
(917,396,cs),
(1098,1490,l),
(1051,1490,l),
(870,396,ls),
(832,167,o),
(678,26,o),
(462,26,cs),
(275,26,o),
(172,132,o),
(172,310,cs),
(172,337,o),
(174,366,o),
(190,464,c),
(144,464,l),
(128,365,o),
(126,335,o),
(126,307,cs),
(126,103,o),
(252,-20,o),
(464,-20,cs)
);
}
);
width = 1144;
},
{
anchors = (
{
name = cross;
pos = (948,884);
},
{
name = top;
pos = (1049,1490);
}
);
layerId = "11F4534A-B963-4AB5-820F-DAF9A20CD933";
name = ital_gen;
shapes = (
{
closed = 1;
nodes = (
(723,-20,o),
(920,143,o),
(967,426,cs),
(1144,1490,l),
(954,1490,l),
(777,426,ls),
(746,240,o),
(626,147,o),
(477,147,cs),
(344,147,o),
(262,221,o),
(262,357,cs),
(262,379,o),
(264,402,o),
(281,506,c),
(91,506,l),
(73,393,o),
(70,362,o),
(70,332,cs),
(70,106,o),
(225,-20,o),
(458,-20,cs)
);
}
);
width = 1169;
},
{
anchors = (
{
name = cross;
pos = (924,884);
},
{
name = top;
pos = (1025,1490);
}
);
layerId = m008;
name = ital_gen;
shapes = (
{
closed = 1;
nodes = (
(700,-20,o),
(891,139,o),
(938,424,cs),
(1115,1490,l),
(935,1490,l),
(758,424,ls),
(727,239,o),
(602,140,o),
(446,140,cs),
(311,140,o),
(232,214,o),
(232,353,cs),
(232,375,o),
(234,399,o),
(251,504,c),
(71,504,l),
(53,393,o),
(50,363,o),
(50,335,cs),
(50,106,o),
(211,-20,o),
(441,-20,cs)
);
}
);
width = 1096;
},
{
anchors = (
{
name = cross;
pos = (974,884);
},
{
name = top;
pos = (1079,1490);
}
);
layerId = "D0EC06BF-13F9-4C88-A6F5-B8203AF6C77E";
name = ital_gen;
shapes = (
{
closed = 1;
nodes = (
(852,-20,o),
(1057,155,o),
(1109,468,cs),
(1279,1490,l),
(881,1490,l),
(710,460,ls),
(691,348,o),
(632,294,o),
(543,294,cs),
(466,294,o),
(424,332,o),
(424,411,cs),
(424,425,o),
(425,441,o),
(445,559,c),
(41,559,l),
(19,430,o),
(16,396,o),
(16,364,cs),
(16,116,o),
(196,-20,o),
(507,-20,cs)
);
}
);
width = 1221;
},
{
anchors = (
{
name = bottom;
pos = (488,-12);
},
{
name = bottom_dd;
pos = (1096,-408);
},
{
name = cross;
pos = (1032,884);
},
{
name = top;
pos = (1140,1570);
},
{
name = top0315;
pos = (1428,1600);
},
{
name = top_dd;
pos = (1428,1600);
}
);
associatedMasterId = "D0EC06BF-13F9-4C88-A6F5-B8203AF6C77E";
layerId = "AD268349-6365-406D-9447-8D02F922AB8D";
name = "Sep 14 18, 09:53";
shapes = (
{
closed = 1;
nodes = (
(753,384,o),
(695,294,o),
(594,294,cs),
(509,294,o),
(471,349,o),
(486,466,c),
(82,466,l),
(23,122,o),
(236,-20,o),
(520,-20,cs),
(852,-20,o),
(1117,177,o),
(1166,468,c),
(1336,1490,l),
(936,1490,l),
(768,468,l)
);
}
);
width = 1274;
},
{
anchors = (
{
name = bottom;
pos = (488,-12);
},
{
name = bottom_dd;
pos = (1096,-408);
},
{
name = cross;
pos = (1032,884);
},
{
name = top;
pos = (1140,1570);
},
{
name = top0315;
pos = (1428,1600);
},
{
name = top_dd;
pos = (1428,1600);
}
);
associatedMasterId = m010;
layerId = "A924AC49-D08D-4BCF-BF04-5A801DC68FFD";
name = "Sep 14 18, 09:53";
shapes = (
{
closed = 1;
nodes = (
(753,384,o),
(695,294,o),
(594,294,cs),
(509,294,o),
(471,349,o),
(486,466,c),
(82,466,l),
(23,122,o),
(236,-20,o),
(520,-20,cs),
(852,-20,o),
(1117,177,o),
(1166,468,c),
(1336,1490,l),
(936,1490,l),
(768,468,l)
);
}
);
width = 1274;
},
{
anchors = (
{
name = cross;
pos = (928,884);
},
{
name = top;
pos = (1029,1490);
}
);
layerId = m012;
name = ital_gen;
shapes = (
{
closed = 1;
nodes = (
(659,-20,o),
(829,139,o),
(872,396,cs),
(1053,1490,l),
(1006,1490,l),
(825,396,ls),
(787,167,o),
(634,26,o),
(418,26,cs),
(229,26,o),
(127,132,o),
(127,310,cs),
(127,337,o),
(129,366,o),
(145,464,c),
(99,464,l),
(83,365,o),
(81,335,o),
(81,307,cs),
(81,103,o),
(207,-20,o),
(419,-20,cs)
);
}
);
width = 1034;
},
{
anchors = (
{
name = cross;
pos = (970,884);
},
{
name = top;
pos = (1070,1490);
}
);
associatedMasterId = m010;
background = {
anchors = (
{
name = cross;
pos = (970,884);
},
{
name = top;
pos = (1070,1490);
}
);
shapes = (
{
closed = 1;
nodes = (
(843,-24,o),
(1054,137,o),
(1106,449,cs),
(1278,1490,l),
(862,1490,l),
(696,483,ls),
(680,387,o),
(609,320,o),
(511,320,cs),
(433,320,o),
(401,361,o),
(417,457,cs),
(440,592,l),
(56,592,l),
(38,487,ls),
(-15,167,o),
(153,-24,o),
(502,-24,cs)
);
}
);
};
layerId = "8728B817-E926-40C0-9BCD-5EDDC0D5FE00";
name = "May 6, 23, 16:34";
shapes = (
{
closed = 1;
nodes = (
(854,-24,o),
(1056,150,o),
(1108,462,cs),
(1278,1490,l),
(862,1490,l),
(693,470,ls),
(677,374,o),
(621,320,o),
(533,320,cs),
(445,320,o),
(403,374,o),
(419,470,cs),
(439,592,l),
(56,592,l),
(36,474,ls),
(-18,154,o),
(164,-24,o),
(503,-24,cs)
);
}
);
width = 1200;
},
{
anchors = (
{
name = cross;
pos = (970,884);
},
{
name = top;
pos = (1071,1490);
}
);
layerId = m010;
name = "Display Black Italic";
shapes = (
{
closed = 1;
nodes = (
(849,-24,o),
(1056,150,o),
(1108,462,cs),
(1279,1490,l),
(863,1490,l),
(694,470,ls),
(678,374,o),
(620,320,o),
(532,320,cs),
(457,320,o),
(417,360,o),
(417,431,cs),
(417,443,o),
(418,456,o),
(440,592,c),
(56,592,l),
(30,436,o),
(26,400,o),
(26,366,cs),
(26,114,o),
(199,-24,o),
(498,-24,cs)
);
}
);
width = 1200;
}
);
metricRight = U;
unicode = 74;
}
{
glyphname = U;
kernLeft = U;
kernRight = J;
layers = (
{
anchors = (
{
name = bottom;
pos = (669,0);
},
{
name = ogonek;
pos = (1334,501);
},
{
name = right;
pos = (755,0);
},
{
name = rtophorn;
pos = (1307,1490);
},
{
name = top;
pos = (916,1490);
}
);
layerId = "11F4534A-B963-4AB5-820F-DAF9A20CD933";
name = ital_gen;
shapes = (
{
closed = 1;
nodes = (
(1022,-24,o),
(1283,192,o),
(1334,501,cs),
(1497,1490,l),
(1307,1490,l),
(1148,529,ls),
(1112,311,o),
(930,152,o),
(684,152,cs),
(449,152,o),
(327,298,o),
(363,516,cs),
(524,1490,l),
(334,1490,l),
(172,514,ls),
(121,207,o),
(318,-24,o),
(677,-24,cs)
);
}
);
width = 1523;
},
{
anchors = (
{
name = bottom;
pos = (645,0);
},
{
name = ogonek;
pos = (1376,523);
},
{
name = right;
pos = (773,0);
},
{
name = rtophorn;
pos = (1132,1490);
},
{
name = top;
pos = (892,1490);
}
);
layerId = "D0EC06BF-13F9-4C88-A6F5-B8203AF6C77E";
name = ital_gen;
shapes = (
{
closed = 1;
nodes = (
(1036,-18,o),
(1320,182,o),
(1376,523,cs),
(1536,1490,l),
(1132,1490,l),
(982,583,ls),
(959,444,o),
(830,332,o),
(680,332,cs),
(552,332,o),
(477,418,o),
(500,557,cs),
(654,1490,l),
(250,1490,l),
(94,549,ls),
(37,208,o),
(268,-18,o),
(663,-18,cs)
);
}
);
width = 1478;
},
{
anchors = (
{
name = bottom;
pos = (643,0);
},
{
name = ogonek;
pos = (1263,504);
},
{
name = right;
pos = (705,0);
},
{
name = rtophorn;
pos = (1378,1490);
},
{
name = top;
pos = (890,1490);
}
);
layerId = "200BE2C5-40F6-4CF4-AF4F-A33C0CC0964F";
name = ital_gen;
shapes = (
{
closed = 1;
nodes = (
(947,-22,o),
(1212,199,o),
(1263,502,cs),
(1426,1490,l),
(1380,1490,l),
(1217,506,ls),
(1171,230,o),
(927,24,o),
(644,24,cs),
(365,24,o),
(191,226,o),
(237,502,cs),
(400,1490,l),
(354,1490,l),
(191,506,ls),
(141,204,o),
(336,-22,o),
(643,-22,cs)
);
}
);
width = 1472;
},
{
anchors = (
{
name = bottom;
pos = (633,0);
},
{
name = ogonek;
pos = (1295,500);
},
{
name = right;
pos = (717,0);
},
{
name = rtophorn;
pos = (1279,1490);
},
{
name = top;
pos = (879,1490);
}
);
background = {
shapes = (
{
closed = 1;
nodes = (
(1120,520,ls),
(1120,302,o),
(968,144,o),
(720,144,cs),
(471,144,o),
(320,302,o),
(320,520,cs),
(320,1490,l),
(140,1490,l),
(140,506,ls),
(140,200,o),
(369,-24,o),
(720,-24,cs),
(1070,-24,o),
(1300,200,o),
(1300,506,cs),
(1300,1490,l),
(1120,1490,l)
);
}
);
};
layerId = m008;
name = ital_gen;
shapes = (
{
closed = 1;
nodes = (
(985,-24,o),
(1244,194,o),
(1295,500,cs),
(1459,1490,l),
(1279,1490,l),
(1120,526,ls),
(1084,308,o),
(900,144,o),
(646,144,cs),
(402,144,o),
(282,296,o),
(318,514,cs),
(479,1490,l),
(299,1490,l),
(137,512,ls),
(86,206,o),
(283,-24,o),
(639,-24,cs)
);
}
);
width = 1440;
},
{
anchors = (
{
name = bottom;
pos = (635,0);
},
{
name = ogonek;
pos = (1362,517);
},
{
name = right;
pos = (763,0);
},
{
name = rtophorn;
pos = (1119,1490);
},
{
name = top;
pos = (881,1490);
}
);
layerId = m010;
name = ital_gen;
shapes = (
{
closed = 1;
nodes = (
(1030,-24,o),
(1306,181,o),
(1362,517,cs),
(1523,1490,l),
(1119,1490,l),
(968,577,ls),
(945,438,o),
(818,326,o),
(668,326,cs),
(540,326,o),
(465,413,o),
(488,551,cs),
(643,1490,l),
(239,1490,l),
(82,543,ls),
(26,206,o),
(251,-24,o),
(651,-24,cs)
);
}
);
width = 1444;
},
{
anchors = (
{
name = bottom;
pos = (589,0);
},
{
name = ogonek;
pos = (1209,508);
},
{
name = right;
pos = (651,0);
},
{
name = rtophorn;
pos = (1323,1490);
},
{
name = top;
pos = (835,1490);
}
);
layerId = m012;
name = ital_gen;
shapes = (
{
closed = 1;
nodes = (
(893,-16,o),
(1159,205,o),
(1209,508,cs),
(1371,1490,l),
(1325,1490,l),
(1163,512,ls),
(1117,236,o),
(873,30,o),
(590,30,cs),
(311,30,o),
(137,232,o),
(183,508,cs),
(345,1490,l),
(299,1490,l),
(137,512,ls),
(87,210,o),
(282,-16,o),
(589,-16,cs)
);
}
);
width = 1352;
}
);
metricRight = "=|U";
unicode = 85;
userData = {
com.typemytype.robofont.guideline.magnetic.icXM2D4lH7 = 5;
"interface.width-adjustments" = (
-16
);
};
}
{
glyphname = V;
kernLeft = V;
kernRight = V;
layers = (
{
anchors = (
{
name = bottom;
pos = (613,0);
},
{
name = top;
pos = (860,1490);
}
);
layerId = "11F4534A-B963-4AB5-820F-DAF9A20CD933";
name = ital_gen;
shapes = (
{
closed = 1;
nodes = (
(726,0,l),
(1515,1490,l),
(1313,1490,l),
(859,606,ls),
(803,497,o),
(723,333,o),
(615,90,c),
(651,90,l),
(620,337,o),
(598,486,o),
(575,606,cs),
(406,1490,l),
(206,1490,l),
(507,0,l)
);
}
);
width = 1413;
},
{
anchors = (
{
name = bottom;
pos = (721,0);
},
{
name = top;
pos = (968,1490);
}
);
guides = (
{
orientation = center;
angle = 80.6;
pos = (1040,1048);
}
);
layerId = "D0EC06BF-13F9-4C88-A6F5-B8203AF6C77E";
name = ital_gen;
shapes = (
{
closed = 1;
nodes = (
(1005,0,l),
(1736,1490,l),
(1284,1490,l),
(1023,912,ls),
(910,661,o),
(811,402,o),
(710,135,c),
(800,135,l),
(786,402,o),
(769,661,o),
(735,912,cs),
(658,1490,l),
(200,1490,l),
(453,0,l)
);
}
);
width = 1628;
},
{
anchors = (
{
name = bottom;
pos = (562,0);
},
{
name = top;
pos = (809,1490);
}
);
layerId = "200BE2C5-40F6-4CF4-AF4F-A33C0CC0964F";
name = ital_gen;
shapes = (
{
closed = 1;
nodes = (
(594,0,l),
(1398,1490,l),
(1346,1490,l),
(725,336,ls),
(667,229,o),
(610,123,o),
(554,16,c),
(572,16,l),
(550,123,o),
(529,229,o),
(507,336,cs),
(266,1490,l),
(220,1490,l),
(531,0,l)
);
}
);
width = 1310;
},
{
anchors = (
{
name = bottom;
pos = (581,0);
},
{
name = top;
pos = (828,1490);
}
);
layerId = m008;
name = ital_gen;
shapes = (
{
closed = 1;
nodes = (
(686,0,l),
(1477,1490,l),
(1279,1490,l),
(816,592,ls),
(766,494,o),
(687,336,o),
(567,88,c),
(617,88,l),
(577,336,o),
(551,494,o),
(532,592,cs),
(359,1490,l),
(179,1490,l),
(482,0,l)
);
}
);
width = 1338;
},
{
anchors = (
{
name = bottom;
pos = (680,0);
},
{
name = top;
pos = (927,1490);
}
);
layerId = m010;
name = ital_gen;
shapes = (
{
closed = 1;
nodes = (
(964,0,l),
(1695,1490,l),
(1231,1490,l),
(969,912,ls),
(857,661,o),
(751,410,o),
(645,159,c),
(767,159,l),
(742,410,o),
(716,661,o),
(682,912,cs),
(605,1490,l),
(159,1490,l),
(412,0,l)
);
}
);
width = 1536;
},
{
anchors = (
{
name = bottom;
pos = (521,0);
},
{
name = top;
pos = (768,1490);
}
);
layerId = m012;
name = ital_gen;
shapes = (
{
closed = 1;
nodes = (
(553,0,l),
(1357,1490,l),
(1305,1490,l),
(684,336,ls),
(626,229,o),
(569,123,o),
(513,16,c),
(531,16,l),
(509,123,o),
(488,229,o),
(466,336,cs),
(225,1490,l),
(179,1490,l),
(490,0,l)
);
}
);
width = 1218;
}
);
metricLeft = A;
metricRight = A;
unicode = 86;
userData = {
com.typemytype.robofont.guideline.magnetic.IJvllllLzF = 5;
com.typemytype.robofont.guideline.magnetic.KeOP4W9VuQ = 5;
com.typemytype.robofont.guideline.magnetic.yHrbtxZ5FX = 5;
"interface.width-adjustments" = (
-16
);
};
}
{
glyphname = Z;
kernLeft = Z;
kernRight = Z;
layers = (
{
anchors = (
{
name = bottom;
pos = (547,0);
},
{
name = bottomr;
pos = (1074,0);
},
{
name = cross;
pos = (675,745);
},
{
name = top;
pos = (800,1490);
}
);
guides = (
{
angle = 80.6;
pos = (1593,248);
},
{
angle = 80.6;
pos = (169,1280);
},
{
angle = 80.6;
pos = (873,2156);
}
);
layerId = "11F4534A-B963-4AB5-820F-DAF9A20CD933";
name = ital_gen;
shapes = (
{
closed = 1;
nodes = (
(1074,0,l),
(1102,167,l),
(295,167,l),
(1291,1354,l),
(1314,1490,l),
(277,1490,l),
(249,1323,l),
(1056,1323,l),
(61,134,l),
(38,0,l)
);
}
);
width = 1290;
},
{
anchors = (
{
name = bottom;
pos = (620,0);
},
{
name = bottomr;
pos = (1226,0);
},
{
name = cross;
pos = (741,745);
},
{
name = top;
pos = (871,1490);
}
);
layerId = "D0EC06BF-13F9-4C88-A6F5-B8203AF6C77E";
name = ital_gen;
shapes = (
{
closed = 1;
nodes = (
(1226,0,l),
(1280,326,l),
(578,326,l),
(1438,1266,l),
(1475,1490,l),
(259,1490,l),
(205,1164,l),
(907,1164,l),
(47,224,l),
(10,0,l)
);
}
);
width = 1423;
},
{
anchors = (
{
name = bottom;
pos = (527,0);
},
{
name = bottomr;
pos = (997,0);
},
{
name = cross;
pos = (650,744);
},
{
name = top;
pos = (774,1490);
}
);
guides = (
{
angle = 80.6;
pos = (212,100);
},
{
angle = 80.6;
pos = (1492,100);
}
);
layerId = "200BE2C5-40F6-4CF4-AF4F-A33C0CC0964F";
name = ital_gen;
shapes = (
{
closed = 1;
nodes = (
(997,0,l),
(1005,46,l),
(127,46,l),
(1232,1442,l),
(1240,1490,l),
(314,1490,l),
(306,1442,l),
(1174,1442,l),
(69,46,l),
(61,0,l)
);
}
);
width = 1240;
},
{
anchors = (
{
name = bottom;
pos = (521,0);
},
{
name = bottomr;
pos = (1039,0);
},
{
name = cross;
pos = (644,745);
},
{
name = top;
pos = (768,1490);
}
);
layerId = m008;
name = ital_gen;
shapes = (
{
closed = 1;
nodes = (
(1039,0,l),
(1065,160,l),
(261,160,l),
(1256,1358,l),
(1278,1490,l),
(250,1490,l),
(223,1330,l),
(1027,1330,l),
(33,130,l),
(11,0,l)
);
}
);
width = 1216;
},
{
anchors = (
{
name = bottom;
pos = (609,0);
},
{
name = bottomr;
pos = (1215,0);
},
{
name = cross;
pos = (731,745);
},
{
name = top;
pos = (860,1490);
}
);
layerId = m010;
name = ital_gen;
shapes = (
{
closed = 1;
nodes = (
(1215,0,l),
(1269,326,l),
(567,326,l),
(1427,1266,l),
(1464,1490,l),
(248,1490,l),
(194,1164,l),
(896,1164,l),
(36,224,l),
(-1,0,l)
);
}
);
width = 1391;
},
{
anchors = (
{
name = bottom;
pos = (469,0);
},
{
name = bottomr;
pos = (939,0);
},
{
name = cross;
pos = (592,744);
},
{
name = top;
pos = (716,1490);
}
);
guides = (
{
angle = 80.6;
pos = (1365,100);
}
);
layerId = m012;
name = ital_gen;
shapes = (
{
closed = 1;
nodes = (
(939,0,l),
(947,46,l),
(69,46,l),
(1174,1442,l),
(1182,1490,l),
(256,1490,l),
(248,1442,l),
(1116,1442,l),
(11,46,l),
(3,0,l)
);
}
);
width = 1113;
}
);
unicode = 90;
userData = {
com.typemytype.robofont.guideline.magnetic.7L9fK9Z9Br = 5;
com.typemytype.robofont.guideline.magnetic.DPCAFAyemJ = 5;
com.typemytype.robofont.guideline.magnetic.VxRM18zW9m = 5;
"interface.width-adjustments" = (
-16
);
};
}
{
glyphname = bracketleft;
kernLeft = parenleft;
kernRight = parenleft;
layers = (
{
anchors = (
{
name = cross;
pos = (327,651);
}
);
layerId = "11F4534A-B963-4AB5-820F-DAF9A20CD933";
shapes = (
{
closed = 1;
nodes = (
(485,-279,l),
(510,-126,l),
(284,-126,l),
(542,1428,l),
(768,1428,l),
(793,1581,l),
(395,1581,l),
(87,-279,l)
);
}
);
width = 747;
},
{
anchors = (
{
name = cross;
pos = (354,651);
}
);
layerId = "D0EC06BF-13F9-4C88-A6F5-B8203AF6C77E";
shapes = (
{
closed = 1;
nodes = (
(571,-279,l),
(620,13,l),
(444,13,l),
(655,1289,l),
(831,1289,l),
(879,1581,l),
(313,1581,l),
(5,-279,l)
);
}
);
width = 794;
},
{
anchors = (
{
name = cross;
pos = (294,651);
}
);
layerId = "200BE2C5-40F6-4CF4-AF4F-A33C0CC0964F";
shapes = (
{
closed = 1;
nodes = (
(349,-280,l),
(357,-234,l),
(171,-234,l),
(464,1536,l),
(650,1536,l),
(657,1582,l),
(425,1582,l),
(117,-280,l)
);
}
);
width = 646;
},
{
anchors = (
{
name = cross;
pos = (261.879,636);
}
);
background = {
shapes = (
{
ref = parenleft;
}
);
};
guides = (
{
angle = -9.4;
name = "Mid center";
pos = (0,636);
}
);
layerId = m008;
name = ital_gen;
shapes = (
{
closed = 1;
nodes = (
(396.919,-294,l),
(421.089,-148,l),
(217.089,-148,l),
(476.67,1420,l),
(680.67,1420,l),
(704.84,1566,l),
(330.84,1566,l),
(22.919,-294,l)
);
}
);
width = 612;
},
{
anchors = (
{
name = cross;
pos = (325.879,636);
}
);
background = {
shapes = (
{
ref = parenleft;
}
);
};
guides = (
{
angle = -9.4;
name = "Mid center";
pos = (0,636);
}
);
layerId = m010;
name = ital_gen;
shapes = (
{
closed = 1;
nodes = (
(539.919,-294,l),
(590.246,10,l),
(422.246,10,l),
(629.513,1262,l),
(797.513,1262,l),
(847.84,1566,l),
(279.84,1566,l),
(-28.081,-294,l)
);
}
);
width = 736;
},
{
anchors = (
{
name = cross;
pos = (232.879,636);
}
);
background = {
shapes = (
{
ref = parenleft;
}
);
};
guides = (
{
angle = -9.4;
pos = (-76,2144);
},
{
angle = -9.4;
name = "Mid center";
pos = (0,636);
}
);
layerId = m012;
name = ital_gen;
shapes = (
{
closed = 1;
nodes = (
(287.753,-295,l),
(295.368,-249,l),
(109.368,-249,l),
(402.39,1521,l),
(588.39,1521,l),
(596.005,1567,l),
(364.005,1567,l),
(55.753,-295,l)
);
}
);
width = 518;
}
);
metricWidth = parenleft;
unicode = 91;
}
{
glyphname = underscore;
layers = (
{
anchors = (
{
name = _bottom;
pos = (400,158);
}
);
layerId = "11F4534A-B963-4AB5-820F-DAF9A20CD933";
name = ital_gen;
shapes = (
{
closed = 1;
nodes = (
(-93,0,l),
(-120,-166,l),
(814,-166,l),
(841,0,l)
);
}
);
width = 934;
},
{
anchors = (
{
name = _bottom;
pos = (438,155);
}
);
guides = (
{
orientation = center;
angle = 80.6;
pos = (880,132);
}
);
layerId = "D0EC06BF-13F9-4C88-A6F5-B8203AF6C77E";
name = ital_gen;
shapes = (
{
closed = 1;
nodes = (
(-93,0,l),
(-140,-286,l),
(870,-286,l),
(917,0,l)
);
}
);
width = 1010;
},
{
anchors = (
{
name = _bottom;
pos = (390,243);
}
);
layerId = "200BE2C5-40F6-4CF4-AF4F-A33C0CC0964F";
name = ital_gen;
shapes = (
{
closed = 1;
nodes = (
(-92,0,l),
(-100,-46,l),
(784,-46,l),
(792,0,l)
);
}
);
width = 885;
},
{
anchors = (
{
name = _bottom;
pos = (418,242);
}
);
layerId = m008;
name = ital_gen;
shapes = (
{
closed = 1;
nodes = (
(-87,0,l),
(-113,-160,l),
(817,-160,l),
(843,0,l)
);
}
);
width = 931;
},
{
anchors = (
{
name = _bottom;
pos = (441,137);
}
);
guides = (
{
orientation = center;
angle = 80.6;
pos = (-2662,132);
}
);
layerId = m010;
name = ital_gen;
shapes = (
{
closed = 1;
nodes = (
(-87,0,l),
(-134,-286,l),
(876,-286,l),
(923,0,l)
);
}
);
width = 1011;
},
{
anchors = (
{
name = _bottom;
pos = (405,299);
}
);
layerId = m012;
name = ital_gen;
shapes = (
{
closed = 1;
nodes = (
(-87,0,l),
(-95,-46,l),
(789,-46,l),
(797,0,l)
);
}
);
width = 884;
}
);
metricLeft = "=0";
metricRight = "=0";
unicode = 95;
}
{
glyphname = d;
kernLeft = o;
kernRight = H;
layers = (
{
anchors = (
{
name = bottom;
pos = (494,0);
},
{
name = bottomr;
pos = (1004,0);
},
{
name = cross;
pos = (1045,1304);
},
{
name = raccent;
pos = (1394,1490);
},
{
name = top;
pos = (705,1304);
},
{
name = topbar;
pos = (1251,1490);
}
);
layerId = "11F4534A-B963-4AB5-820F-DAF9A20CD933";
shapes = (
{
closed = 1;
nodes = (
(700,-24,o),
(792,103,o),
(840,173,c),
(859,173,l),
(829,0,l),
(1004,0,l),
(1251,1490,l),
(1070,1490,l),
(978,934,l),
(966,934,l),
(937,996,o),
(885,1132,o),
(663,1132,cs),
(306,1132,o),
(94,777,o),
(94,425,cs),
(94,147,o),
(248,-24,o),
(492,-24,cs)
);
},
{
closed = 1;
nodes = (
(355,137,o),
(276,261,o),
(276,435,cs),
(276,688,o),
(418,971,o),
(684,971,cs),
(851,971,o),
(931,861,o),
(931,686,cs),
(931,432,o),
(792,137,o),
(524,137,cs)
);
}
);
width = 1255;
},
{
anchors = (
{
name = bottom;
pos = (591,0);
},
{
name = bottomr;
pos = (1127,0);
},
{
name = cross;
pos = (1061,1304);
},
{
name = raccent;
pos = (1492,1490);
},
{
name = top;
pos = (607,1304);
},
{
name = topbar;
pos = (1374,1490);
}
);
layerId = "D0EC06BF-13F9-4C88-A6F5-B8203AF6C77E";
shapes = (
{
closed = 1;
nodes = (
(574,-14,o),
(685,57,o),
(750,184,c),
(763,184,l),
(729,0,l),
(1127,0,l),
(1374,1490,l),
(972,1490,l),
(876,910,l),
(866,910,l),
(842,1024,o),
(749,1132,o),
(572,1132,cs),
(233,1132,o),
(52,765,o),
(52,426,cs),
(52,132,o),
(214,-14,o),
(428,-14,cs)
);
},
{
closed = 1;
nodes = (
(505,294,o),
(464,350,o),
(464,450,cs),
(464,607,o),
(546,824,o),
(714,824,cs),
(795,824,o),
(839,766,o),
(839,663,cs),
(839,504,o),
(751,294,o),
(586,294,cs)
);
}
);
width = 1322;
},
{
anchors = (
{
name = bottom;
pos = (467,0);
},
{
name = bottomr;
pos = (899,0);
},
{
name = cross;
pos = (1069,1304);
},
{
name = raccent;
pos = (1276,1490);
},
{
name = top;
pos = (683,1304);
},
{
name = topbar;
pos = (1146,1490);
}
);
layerId = "200BE2C5-40F6-4CF4-AF4F-A33C0CC0964F";
shapes = (
{
closed = 1;
nodes = (
(645,-24,o),
(804,94,o),
(894,280,c),
(900,280,l),
(853,0,l),
(899,0,l),
(1146,1490,l),
(1100,1490,l),
(991,832,l),
(984,832,l),
(958,1018,o),
(832,1134,o),
(652,1134,cs),
(317,1134,o),
(117,742,o),
(117,412,cs),
(117,156,o),
(243,-24,o),
(467,-24,cs)
);
},
{
closed = 1;
nodes = (
(271,22,o),
(163,184,o),
(163,414,cs),
(163,725,o),
(349,1088,o),
(651,1088,cs),
(848,1088,o),
(958,926,o),
(958,696,cs),
(958,391,o),
(775,22,o),
(468,22,cs)
);
}
);
width = 1190;
},
{
anchors = (
{
name = bottom;
pos = (446,0);
},
{
name = bottomr;
pos = (944,0);
},
{
name = cross;
pos = (983,1262);
},
{
name = raccent;
pos = (1334,1490);
},
{
name = top;
pos = (635,1262);
},
{
name = topbar;
pos = (1190,1490);
}
);
layerId = m008;
name = ital_gen;
shapes = (
{
closed = 1;
nodes = (
(581,-20,o),
(706,31,o),
(802,157,c),
(803,157,l),
(778,0,l),
(944,0,l),
(1190,1490,l),
(1020,1490,l),
(922,895,l),
(921,895,l),
(873,1013,o),
(751,1076,o),
(609,1076,cs),
(269,1076,o),
(62,739,o),
(62,409,cs),
(62,151,o),
(207,-20,o),
(449,-20,cs)
);
},
{
closed = 1;
nodes = (
(328,133,o),
(232,227,o),
(232,410,cs),
(232,665,o),
(376,924,o),
(631,924,cs),
(793,924,o),
(886,815,o),
(886,638,cs),
(886,388,o),
(732,133,o),
(479,133,cs)
);
}
);
width = 1157;
},
{
anchors = (
{
name = bottom;
pos = (572,0);
},
{
name = bottomr;
pos = (1106,0);
},
{
name = cross;
pos = (1019,1262);
},
{
name = raccent;
pos = (1470,1490);
},
{
name = top;
pos = (587,1304);
},
{
name = topbar;
pos = (1352,1490);
}
);
layerId = m010;
name = ital_gen;
shapes = (
{
closed = 1;
nodes = (
(560,-24,o),
(668,26,o),
(734,154,c),
(735,154,l),
(710,0,l),
(1106,0,l),
(1352,1490,l),
(952,1490,l),
(855,899,l),
(854,899,l),
(803,1017,o),
(715,1080,o),
(568,1080,cs),
(238,1080,o),
(38,746,o),
(38,415,cs),
(38,146,o),
(184,-24,o),
(430,-24,cs)
);
},
{
closed = 1;
nodes = (
(479,290,o),
(439,344,o),
(439,436,cs),
(439,584,o),
(522,768,o),
(680,768,cs),
(764,768,o),
(817,710,o),
(817,611,cs),
(817,465,o),
(716,290,o),
(560,290,cs)
);
}
);
width = 1279;
},
{
anchors = (
{
name = bottom;
pos = (444,0);
},
{
name = bottomr;
pos = (898,0);
},
{
name = cross;
pos = (1061,1262);
},
{
name = raccent;
pos = (1252,1490);
},
{
name = top;
pos = (653,1262);
},
{
name = topbar;
pos = (1144,1490);
}
);
layerId = m012;
name = ital_gen;
shapes = (
{
closed = 1;
nodes = (
(643,-16,o),
(825,113,o),
(897,280,c),
(898,280,l),
(852,0,l),
(898,0,l),
(1144,1490,l),
(1098,1490,l),
(979,768,l),
(978,768,l),
(967,937,o),
(821,1072,o),
(618,1072,cs),
(294,1072,o),
(56,752,o),
(56,406,cs),
(56,146,o),
(212,-16,o),
(444,-16,cs)
);
},
{
closed = 1;
nodes = (
(241,30,o),
(102,173,o),
(102,411,cs),
(102,721,o),
(311,1026,o),
(617,1026,cs),
(825,1026,o),
(951,886,o),
(951,654,cs),
(951,342,o),
(760,30,o),
(445,30,cs)
);
}
);
width = 1119;
},
{
anchors = (
{
name = bottom;
pos = (504,0);
},
{
name = bottomr;
pos = (898,0);
},
{
name = cross;
pos = (1071,1304);
},
{
name = raccent;
pos = (1278,1490);
},
{
name = top;
pos = (726,1490);
},
{
name = topbar;
pos = (1146,1490);
}
);
associatedMasterId = "200BE2C5-40F6-4CF4-AF4F-A33C0CC0964F";
layerId = "9D428DA1-446F-48D4-967F-3F7EA575B61A";
name = "May 7, 23, 12:55";
shapes = (
{
closed = 1;
nodes = (
(644,-23,o),
(801,95,o),
(894,280,c),
(898,280,l),
(852,0,l),
(898,0,l),
(1146,1490,l),
(1100,1490,l),
(990,832,l),
(984,832,l),
(957,1018,o),
(834,1135,o),
(656,1134,cs),
(395,1135,o),
(185,884,o),
(130,556,cs),
(76,225,o),
(200,-23,o),
(466,-24,cs)
);
},
{
closed = 1;
nodes = (
(228,23,o),
(127,253,o),
(176,556,cs),
(227,858,o),
(420,1088,o),
(656,1088,cs),
(892,1088,o),
(995,858,o),
(944,556,cs),
(895,253,o),
(703,23,o),
(466,24,cs)
);
}
);
width = 1190;
},
{
anchors = (
{
name = bottom;
pos = (443,0);
},
{
name = bottomr;
pos = (897,0);
},
{
name = cross;
pos = (1060,1262);
},
{
name = raccent;
pos = (1252,1490);
},
{
name = top;
pos = (652,1262);
},
{
name = topbar;
pos = (1144,1490);
}
);
associatedMasterId = m012;
layerId = "F5CE0452-7E60-4D55-9758-097477389392";
name = "May 7, 23, 12:56";
shapes = (
{
closed = 1;
nodes = (
(641,-16,o),
(825,113,o),
(896,280,c),
(897,280,l),
(851,0,l),
(897,0,l),
(1144,1490,l),
(1098,1490,l),
(978,770,l),
(977,770,l),
(966,939,o),
(821,1072,o),
(620,1072,cs),
(358,1072,o),
(121,856,o),
(66,528,cs),
(12,197,o),
(175,-16,o),
(440,-16,cs)
);
},
{
closed = 1;
nodes = (
(203,30,o),
(62,222,o),
(112,528,cs),
(163,834,o),
(384,1026,o),
(621,1026,cs),
(865,1026,o),
(989,834,o),
(938,528,cs),
(888,222,o),
(684,30,o),
(440,30,cs)
);
}
);
width = 1119;
},
{
anchors = (
{
name = bottom;
pos = (520,0);
},
{
name = bottomr;
pos = (1000,0);
},
{
name = cross;
pos = (1046,1304);
},
{
name = raccent;
pos = (1404,1490);
},
{
name = top;
pos = (748,1490);
},
{
name = topbar;
pos = (1246,1490);
}
);
associatedMasterId = "11F4534A-B963-4AB5-820F-DAF9A20CD933";
layerId = "D044B3B3-7D69-4183-848C-3BB7205EF069";
name = "May 7, 23, 12:56";
shapes = (
{
closed = 1;
nodes = (
(699,-23,o),
(794,111,o),
(842,172,c),
(862,172,l),
(834,0,l),
(1000,0,l),
(1246,1490,l),
(1074,1490,l),
(984,940,l),
(968,940,l),
(941,998,o),
(896,1132,o),
(678,1132,cs),
(396,1132,o),
(164,908,o),
(104,556,cs),
(47,201,o),
(204,-23,o),
(484,-24,cs)
);
},
{
closed = 1;
nodes = (
(311,131,o),
(238,320,o),
(278,558,cs),
(316,794,o),
(449,977,o),
(666,978,cs),
(876,977,o),
(965,809,o),
(924,558,cs),
(881,305,o),
(733,131,o),
(526,130,cs)
);
}
);
width = 1251;
},
{
anchors = (
{
name = bottom;
pos = (470,0);
},
{
name = bottomr;
pos = (944,0);
},
{
name = cross;
pos = (981,1262);
},
{
name = raccent;
pos = (1334,1490);
},
{
name = top;
pos = (700,1490);
},
{
name = topbar;
pos = (1190,1490);
}
);
associatedMasterId = m008;
layerId = "19D0064E-236C-40E4-9F99-767FCF3C52DD";
name = "May 7, 23, 12:57";
shapes = (
{
closed = 1;
nodes = (
(575,-20,o),
(706,38,o),
(802,160,c),
(804,160,l),
(778,0,l),
(944,0,l),
(1190,1490,l),
(1020,1490,l),
(923,900,l),
(921,900,l),
(872,1018,o),
(757,1076,o),
(620,1076,cs),
(345,1076,o),
(125,854,o),
(71,528,cs),
(17,203,o),
(163,-20,o),
(438,-20,cs)
);
},
{
closed = 1;
nodes = (
(307,133,o),
(200,269,o),
(243,528,cs),
(286,787,o),
(438,924,o),
(621,924,cs),
(817,924,o),
(915,767,o),
(875,528,cs),
(835,289,o),
(686,133,o),
(490,133,cs)
);
}
);
width = 1157;
},
{
anchors = (
{
name = bottom;
pos = (563,0);
},
{
name = bottomr;
pos = (1127,0);
},
{
name = cross;
pos = (1053,1304);
},
{
name = raccent;
pos = (1491,1490);
},
{
name = top;
pos = (705,1490);
},
{
name = topbar;
pos = (1373,1490);
}
);
associatedMasterId = "D0EC06BF-13F9-4C88-A6F5-B8203AF6C77E";
layerId = "6F1C2C8E-121D-4902-BFC0-917FA9E191CA";
name = "May 7, 23, 12:57";
shapes = (
{
closed = 1;
nodes = (
(563,-15,o),
(684,70,o),
(749,184,c),
(759,184,l),
(729,0,l),
(1127,0,l),
(1373,1490,l),
(973,1490,l),
(877,922,l),
(873,922,l),
(847,1036,o),
(759,1132,o),
(593,1132,cs),
(372,1132,o),
(129,963,o),
(61,558,c),
(-2,172,o),
(167,-15,o),
(407,-14,cs)
);
},
{
closed = 1;
nodes = (
(495,294,o),
(447,393,o),
(475,558,cs),
(502,724,o),
(583,823,o),
(693,824,cs),
(804,823,o),
(854,724,o),
(827,558,c),
(800,396,o),
(716,294,o),
(605,294,cs)
);
}
);
width = 1322;
},
{
anchors = (
{
name = bottom;
pos = (544,0);
},
{
name = bottomr;
pos = (1108,0);
},
{
name = cross;
pos = (1035,1262);
},
{
name = raccent;
pos = (1472,1490);
},
{
name = top;
pos = (676,1490);
},
{
name = topbar;
pos = (1354,1490);
}
);
associatedMasterId = m010;
layerId = "7BCB1E3A-2AD1-4E93-A221-CF39ABECA7CA";
name = "May 7, 23, 12:57";
shapes = (
{
closed = 1;
nodes = (
(550,-24,o),
(664,40,o),
(731,156,c),
(735,156,l),
(710,0,l),
(1108,0,l),
(1354,1490,l),
(952,1490,l),
(859,924,l),
(854,924,l),
(809,1027,o),
(725,1080,o),
(588,1080,cs),
(323,1080,o),
(99,853,o),
(45,530,cs),
(-10,194,o),
(133,-24,o),
(410,-24,cs)
);
},
{
closed = 1;
nodes = (
(472,290,o),
(425,384,o),
(449,530,cs),
(473,675,o),
(551,768,o),
(660,768,cs),
(769,768,o),
(831,675,o),
(807,530,cs),
(783,384,o),
(690,290,o),
(581,290,cs)
);
}
);
width = 1281;
}
);
metricLeft = o;
metricRight = "=|n";
note = "mirror of b";
unicode = 100;
userData = {
"interface.width-adjustments" = (
-16
);
};
}
{
glyphname = e;
kernLeft = o;
kernRight = o;
layers = (
{
anchors = (
{
name = bottom;
pos = (500,0);
},
{
name = cedilla;
pos = (504,0);
},
{
name = ogonek;
pos = (947,198);
},
{
name = top;
pos = (698,1118);
}
);
layerId = "200BE2C5-40F6-4CF4-AF4F-A33C0CC0964F";
metricRight = "=o-8";
name = ital_gen;
shapes = (
{
closed = 1;
nodes = (
(678,-16,o),
(844,73,o),
(947,198,c),
(911,227,l),
(816,112,o),
(666,30,o),
(513,30,cs),
(309,30,o),
(165,182,o),
(165,408,cs),
(165,806,o),
(396,1088,o),
(722,1088,cs),
(895,1088,o),
(985,1012,o),
(985,860,cs),
(985,592,o),
(656,581,o),
(159,581,c),
(159,535,l),
(696,535,o),
(1031,559,o),
(1031,863,cs),
(1031,1036,o),
(922,1134,o),
(722,1134,cs),
(369,1134,o),
(119,833,o),
(119,408,cs),
(119,160,o),
(282,-16,o),
(513,-16,cs)
);
}
);
width = 1129;
},
{
anchors = (
{
name = bottom;
pos = (439,0);
},
{
name = cedilla;
pos = (437,0);
},
{
name = ogonek;
pos = (902,304);
},
{
name = top;
pos = (620,1056);
}
);
background = {
shapes = (
{
closed = 1;
nodes = (
(771,-16,o),
(1002,314,o),
(1002,647,cs),
(1002,899,o),
(856,1072,o),
(620,1072,cs),
(288,1072,o),
(56,742,o),
(56,410,cs),
(56,157,o),
(203,-16,o),
(440,-16,cs)
);
},
{
closed = 1;
nodes = (
(228,30,o),
(102,178,o),
(102,410,cs),
(102,723,o),
(316,1026,o),
(620,1026,cs),
(833,1026,o),
(956,879,o),
(956,647,cs),
(956,332,o),
(743,30,o),
(440,30,cs)
);
}
);
};
layerId = m012;
metricRight = "=o-4";
name = ital_gen;
shapes = (
{
closed = 1;
nodes = (
(660,-16,o),
(836.288,123.023,o),
(905.079,312.241,c),
(855.806,312.241,l),
(787,144,o),
(632,30,o),
(440,30,cs),
(225,30,o),
(102,173.904,o),
(102,410,cs),
(102,719,o),
(315,1026,o),
(623,1026,cs),
(818,1026,o),
(914,905,o),
(914,769,cs),
(914,533,o),
(587,534,o),
(87,534,c),
(87,488,l),
(583,488,o),
(960,482,o),
(960,769,cs),
(960,926,o),
(847,1072,o),
(623,1072,cs),
(288,1072,o),
(56,742,o),
(56,410,cs),
(56,146,o),
(203,-16,o),
(440,-16,cs)
);
}
);
width = 1003;
},
{
anchors = (
{
name = bottom;
pos = (521,0);
},
{
name = cedilla;
pos = (516,0);
},
{
name = ogonek;
pos = (1030,261);
},
{
name = top;
pos = (705,1118);
}
);
background = {
shapes = (
{
closed = 1;
nodes = (
(756,-24,o),
(941,90,o),
(1021,258,c),
(863,306,l),
(800,189,o),
(690,130,o),
(556,130,cs),
(347,130,o),
(229,270,o),
(271,524,cs),
(287,622,ls),
(318,807,o),
(468,978,o),
(674,978,cs),
(880,978,o),
(959,816,o),
(922,592,c),
(1010,648,l),
(241,648,l),
(217,500,l),
(1079,500,l),
(1091,574,ls),
(1160,989,o),
(932,1132,o),
(699,1132,cs),
(396,1132,o),
(160,893,o),
(103,550,cs),
(46,207,o),
(207,-24,o),
(530,-24,cs)
);
}
);
};
layerId = "11F4534A-B963-4AB5-820F-DAF9A20CD933";
metricRight = "=o-4";
name = ital_gen;
shapes = (
{
closed = 1;
nodes = (
(756,-24,o),
(947,85,o),
(1030,261,c),
(863,308,l),
(806,201,o),
(688,135,o),
(546,135,cs),
(341,135,o),
(267,264,o),
(267,428,cs),
(267,649,o),
(385,982,o),
(686,982,cs),
(802,982,o),
(880,926,o),
(880,841,cs),
(880,674,o),
(731,623,o),
(243,623,c),
(219,487,l),
(809,487,o),
(1060,586,o),
(1060,837,cs),
(1060,1023,o),
(920,1142,o),
(704,1142,cs),
(366,1142,o),
(94,819,o),
(94,427,cs),
(94,144,o),
(259,-24,o),
(535,-24,cs)
);
}
);
width = 1179;
},
{
anchors = (
{
name = bottom;
pos = (480,0);
},
{
name = cedilla;
pos = (489,0);
},
{
name = ogonek;
pos = (978,315);
},
{
name = top;
pos = (644,1056);
}
);
background = {
anchors = (
{
name = bottom;
pos = (480,0);
}
);
};
guides = (
{
orientation = center;
angle = 80.6;
pos = (-9550,1764);
}
);
layerId = m008;
metricRight = "=o-4";
name = ital_gen;
shapes = (
{
closed = 1;
nodes = (
(726,-24,o),
(905,113,o),
(978,315,c),
(808,315,l),
(758,205,o),
(644,129,o),
(490,129,cs),
(287,129,o),
(234,268,o),
(234,417,cs),
(234,677,o),
(353,926,o),
(635,926,cs),
(770,926,o),
(840,872,o),
(840,783,cs),
(840,646,o),
(702,583,o),
(215,583,c),
(191,439,l),
(745,439,o),
(1011,529,o),
(1011,785,cs),
(1011,973,o),
(867,1080,o),
(652,1080,cs),
(318,1080,o),
(66,820,o),
(66,427,cs),
(66,112,o),
(236,-24,o),
(480,-24,cs)
);
}
);
width = 1080;
},
{
anchors = (
{
name = bottom;
pos = (547,0);
},
{
name = cedilla;
pos = (544,0);
},
{
name = ogonek;
pos = (1131,360);
},
{
name = top;
pos = (718,1056);
}
);
guides = (
{
orientation = center;
angle = 80.6;
pos = (-4229,1104);
}
);
layerId = m010;
metricRight = "=o-4";
name = ital_gen;
shapes = (
{
closed = 1;
nodes = (
(859,-24,o),
(1054,128,o),
(1131,360,c),
(765,360,l),
(746,297,o),
(693,255,o),
(584,255,cs),
(413,255,o),
(410,357,o),
(433,515,cs),
(453,651,o),
(456,798,o),
(664,798,cs),
(754,798,o),
(805,770,o),
(805,724,cs),
(805,664,o),
(719,633,o),
(191,633,c),
(154,401,l),
(769,401,o),
(1168,395,o),
(1168,729,cs),
(1168,970,o),
(960,1080,o),
(706,1080,cs),
(360,1080,o),
(102,874,o),
(45,528,cs),
(-15,166,o),
(191,-24,o),
(550,-24,cs)
);
}
);
width = 1200;
},
{
anchors = (
{
name = bottom;
pos = (508,0);
},
{
name = cedilla;
pos = (510,0);
},
{
name = ogonek;
pos = (1021,258);
},
{
name = top;
pos = (724,1304);
}
);
associatedMasterId = "11F4534A-B963-4AB5-820F-DAF9A20CD933";
background = {
shapes = (
{
pos = (1,0);
ref = o;
}
);
};
guides = (
{
orientation = center;
angle = 80.6;
pos = (239,1764);
}
);
layerId = "290764D4-BB09-44F2-8687-9347ED9548A6";
metricRight = "=o-4";
name = "Oct 6, 22, 17:30";
shapes = (
{
closed = 1;
nodes = (
(756,-24,o),
(941,90,o),
(1021,258,c),
(863,306,l),
(800,189,o),
(690,130,o),
(556,130,cs),
(347,130,o),
(229,270,o),
(271,524,cs),
(287,622,ls),
(318,807,o),
(468,978,o),
(674,978,cs),
(880,978,o),
(959,816,o),
(922,592,c),
(1010,648,l),
(241,648,l),
(217,500,l),
(1079,500,l),
(1091,574,ls),
(1160,989,o),
(932,1132,o),
(699,1132,cs),
(396,1132,o),
(160,893,o),
(103,550,cs),
(46,207,o),
(207,-24,o),
(530,-24,cs)
);
}
);
width = 1189;
},
{
anchors = (
{
name = bottom;
pos = (498,0);
},
{
name = cedilla;
pos = (502,0);
},
{
name = ogonek;
pos = (945,198);
},
{
name = top;
pos = (714,1304);
}
);
associatedMasterId = "200BE2C5-40F6-4CF4-AF4F-A33C0CC0964F";
background = {
shapes = (
{
closed = 1;
nodes = (
(738,-24,o),
(881,113,o),
(945,198,c),
(911,224,l),
(859,157,o),
(735,22,o),
(528,22,cs),
(247,22,o),
(128,268,o),
(177,562,cs),
(178,568,ls),
(227,864,o),
(452,1088,o),
(682,1088,cs),
(919,1088,o),
(1056,864,o),
(1010,584,c),
(1033,604,l),
(162,604,l),
(154,558,l),
(1050,558,l),
(1055,584,ls),
(1107,898,o),
(951,1134,o),
(690,1134,cs),
(425,1134,o),
(184,884,o),
(130,556,cs),
(76,227,o),
(228,-24,o),
(520,-24,cs)
);
}
);
};
layerId = "412F662E-023F-44DF-8557-AA0B8ABC67D6";
metricRight = "=o-8";
name = "Oct 6, 22, 17:44";
shapes = (
{
closed = 0;
nodes = (
(127,559,l),
(783,559,o),
(1029,646,o),
(1029,879,cs),
(1029,1038,o),
(913,1134,o),
(720,1134,cs),
(377,1134,o),
(117,821,o),
(117,408,cs),
(117,119,o),
(243,-16,o),
(511,-16,cs),
(693,-16,o),
(821,47,o),
(945,198,c)
);
}
);
width = 1173;
},
{
anchors = (
{
name = bottom;
pos = (484,0);
},
{
name = cedilla;
pos = (490,0);
},
{
name = ogonek;
pos = (979,315);
},
{
name = top;
pos = (693,1262);
}
);
associatedMasterId = m008;
background = {
shapes = (
{
closed = 1;
nodes = (
(706,-24,o),
(909,114,o),
(982,316,c),
(812,316,l),
(762,206,o),
(652,130,o),
(502,130,cs),
(295,130,o),
(205,283,o),
(241,502,cs),
(253,574,ls),
(289,789,o),
(434,928,o),
(622,928,cs),
(811,928,o),
(911,789,o),
(875,574,c),
(956,624,l),
(183,624,l),
(159,480,l),
(1027,480,l),
(1035,526,ls),
(1089,854,o),
(941,1080,o),
(647,1080,cs),
(367,1080,o),
(130,847,o),
(77,526,cs),
(24,208,o),
(166,-24,o),
(476,-24,cs)
);
}
);
};
guides = (
{
orientation = center;
angle = 80.6;
pos = (-9008,1764);
},
{
angle = 80.6;
pos = (572,1152);
}
);
layerId = "7927BD73-6835-4CAA-88F4-74F996E4A32F";
metricRight = "=o-4";
name = "Apr 5, 23, 14:48";
shapes = (
{
closed = 1;
nodes = (
(727,-24,o),
(906,113,o),
(979,315,c),
(809,315,l),
(759,205,o),
(641,129,o),
(491,129,cs),
(310,129,o),
(235,233,o),
(235,421,cs),
(235,451,o),
(229,431,o),
(253,574,cs),
(289,789,o),
(425,926,o),
(644,926,cs),
(765,926,o),
(841,885,o),
(841,791,cs),
(841,638,o),
(703,581,o),
(216,581,c),
(192,449,l),
(737,449,o),
(1012,537,o),
(1012,777,cs),
(1012,970,o),
(868,1080,o),
(653,1080,cs),
(319,1080,o),
(67,820,o),
(67,427,cs),
(67,112,o),
(237,-24,o),
(481,-24,cs)
);
}
);
width = 1082;
},
{
anchors = (
{
name = bottom;
pos = (512,0);
},
{
name = cedilla;
pos = (521,0);
},
{
name = ogonek;
pos = (1132,360);
},
{
name = top;
pos = (721,1262);
}
);
associatedMasterId = m010;
guides = (
{
orientation = center;
angle = 80.6;
pos = (-3627,1104);
},
{
angle = 80.6;
pos = (600,1336);
}
);
layerId = "D225F2DB-1C9F-450B-AF66-A54865D0199A";
metricRight = "=o-4";
name = "Apr 5, 23, 14:53";
shapes = (
{
closed = 1;
nodes = (
(860,-24,o),
(1055,128,o),
(1132,360,c),
(766,360,l),
(747,297,o),
(694,255,o),
(585,255,cs),
(496,255,o),
(423,284,o),
(423,403,cs),
(423,453,o),
(441,563,o),
(450,612,cs),
(477,757,o),
(540,798,o),
(665,798,cs),
(755,798,o),
(806,768,o),
(806,724,cs),
(806,664,o),
(722,633,o),
(192,633,c),
(155,409,l),
(770,409,o),
(1169,459,o),
(1169,761,cs),
(1169,978,o),
(961,1080,o),
(707,1080,cs),
(361,1080,o),
(103,874,o),
(46,528,cs),
(-14,166,o),
(192,-24,o),
(551,-24,cs)
);
}
);
width = 1202;
},
{
anchors = (
{
name = bottom;
pos = (407,0);
},
{
name = cedilla;
pos = (411,0);
},
{
name = ogonek;
pos = (856,198);
},
{
name = top;
pos = (623,1304);
}
);
associatedMasterId = m012;
background = {
shapes = (
{
closed = 1;
nodes = (
(771,-16,o),
(1002,314,o),
(1002,647,cs),
(1002,899,o),
(856,1072,o),
(620,1072,cs),
(288,1072,o),
(56,742,o),
(56,410,cs),
(56,157,o),
(203,-16,o),
(440,-16,cs)
);
},
{
closed = 1;
nodes = (
(228,30,o),
(102,178,o),
(102,410,cs),
(102,723,o),
(316,1026,o),
(620,1026,cs),
(833,1026,o),
(956,879,o),
(956,647,cs),
(956,332,o),
(743,30,o),
(440,30,cs)
);
}
);
};
layerId = "B00AC333-5DDF-4AD3-A441-E9274FF67790";
metricRight = "=o-4";
name = "May 6, 23, 16:46";
shapes = (
{
attr = {
lineCapEnd = 4;
strokePos = 1;
strokeWidth = 46;
};
closed = 0;
nodes = (
(87,488,l),
(743,488,o),
(976,584,o),
(976,777,cs),
(976,918,o),
(852,1072,o),
(623,1072,cs),
(288,1072,o),
(56,742,o),
(56,410,cs),
(56,157,o),
(203,-16,o),
(440,-16,cs),
(652,-16,o),
(831,119,o),
(902,304,c)
);
}
);
width = 1020;
},
{
anchors = (
{
name = bottom;
pos = (439,0);
},
{
name = cedilla;
pos = (437,0);
},
{
name = ogonek;
pos = (902,304);
},
{
name = top;
pos = (620,1056);
}
);
associatedMasterId = m012;
background = {
shapes = (
{
closed = 1;
nodes = (
(771,-16,o),
(1002,314,o),
(1002,647,cs),
(1002,899,o),
(856,1072,o),
(620,1072,cs),
(288,1072,o),
(56,742,o),
(56,410,cs),
(56,157,o),
(203,-16,o),
(440,-16,cs)
);
},
{
closed = 1;
nodes = (
(228,30,o),
(102,178,o),
(102,410,cs),
(102,723,o),
(316,1026,o),
(620,1026,cs),
(833,1026,o),
(956,879,o),
(956,647,cs),
(956,332,o),
(743,30,o),
(440,30,cs)
);
}
);
};
layerId = "11E80BA4-E91D-4690-B758-7B9AB168341F";
metricRight = "=o-4";
name = "May 6, 23, 16:48";
shapes = (
{
attr = {
lineCapEnd = 4;
strokePos = 1;
strokeWidth = 46;
};
closed = 0;
nodes = (
(87,488,l),
(583,488,o),
(976,495,o),
(976,769,cs),
(976,926,o),
(847,1072,o),
(623,1072,cs),
(288,1072,o),
(56,742,o),
(56,410,cs),
(56,157,o),
(203,-16,o),
(440,-16,cs),
(652,-16,o),
(831,119,o),
(902,304,c)
);
}
);
width = 1003;
},
{
anchors = (
{
name = bottom;
pos = (439,0);
},
{
name = cedilla;
pos = (437,0);
},
{
name = ogonek;
pos = (902,304);
},
{
name = top;
pos = (620,1056);
}
);
associatedMasterId = m012;
background = {
shapes = (
{
closed = 1;
nodes = (
(771,-16,o),
(1002,314,o),
(1002,647,cs),
(1002,899,o),
(856,1072,o),
(620,1072,cs),
(288,1072,o),
(56,742,o),
(56,410,cs),
(56,157,o),
(203,-16,o),
(440,-16,cs)
);
},
{
closed = 1;
nodes = (
(228,30,o),
(102,178,o),
(102,410,cs),
(102,723,o),
(316,1026,o),
(620,1026,cs),
(833,1026,o),
(956,879,o),
(956,647,cs),
(956,332,o),
(743,30,o),
(440,30,cs)
);
}
);
};
layerId = "013A855B-5A4C-4E39-8497-A1796147395C";
metricRight = "=o-4";
name = "May 6, 23, 16:51";
shapes = (
{
closed = 1;
nodes = (
(655.135,-16,o),
(836.288,123.023,o),
(905.079,312.241,c),
(855.806,312.241,l),
(787.773,144.052,o),
(633.455,30,o),
(440,30,cs),
(224.277,30,o),
(102,173.904,o),
(102,410,cs),
(102,727.448,o),
(311.891,1026,o),
(623,1026,cs),
(826.26,1026,o),
(930,908.589,o),
(930,769,cs),
(930,540.188,o),
(582.59,534,o),
(87,534,c),
(87,488,l),
(583,488,o),
(976,495,o),
(976,769,cs),
(976,926,o),
(847,1072,o),
(623,1072,cs),
(288,1072,o),
(56,742,o),
(56,410,cs),
(56,157,o),
(203,-16,o),
(440,-16,cs)
);
}
);
width = 1003;
},
{
anchors = (
{
name = bottom;
pos = (529,0);
},
{
name = cedilla;
pos = (535,0);
},
{
name = ogonek;
pos = (1147,360);
},
{
name = top;
pos = (745,1304);
}
);
associatedMasterId = "D0EC06BF-13F9-4C88-A6F5-B8203AF6C77E";
background = {
shapes = (
{
closed = 1;
nodes = (
(851,-20,o),
(1070,128,o),
(1147,360,c),
(781,360,l),
(746,297,o),
(678,262,o),
(596,262,cs),
(481,262,o),
(421,348,o),
(442,480,cs),
(469,640,ls),
(491,775,o),
(564,850,o),
(680,850,cs),
(796,850,o),
(843,775,o),
(821,640,c),
(1017,686,l),
(207,686,l),
(170,466,l),
(1168,466,l),
(1183,558,ls),
(1242,914,o),
(1060,1132,o),
(722,1132,cs),
(376,1132,o),
(118,902,o),
(61,556,cs),
(1,194,o),
(183,-20,o),
(542,-20,cs)
);
}
);
};
layerId = "30F04A51-B6A3-4A8E-BC31-B006FA7F123C";
metricRight = "=o-4";
name = "May 6, 23, 16:53";
shapes = (
{
closed = 1;
nodes = (
(875,-24,o),
(1070,128,o),
(1147,360,c),
(781,360,l),
(762,297,o),
(687,259,o),
(597,259,cs),
(420,259,o),
(427,400,o),
(452,559,cs),
(471,689,o),
(489,850,o),
(680,850,cs),
(771,850,o),
(821,817,o),
(821,758,cs),
(821,682,o),
(737,670,o),
(207,670,c),
(170,450,l),
(785,450,o),
(1184,487,o),
(1184,789,cs),
(1184,1006,o),
(976,1132,o),
(722,1132,cs),
(376,1132,o),
(118,902,o),
(61,556,cs),
(1,194,o),
(207,-24,o),
(566,-24,cs)
);
}
);
width = 1237;
},
{
anchors = (
{
name = bottom;
pos = (553,0);
},
{
name = cedilla;
pos = (551,0);
},
{
name = ogonek;
pos = (1147,360);
},
{
name = top;
pos = (737,1118);
}
);
associatedMasterId = "D0EC06BF-13F9-4C88-A6F5-B8203AF6C77E";
background = {
shapes = (
{
closed = 1;
nodes = (
(851,-20,o),
(1070,128,o),
(1147,360,c),
(781,360,l),
(746,297,o),
(678,262,o),
(596,262,cs),
(481,262,o),
(421,348,o),
(442,480,cs),
(469,640,ls),
(491,775,o),
(564,850,o),
(680,850,cs),
(796,850,o),
(843,775,o),
(821,640,c),
(1017,686,l),
(207,686,l),
(170,466,l),
(1168,466,l),
(1183,558,ls),
(1242,914,o),
(1060,1132,o),
(722,1132,cs),
(376,1132,o),
(118,902,o),
(61,556,cs),
(1,194,o),
(183,-20,o),
(542,-20,cs)
);
}
);
};
layerId = "70FD3890-3186-4F2B-9C34-D9127C5FE201";
metricRight = "=o-4";
name = "May 6, 23, 17:01";
shapes = (
{
closed = 1;
nodes = (
(849,-24,o),
(1060,111,o),
(1125,303,c),
(785,360,l),
(766,305,o),
(698,259,o),
(597,259,cs),
(472,259,o),
(439,329,o),
(439,426,cs),
(439,551,o),
(453,850,o),
(680,850,cs),
(771,850,o),
(821,817,o),
(821,758,cs),
(821,682,o),
(737,670,o),
(207,670,c),
(170,450,l),
(785,450,o),
(1184,487,o),
(1184,789,cs),
(1184,1006,o),
(976,1132,o),
(722,1132,cs),
(308,1132,o),
(51,800,o),
(51,436,cs),
(51,147,o),
(249,-24,o),
(566,-24,cs)
);
}
);
width = 1224;
},
{
anchors = (
{
name = bottom;
pos = (553,0);
},
{
name = cedilla;
pos = (551,0);
},
{
name = ogonek;
pos = (1138,334);
},
{
name = top;
pos = (737,1118);
}
);
background = {
shapes = (
{
closed = 0;
nodes = (
(1135,335,l),
(781,360,l)
);
}
);
};
layerId = "D0EC06BF-13F9-4C88-A6F5-B8203AF6C77E";
metricRight = "=o-4";
name = "Black Italic";
shapes = (
{
closed = 1;
nodes = (
(863,-24,o),
(1072,122,o),
(1138,334,c),
(781,360,l),
(760,295,o),
(687,259,o),
(597,259,cs),
(472,259,o),
(439,329,o),
(439,426,cs),
(439,551,o),
(453,850,o),
(680,850,cs),
(771,850,o),
(821,817,o),
(821,758,cs),
(821,682,o),
(737,670,o),
(207,670,c),
(170,450,l),
(785,450,o),
(1184,487,o),
(1184,789,cs),
(1184,1006,o),
(976,1132,o),
(722,1132,cs),
(308,1132,o),
(51,800,o),
(51,436,cs),
(51,147,o),
(249,-24,o),
(566,-24,cs)
);
}
);
width = 1232;
},
{
anchors = (
{
name = bottom;
pos = (553,0);
},
{
name = cedilla;
pos = (551,0);
},
{
name = ogonek;
pos = (1147,360);
},
{
name = top;
pos = (737,1118);
}
);
associatedMasterId = "D0EC06BF-13F9-4C88-A6F5-B8203AF6C77E";
background = {
shapes = (
{
closed = 1;
nodes = (
(851,-20,o),
(1070,128,o),
(1147,360,c),
(781,360,l),
(746,297,o),
(678,262,o),
(596,262,cs),
(481,262,o),
(421,348,o),
(442,480,cs),
(469,640,ls),
(491,775,o),
(564,850,o),
(680,850,cs),
(796,850,o),
(843,775,o),
(821,640,c),
(1017,686,l),
(207,686,l),
(170,466,l),
(1168,466,l),
(1183,558,ls),
(1242,914,o),
(1060,1132,o),
(722,1132,cs),
(376,1132,o),
(118,902,o),
(61,556,cs),
(1,194,o),
(183,-20,o),
(542,-20,cs)
);
}
);
};
layerId = "F472B780-EE93-4A3A-A3F9-3B4E99D6F422";
metricRight = "=o-4";
name = "May 6, 23, 17:01";
shapes = (
{
closed = 1;
nodes = (
(875,-24,o),
(1070,128,o),
(1147,360,c),
(781,360,l),
(762,297,o),
(687,259,o),
(597,259,cs),
(472,259,o),
(439,329,o),
(439,426,cs),
(439,551,o),
(453,850,o),
(680,850,cs),
(771,850,o),
(821,817,o),
(821,758,cs),
(821,682,o),
(737,670,o),
(207,670,c),
(170,450,l),
(785,450,o),
(1184,487,o),
(1184,789,cs),
(1184,1006,o),
(976,1132,o),
(722,1132,cs),
(308,1132,o),
(51,800,o),
(51,436,cs),
(51,147,o),
(249,-24,o),
(566,-24,cs)
);
}
);
width = 1237;
}
);
metricLeft = o;
metricRight = o;
unicode = 101;
userData = {
com.typemytype.robofont.guideline.magnetic.5XWlAkuiPv = 5;
"interface.width-adjustments" = (
-16
);
};
}
{
glyphname = g;
kernLeft = o;
kernRight = g;
layers = (
{
anchors = (
{
name = bottom;
pos = (397,-436);
},
{
name = cross;
pos = (968,558);
},
{
name = top;
pos = (689,1118);
},
{
name = topr;
pos = (1085,1118);
}
);
layerId = "200BE2C5-40F6-4CF4-AF4F-A33C0CC0964F";
shapes = (
{
closed = 1;
nodes = (
(670,-442,o),
(849,-301,o),
(895,-26,cs),
(1085,1118,l),
(1039,1118,l),
(991,832,l),
(985,832,l),
(955,1018,o),
(836,1134,o),
(654,1134,cs),
(318,1134,o),
(118,746,o),
(118,419,cs),
(118,166,o),
(248,0,o),
(473,0,cs),
(636,0,o),
(804,93,o),
(894,280,c),
(900,280,l),
(850,-22,ls),
(809,-272,o),
(649,-396,o),
(415,-396,cs),
(248,-396,o),
(126,-333,o),
(98,-201,c),
(52,-217,l),
(84,-366,o),
(224,-442,o),
(413,-442,cs)
);
},
{
closed = 1;
nodes = (
(276,46,o),
(163,192,o),
(163,420,cs),
(163,725,o),
(349,1088,o),
(653,1088,cs),
(850,1088,o),
(958,927,o),
(958,698,cs),
(958,389,o),
(786,46,o),
(474,46,cs)
);
}
);
width = 1190;
},
{
anchors = (
{
name = bottom;
pos = (458,-441);
},
{
name = cross;
pos = (1013,564);
},
{
name = top;
pos = (698,1118);
},
{
name = topr;
pos = (1191,1118);
}
);
layerId = "11F4534A-B963-4AB5-820F-DAF9A20CD933";
shapes = (
{
closed = 1;
nodes = (
(724,-442,o),
(951,-323,o),
(999,-35,cs),
(1191,1118,l),
(1016,1118,l),
(986,939,l),
(965,934,l),
(938,993,o),
(886,1132,o),
(664,1132,cs),
(312,1132,o),
(96,784,o),
(96,443,cs),
(96,170,o),
(260,18,o),
(498,18,cs),
(707,18,o),
(793,134,o),
(844,201,c),
(860,205,l),
(823,-13,ls),
(792,-196,o),
(644,-285,o),
(460,-285,cs),
(266,-285,o),
(213,-185,o),
(180,-125,c),
(25,-209,l),
(73,-327,o),
(197,-442,o),
(456,-442,cs)
);
},
{
closed = 1;
nodes = (
(360,178,o),
(277,286,o),
(277,453,cs),
(277,702,o),
(425,971,o),
(685,971,cs),
(852,971,o),
(932,860,o),
(932,690,cs),
(932,445,o),
(805,178,o),
(531,178,cs)
);
}
);
width = 1256;
},
{
anchors = (
{
name = bottom;
pos = (406,-432);
},
{
name = cross;
pos = (957,564);
},
{
name = top;
pos = (640,1056);
},
{
name = topr;
pos = (1118,1056);
}
);
background = {
shapes = (
{
ref = d;
}
);
};
layerId = m008;
name = ital_gen;
shapes = (
{
closed = 1;
nodes = (
(659,-432,o),
(892,-318,o),
(943,-6,cs),
(1118,1056,l),
(952,1056,l),
(925,891,l),
(924,891,l),
(872,1021,o),
(751,1076,o),
(609,1076,cs),
(269,1076,o),
(62,739,o),
(62,409,cs),
(62,151,o),
(207,-20,o),
(449,-20,cs),
(583,-20,o),
(701,37,o),
(799,160,c),
(800,160,l),
(777,6,ls),
(750,-174,o),
(612,-282,o),
(422,-282,cs),
(285,-282,o),
(200,-226,o),
(189,-112,c),
(19,-112,l),
(10,-320,o),
(180,-432,o),
(419,-432,cs)
);
},
{
closed = 1;
nodes = (
(328,133,o),
(232,227,o),
(232,410,cs),
(232,665,o),
(376,924,o),
(631,924,cs),
(793,924,o),
(886,815,o),
(886,638,cs),
(886,388,o),
(732,133,o),
(479,133,cs)
);
}
);
width = 1157;
},
{
anchors = (
{
name = bottom;
pos = (476,-416);
},
{
name = cross;
pos = (1022,568);
},
{
name = top;
pos = (745,1118);
},
{
name = topr;
pos = (1318,1118);
}
);
layerId = "D0EC06BF-13F9-4C88-A6F5-B8203AF6C77E";
shapes = (
{
closed = 1;
nodes = (
(835,-442,o),
(1085,-286,o),
(1137,29,cs),
(1318,1118,l),
(920,1118,l),
(885,910,l),
(876,910,l),
(851,1024,o),
(751,1132,o),
(575,1132,cs),
(238,1132,o),
(53,768,o),
(53,430,cs),
(53,141,o),
(220,14,o),
(433,14,cs),
(574,14,o),
(672,79,o),
(734,192,c),
(772,192,l),
(739,15,ls),
(717,-102,o),
(634,-172,o),
(493,-172,cs),
(401,-172,o),
(345,-149,o),
(343,-89,c),
(-11,-115,l),
(-11,-307,o),
(176,-442,o),
(492,-442,cs)
);
},
{
closed = 1;
nodes = (
(507,300,o),
(465,352,o),
(465,453,cs),
(465,609,o),
(549,824,o),
(715,824,cs),
(797,824,o),
(840,767,o),
(840,663,cs),
(840,506,o),
(757,300,o),
(588,300,cs)
);
}
);
width = 1327;
},
{
anchors = (
{
name = bottom;
pos = (475,-418);
},
{
name = cross;
pos = (994,568);
},
{
name = top;
pos = (705,1056);
},
{
name = topr;
pos = (1279,1056);
}
);
background = {
shapes = (
{
pos = (-1,0);
ref = d;
}
);
};
guides = (
{
angle = 80.6;
pos = (523,1077);
}
);
layerId = m010;
name = ital_gen;
shapes = (
{
closed = 1;
nodes = (
(838,-432,o),
(1057,-291,o),
(1115,63,cs),
(1279,1056,l),
(881,1056,l),
(856,903,l),
(855,903,l),
(809,1008,o),
(714,1080,o),
(567,1080,cs),
(254,1080,o),
(41,767,o),
(41,446,cs),
(41,192,o),
(187,16,o),
(436,16,cs),
(573,16,o),
(667,70,o),
(737,195,c),
(738,195,l),
(715,45,ls),
(695,-83,o),
(617,-158,o),
(496,-158,cs),
(414,-158,o),
(375,-123,o),
(370,-72,c),
(0,-72,l),
(0,-274,o),
(129,-432,o),
(492,-432,cs)
);
},
{
closed = 1;
nodes = (
(483,322,o),
(442,374,o),
(442,463,cs),
(442,605,o),
(526,776,o),
(681,776,cs),
(765,776,o),
(818,721,o),
(818,626,cs),
(818,485,o),
(718,322,o),
(564,322,cs)
);
}
);
width = 1278;
},
{
anchors = (
{
name = bottom;
pos = (394,-436);
},
{
name = cross;
pos = (960,528);
},
{
name = top;
pos = (617,1056);
},
{
name = topr;
pos = (1071,1056);
}
);
layerId = m012;
name = ital_gen;
shapes = (
{
closed = 1;
nodes = (
(675,-427,o),
(853,-262,o),
(896,-4,cs),
(1071,1056,l),
(1025,1056,l),
(978,770,l),
(977,770,l),
(964,939,o),
(824,1072,o),
(617,1072,cs),
(287,1072,o),
(56,745,o),
(56,406,cs),
(56,146,o),
(211,-16,o),
(443,-16,cs),
(646,-16,o),
(824,113,o),
(896,280,c),
(897,280,l),
(851,0,ls),
(814,-228,o),
(653,-381,o),
(392,-381,cs),
(168,-381,o),
(69,-289,o),
(59,-112,c),
(14,-112,l),
(22,-314,o),
(141,-427,o),
(391,-427,cs)
);
},
{
closed = 1;
nodes = (
(236,30,o),
(103,172,o),
(103,408,cs),
(103,725,o),
(316,1026,o),
(616,1026,cs),
(824,1026,o),
(950,886,o),
(950,654,cs),
(950,343,o),
(757,30,o),
(444,30,cs)
);
}
);
width = 1118;
},
{
anchors = (
{
name = bottom;
pos = (384,-432);
},
{
name = cross;
pos = (935,564);
},
{
name = top;
pos = (667,1262);
},
{
name = topr;
pos = (1096,1056);
}
);
associatedMasterId = m008;
layerId = "99EECA66-EC74-4477-BFE0-B17F933C419A";
name = "May 6, 23, 23:04";
shapes = (
{
closed = 1;
nodes = (
(632,-432,o),
(870,-312,o),
(922,0,cs),
(1096,1056,l),
(930,1056,l),
(902,886,l),
(896,886,l),
(869,952,o),
(812,1076,o),
(614,1076,cs),
(344,1076,o),
(124,846,o),
(71,530,cs),
(18,210,o),
(148,-10,o),
(430,-10,cs),
(586,-10,o),
(696,60,o),
(778,174,c),
(782,174,l),
(754,0,ls),
(724,-180,o),
(595,-282,o),
(411,-282,cs),
(275,-282,o),
(180,-226,o),
(169,-112,c),
(-5,-112,l),
(-13,-320,o),
(148,-432,o),
(386,-432,cs)
);
},
{
closed = 1;
nodes = (
(279,142,o),
(205,298,o),
(243,528,cs),
(281,758,o),
(412,922,o),
(610,922,cs),
(796,922,o),
(882,778,o),
(841,528,cs),
(800,282,o),
(667,142,o),
(477,142,cs)
);
}
);
width = 1135;
},
{
anchors = (
{
name = bottom;
pos = (396,-436);
},
{
name = cross;
pos = (968,558);
},
{
name = top;
pos = (718,1304);
},
{
name = topr;
pos = (1086,1118);
}
);
associatedMasterId = "200BE2C5-40F6-4CF4-AF4F-A33C0CC0964F";
layerId = "169F4FAE-9256-4CD7-A113-61C46093A8B1";
name = "May 6, 23, 23:29";
shapes = (
{
closed = 1;
nodes = (
(672,-442,o),
(850,-300,o),
(896,-24,cs),
(1086,1118,l),
(1040,1118,l),
(992,832,l),
(986,832,l),
(954,1018,o),
(838,1135,o),
(658,1134,cs),
(393,1135,o),
(186,887,o),
(130,556,cs),
(76,227,o),
(207,0,o),
(468,0,cs),
(634,0,o),
(806,93,o),
(894,280,c),
(898,280,l),
(850,-24,ls),
(811,-273,o),
(646,-396,o),
(414,-396,cs),
(244,-396,o),
(125,-335,o),
(96,-204,c),
(52,-218,l),
(84,-367,o),
(227,-442,o),
(414,-442,cs)
);
},
{
closed = 1;
nodes = (
(233,47,o),
(128,253,o),
(178,556,cs),
(227,858,o),
(419,1088,o),
(654,1088,cs),
(893,1088,o),
(995,858,o),
(946,556,cs),
(893,241,o),
(701,47,o),
(468,46,cs)
);
}
);
width = 1191;
}
);
metricLeft = d;
metricRight = "=|n";
unicode = 103;
userData = {
"interface.width-adjustments" = (
-16
);
};
}
{
glyphname = o;
kernLeft = o;
kernRight = o;
layers = (
{
anchors = (
{
name = bottom;
pos = (501,0);
},
{
name = center;
pos = (594,559);
},
{
name = ogonek;
pos = (1056,556);
},
{
name = top;
pos = (687,1118);
},
{
name = tophorn;
pos = (689,1134);
}
);
layerId = "200BE2C5-40F6-4CF4-AF4F-A33C0CC0964F";
name = ital_gen;
shapes = (
{
closed = 1;
nodes = (
(827,-24,o),
(1066,340,o),
(1066,679,cs),
(1066,944,o),
(915,1134,o),
(686,1134,cs),
(359,1134,o),
(119,772,o),
(119,432,cs),
(119,166,o),
(270,-24,o),
(501,-24,cs)
);
},
{
closed = 1;
nodes = (
(296,22,o),
(165,191,o),
(165,434,cs),
(165,762,o),
(398,1088,o),
(685,1088,cs),
(889,1088,o),
(1020,918,o),
(1020,677,cs),
(1020,367,o),
(803,22,o),
(502,22,cs)
);
}
);
width = 1186;
},
{
anchors = (
{
name = bottom;
pos = (520,0);
},
{
name = center;
pos = (613,559);
},
{
name = ogonek;
pos = (1123,552);
},
{
name = top;
pos = (706,1118);
},
{
name = tophorn;
pos = (708,1132);
}
);
layerId = "11F4534A-B963-4AB5-820F-DAF9A20CD933";
name = ital_gen;
shapes = (
{
closed = 1;
nodes = (
(899,-24,o),
(1133,315,o),
(1133,674,cs),
(1133,954,o),
(967,1132,o),
(697,1132,cs),
(323,1132,o),
(94,788,o),
(94,433,cs),
(94,156,o),
(258,-24,o),
(528,-24,cs)
);
},
{
closed = 1;
nodes = (
(351,137,o),
(274,267,o),
(274,435,cs),
(274,683,o),
(421,971,o),
(692,971,cs),
(875,971,o),
(952,840,o),
(952,670,cs),
(952,424,o),
(807,137,o),
(532,137,cs)
);
}
);
width = 1229;
},
{
anchors = (
{
name = bottom;
pos = (332,0);
},
{
name = bottom_dd;
pos = (762,-408);
},
{
name = ogonek;
pos = (488,0);
},
{
name = rhotichook;
pos = (934,652);
},
{
name = top;
pos = (766,1304);
},
{
name = top0315;
pos = (1282,1304);
},
{
name = top_dd;
pos = (1420,1582);
}
);
associatedMasterId = "11F4534A-B963-4AB5-820F-DAF9A20CD933";
background = {
shapes = (
{
closed = 1;
nodes = (
(817,-23,o),
(1059,207,o),
(1118,552,cs),
(1175,902,o),
(1009,1132,o),
(706,1132,cs),
(404,1132,o),
(163,902,o),
(104,552,cs),
(47,207,o),
(212,-23,o),
(514,-24,cs)
);
},
{
closed = 1;
nodes = (
(311,131,o),
(239,329,o),
(276,552,cs),
(311,777,o),
(451,977,o),
(680,978,cs),
(911,977,o),
(980,777,o),
(946,552,cs),
(908,329,o),
(771,131,o),
(542,130,cs)
);
}
);
};
guides = (
{
angle = 90;
pos = (836,1208);
}
);
layerId = "E3906703-97CD-4D18-A494-C50B3FCB969D";
name = "Sep 11 18, 19:44";
shapes = (
{
closed = 1;
nodes = (
(817,-23,o),
(1059,207,o),
(1118,552,cs),
(1175,902,o),
(1009,1132,o),
(706,1132,cs),
(404,1132,o),
(163,902,o),
(104,552,cs),
(47,207,o),
(212,-23,o),
(514,-24,cs)
);
},
{
closed = 1;
nodes = (
(311,131,o),
(239,329,o),
(276,552,cs),
(311,777,o),
(451,977,o),
(680,978,cs),
(911,977,o),
(980,777,o),
(946,552,cs),
(908,329,o),
(771,131,o),
(542,130,cs)
);
}
);
width = 1222;
},
{
anchors = (
{
name = bottom;
pos = (475,0);
},
{
name = center;
pos = (562,528);
},
{
name = ogonek;
pos = (1052,526);
},
{
name = top;
pos = (649,1056);
},
{
name = tophorn;
pos = (653,1080);
}
);
guides = (
{
orientation = center;
angle = 80.6;
pos = (-9246,1208);
}
);
layerId = m008;
name = ital_gen;
shapes = (
{
closed = 1;
nodes = (
(830,-24,o),
(1060,297,o),
(1060,636,cs),
(1060,900,o),
(903,1080,o),
(643,1080,cs),
(293,1080,o),
(63,753,o),
(63,416,cs),
(63,154,o),
(221,-24,o),
(481,-24,cs)
);
},
{
closed = 1;
nodes = (
(321,130,o),
(233,237,o),
(233,412,cs),
(233,665,o),
(383,926,o),
(638,926,cs),
(802,926,o),
(891,817,o),
(891,640,cs),
(891,396,o),
(749,130,o),
(486,130,cs)
);
}
);
width = 1123;
},
{
anchors = (
{
name = bottom;
pos = (547,0);
},
{
name = center;
pos = (640,559);
},
{
name = ogonek;
pos = (1218,556);
},
{
name = top;
pos = (733,1118);
},
{
name = tophorn;
pos = (735,1132);
}
);
layerId = "D0EC06BF-13F9-4C88-A6F5-B8203AF6C77E";
name = ital_gen;
shapes = (
{
closed = 1;
nodes = (
(990,-20,o),
(1224,297,o),
(1224,657,cs),
(1224,943,o),
(1043,1132,o),
(715,1132,cs),
(294,1132,o),
(55,818,o),
(55,455,cs),
(55,168,o),
(236,-20,o),
(566,-20,cs)
);
},
{
closed = 1;
nodes = (
(507,280,o),
(459,337,o),
(459,441,cs),
(459,576,o),
(517,832,o),
(699,832,cs),
(773,832,o),
(820,779,o),
(820,676,cs),
(820,542,o),
(761,280,o),
(582,280,cs)
);
}
);
width = 1280;
},
{
anchors = (
{
name = bottom;
pos = (535,0);
},
{
name = center;
pos = (622,528);
},
{
name = ogonek;
pos = (1198,528);
},
{
name = top;
pos = (709,1056);
},
{
name = tophorn;
pos = (713,1080);
}
);
layerId = m010;
name = ital_gen;
shapes = (
{
closed = 1;
nodes = (
(953,-24,o),
(1204,266,o),
(1204,616,cs),
(1204,901,o),
(1007,1080,o),
(693,1080,cs),
(313,1080,o),
(40,813,o),
(40,440,cs),
(40,154,o),
(238,-24,o),
(551,-24,cs)
);
},
{
closed = 1;
nodes = (
(507,288,o),
(440,336,o),
(440,438,cs),
(440,589,o),
(516,768,o),
(666,768,cs),
(737,768,o),
(804,720,o),
(804,618,cs),
(804,467,o),
(728,288,o),
(578,288,cs)
);
}
);
width = 1244;
},
{
anchors = (
{
name = bottom;
pos = (443,0);
},
{
name = center;
pos = (530,528);
},
{
name = ogonek;
pos = (992,528);
},
{
name = top;
pos = (617,1056);
},
{
name = tophorn;
pos = (620,1072);
}
);
layerId = m012;
name = ital_gen;
shapes = (
{
closed = 1;
nodes = (
(771,-16,o),
(1002,314,o),
(1002,647,cs),
(1002,899,o),
(856,1072,o),
(620,1072,cs),
(288,1072,o),
(56,742,o),
(56,410,cs),
(56,157,o),
(203,-16,o),
(440,-16,cs)
);
},
{
closed = 1;
nodes = (
(228,30,o),
(102,178,o),
(102,410,cs),
(102,723,o),
(316,1026,o),
(620,1026,cs),
(833,1026,o),
(956,879,o),
(956,647,cs),
(956,332,o),
(743,30,o),
(440,30,cs)
);
}
);
width = 1058;
},
{
anchors = (
{
name = bottom;
pos = (475,0);
},
{
name = center;
pos = (563,528);
},
{
name = ogonek;
pos = (1052,526);
},
{
name = top;
pos = (650,1056);
},
{
name = tophorn;
pos = (654,1080);
}
);
associatedMasterId = m008;
guides = (
{
orientation = center;
angle = 80.6;
pos = (-9246,1208);
},
{
angle = 80.6;
pos = (563,1120);
}
);
layerId = "C7AEAE1D-07B0-460E-8EFD-9E2E2D4C7A9A";
name = "May 4, 23, 23:25";
shapes = (
{
closed = 1;
nodes = (
(764,-24,o),
(999,204,o),
(1052,526,cs),
(1106,850,o),
(947,1080,o),
(654,1080,cs),
(361,1080,o),
(126,850,o),
(72,526,cs),
(19,204,o),
(178,-24,o),
(471,-24,cs)
);
},
{
closed = 1;
nodes = (
(289,130,o),
(204,286,o),
(244,526,cs),
(284,768,o),
(437,926,o),
(636,926,cs),
(835,926,o),
(920,767,o),
(880,526,cs),
(841,287,o),
(689,130,o),
(489,130,cs)
);
}
);
width = 1124;
},
{
anchors = (
{
name = bottom;
pos = (475,0);
},
{
name = center;
pos = (562,528);
},
{
name = ogonek;
pos = (1052,526);
},
{
name = top;
pos = (649,1056);
},
{
name = tophorn;
pos = (653,1080);
}
);
associatedMasterId = m008;
guides = (
{
orientation = center;
angle = 80.6;
pos = (-9246,1208);
},
{
angle = 80.6;
pos = (563,1120);
}
);
layerId = "D1475D12-93A4-42AF-BFB2-A03D8E046A18";
name = "May 4, 23, 23:25";
shapes = (
{
closed = 1;
nodes = (
(769,-24,o),
(997,198,o),
(1050,515,cs),
(1104,844,o),
(941,1080,o),
(643,1080,cs),
(355,1080,o),
(126,856,o),
(74,537,cs),
(19,210,o),
(183,-24,o),
(481,-24,cs)
);
},
{
closed = 1;
nodes = (
(291,130,o),
(203,280,o),
(242,515,cs),
(283,762,o),
(434,926,o),
(638,926,cs),
(832,926,o),
(921,773,o),
(882,537,cs),
(841,293,o),
(691,130,o),
(486,130,cs)
);
}
);
width = 1125;
},
{
anchors = (
{
name = bottom;
pos = (518,0);
},
{
name = center;
pos = (611,559);
},
{
name = ogonek;
pos = (1117,552);
},
{
name = top;
pos = (703,1118);
},
{
name = tophorn;
pos = (705,1132);
}
);
associatedMasterId = "11F4534A-B963-4AB5-820F-DAF9A20CD933";
layerId = "4603023E-E213-491D-A1F9-EF4CE4FAE748";
name = "May 4, 23, 23:27";
shapes = (
{
closed = 1;
nodes = (
(817,-24,o),
(1060,207,o),
(1117,552,cs),
(1175,902,o),
(1008,1132,o),
(705,1132,cs),
(403,1132,o),
(161,902,o),
(103,552,cs),
(46,207,o),
(212,-24,o),
(514,-24,cs)
);
},
{
closed = 1;
nodes = (
(303,130,o),
(238,329,o),
(275,552,cs),
(313,777,o),
(459,978,o),
(688,978,cs),
(919,978,o),
(983,777,o),
(945,552,cs),
(908,329,o),
(763,130,o),
(532,130,cs)
);
}
);
width = 1222;
},
{
anchors = (
{
name = bottom;
pos = (443,0);
},
{
name = center;
pos = (529,528);
},
{
name = ogonek;
pos = (993,528);
},
{
name = top;
pos = (618,1056);
},
{
name = tophorn;
pos = (621,1072);
}
);
associatedMasterId = m012;
layerId = "2E9A011B-F69A-43F1-A143-70B16C56464B";
name = "May 4, 23, 23:28";
shapes = (
{
closed = 1;
nodes = (
(716,-16,o),
(939,211,o),
(992,528,cs),
(1045,843,o),
(892,1072,o),
(620,1072,cs),
(347,1072,o),
(119,843,o),
(66,528,cs),
(14,213,o),
(167,-16,o),
(440,-16,cs)
);
},
{
closed = 1;
nodes = (
(195,30,o),
(64,236,o),
(112,528,cs),
(161,820,o),
(376,1026,o),
(621,1026,cs),
(865,1026,o),
(995,820,o),
(946,528,cs),
(898,236,o),
(684,30,o),
(440,30,cs)
);
}
);
width = 1058;
},
{
anchors = (
{
name = bottom;
pos = (502,0);
},
{
name = center;
pos = (595,559);
},
{
name = ogonek;
pos = (1056,556);
},
{
name = top;
pos = (687,1118);
},
{
name = tophorn;
pos = (690,1134);
}
);
associatedMasterId = "200BE2C5-40F6-4CF4-AF4F-A33C0CC0964F";
layerId = "87BF3C49-5987-4CBC-80DE-F6A5C12712CF";
name = "May 4, 23, 23:31";
shapes = (
{
closed = 1;
nodes = (
(761,-24,o),
(1001,226,o),
(1056,556,cs),
(1110,884,o),
(952,1134,o),
(690,1134,cs),
(426,1134,o),
(185,885,o),
(130,556,cs),
(75,226,o),
(234,-24,o),
(498,-24,cs)
);
},
{
closed = 1;
nodes = (
(260,22,o),
(126,252,o),
(176,556,cs),
(226,857,o),
(454,1088,o),
(690,1088,cs),
(926,1088,o),
(1060,858,o),
(1010,556,cs),
(960,252,o),
(735,22,o),
(498,22,cs)
);
}
);
width = 1186;
},
{
anchors = (
{
name = bottom;
pos = (548,0);
},
{
name = center;
pos = (642,559);
},
{
name = ogonek;
pos = (1218,556);
},
{
name = top;
pos = (733,1118);
},
{
name = tophorn;
pos = (735,1132);
}
);
associatedMasterId = "D0EC06BF-13F9-4C88-A6F5-B8203AF6C77E";
layerId = "F7EA97A6-051C-4DF5-8733-775D7A896281";
name = "May 4, 23, 23:32";
shapes = (
{
closed = 1;
nodes = (
(917,-20,o),
(1161,212,o),
(1218,556,cs),
(1275,899,o),
(1091,1132,o),
(727,1132,cs),
(363,1132,o),
(119,899,o),
(62,556,cs),
(5,212,o),
(189,-20,o),
(553,-20,cs)
);
},
{
closed = 1;
nodes = (
(489,280,o),
(443,383,o),
(472,558,cs),
(502,734,o),
(581,832,o),
(688,832,cs),
(791,832,o),
(838,734,o),
(808,558,cs),
(779,383,o),
(699,280,o),
(596,280,cs)
);
}
);
width = 1280;
},
{
anchors = (
{
name = bottom;
pos = (535,0);
},
{
name = center;
pos = (624,528);
},
{
name = ogonek;
pos = (1199,528);
},
{
name = top;
pos = (710,1056);
},
{
name = tophorn;
pos = (714,1080);
}
);
associatedMasterId = m010;
layerId = "97F7375D-FD49-473D-8B7A-FA5AC271DF2C";
name = "May 4, 23, 23:33";
shapes = (
{
closed = 1;
nodes = (
(883,-24,o),
(1142,190,o),
(1198,528,cs),
(1254,865,o),
(1058,1080,o),
(714,1080,cs),
(371,1080,o),
(102,865,o),
(46,528,cs),
(-10,189,o),
(196,-24,o),
(539,-24,cs)
);
},
{
closed = 1;
nodes = (
(488,288,o),
(424,369,o),
(450,528,cs),
(477,687,o),
(575,768,o),
(670,768,cs),
(765,768,o),
(821,687,o),
(794,528,cs),
(768,369,o),
(678,288,o),
(583,288,cs)
);
}
);
width = 1244;
}
);
metricRight = "=|o";
unicode = 111;
userData = {
com.typemytype.robofont.guideline.magnetic.k4vPhVkDP6 = 5;
"interface.width-adjustments" = (
-16
);
};
}
{
glyphname = r;
kernLeft = m;
kernRight = r;
layers = (
{
anchors = (
{
name = bottom;
pos = (155,0);
},
{
name = bottomr;
pos = (246,0);
},
{
name = cross;
pos = (246,536);
},
{
name = top;
pos = (520,1118);
}
);
layerId = "11F4534A-B963-4AB5-820F-DAF9A20CD933";
name = ital_gen;
shapes = (
{
closed = 1;
nodes = (
(246,0,l),
(362,700,ls),
(387,851,o),
(523,960,o),
(684,960,cs),
(728,960,o),
(774,953,o),
(790,950,c),
(820,1131,l),
(799,1132,o),
(756,1134,o),
(730,1134,cs),
(597,1134,o),
(468,1059,o),
(409,946,c),
(397,946,l),
(425,1118,l),
(251,1118,l),
(66,0,l)
);
}
);
width = 772;
},
{
anchors = (
{
name = bottom;
pos = (214,0);
},
{
name = bottomr;
pos = (412,0);
},
{
name = cross;
pos = (299,536);
},
{
name = top;
pos = (575,1118);
}
);
layerId = "D0EC06BF-13F9-4C88-A6F5-B8203AF6C77E";
name = ital_gen;
shapes = (
{
closed = 1;
nodes = (
(412,0,l),
(508,582,ls),
(530,710,o),
(630,794,o),
(749,794,cs),
(790,794,o),
(856,788,o),
(894,774,c),
(951,1116,l),
(920,1126,o),
(886,1132,o),
(851,1132,c),
(732,1132,o),
(628,1062,o),
(562,904,c),
(550,904,l),
(585,1118,l),
(195,1118,l),
(10,0,l)
);
}
);
width = 889;
},
{
anchors = (
{
name = bottom;
pos = (130,0);
},
{
name = bottomr;
pos = (152,0);
},
{
name = cross;
pos = (219,536);
},
{
name = top;
pos = (521,1118);
}
);
layerId = "200BE2C5-40F6-4CF4-AF4F-A33C0CC0964F";
name = ital_gen;
shapes = (
{
closed = 1;
nodes = (
(152,0,l),
(276,750,ls),
(308,945,o),
(475,1086,o),
(672,1086,cs),
(684,1086,o),
(689,1086,o),
(696,1086,c),
(703,1132,l),
(691,1132,o),
(691,1132,o),
(679,1132,cs),
(526,1132,o),
(386,1056,o),
(314,940,c),
(308,940,l),
(337,1118,l),
(291,1118,l),
(106,0,l)
);
}
);
width = 667;
},
{
anchors = (
{
name = bottom;
pos = (123,0);
},
{
name = bottomr;
pos = (209,0);
},
{
name = cross;
pos = (214,536);
},
{
name = top;
pos = (455,1056);
}
);
layerId = m008;
name = ital_gen;
shapes = (
{
closed = 1;
nodes = (
(209,0,l),
(317,650,ls),
(346,829,o),
(460,908,o),
(577,908,cs),
(626,908,o),
(666,900,o),
(679,896,c),
(707,1066,l),
(694,1068,o),
(667,1072,o),
(636,1072,cs),
(504,1072,o),
(409,999,o),
(352,890,c),
(348,890,l),
(376,1056,l),
(214,1056,l),
(39,0,l)
);
}
);
width = 660;
},
{
anchors = (
{
name = bottom;
pos = (199,0);
},
{
name = bottomr;
pos = (399,0);
},
{
name = cross;
pos = (287,528);
},
{
name = top;
pos = (554,1056);
}
);
layerId = m010;
name = ital_gen;
shapes = (
{
closed = 1;
nodes = (
(399,0,l),
(483,506,ls),
(506,647,o),
(600,736,o),
(725,736,cs),
(775,736,o),
(843,736,o),
(871,736,c),
(924,1056,l),
(892,1056,o),
(862,1056,o),
(824,1056,cs),
(679,1056,o),
(594,1006,o),
(532,864,c),
(530,864,l),
(562,1056,l),
(174,1056,l),
(-1,0,l)
);
}
);
width = 853;
},
{
anchors = (
{
name = bottom;
pos = (71,0);
},
{
name = bottomr;
pos = (93,0);
},
{
name = cross;
pos = (160,536);
},
{
name = top;
pos = (452,1056);
}
);
layerId = m012;
name = ital_gen;
shapes = (
{
closed = 1;
nodes = (
(93,0,l),
(206,680,ls),
(238,875,o),
(404,1016,o),
(601,1016,cs),
(613,1016,o),
(617,1016,o),
(625,1016,c),
(633,1062,l),
(621,1062,o),
(621,1062,o),
(609,1062,cs),
(456,1062,o),
(309,984,o),
(236,859,c),
(235,859,l),
(268,1056,l),
(222,1056,l),
(47,0,l)
);
}
);
width = 539;
}
);
metricLeft = n;
unicode = 114;
}
{
glyphname = t;
kernLeft = t;
kernRight = t;
layers = (
{
anchors = (
{
name = raccent;
pos = (651,1562);
}
);
layerId = "11F4534A-B963-4AB5-820F-DAF9A20CD933";
name = ital_gen;
shapes = (
{
pos = (-43,0);
ref = _part.t_base;
},
{
closed = 1;
nodes = (
(113,1118,l),
(88,964,l),
(666,964,l),
(691,1118,l)
);
}
);
width = 672;
},
{
anchors = (
{
name = raccent;
pos = (861,1562);
}
);
layerId = "D0EC06BF-13F9-4C88-A6F5-B8203AF6C77E";
name = ital_gen;
shapes = (
{
pos = (-11,0);
ref = _part.t_base;
},
{
closed = 1;
nodes = (
(113,1118,l),
(65,826,l),
(801,826,l),
(849,1118,l)
);
}
);
width = 820;
},
{
anchors = (
{
name = raccent;
pos = (277,1526);
}
);
layerId = "200BE2C5-40F6-4CF4-AF4F-A33C0CC0964F";
name = ital_gen;
shapes = (
{
pos = (-93,0);
ref = _part.t_base;
},
{
closed = 1;
nodes = (
(103,1118,l),
(95,1072,l),
(537,1072,l),
(545,1118,l)
);
}
);
width = 494;
},
{
anchors = (
{
name = raccent;
pos = (658,1490);
}
);
background = {
shapes = (
{
pos = (5,0);
ref = f;
}
);
};
layerId = m008;
name = ital_gen;
shapes = (
{
pos = (3,0);
ref = _part.t_base;
},
{
closed = 1;
nodes = (
(102,1056,l),
(78,910,l),
(650,910,l),
(674,1056,l)
);
}
);
width = 637;
},
{
anchors = (
{
name = raccent;
pos = (890,1490);
}
);
layerId = m010;
name = ital_gen;
shapes = (
{
pos = (41,0);
ref = _part.t_base;
},
{
closed = 1;
nodes = (
(108,1056,l),
(57,752,l),
(853,752,l),
(904,1056,l)
);
}
);
width = 857;
},
{
anchors = (
{
name = raccent;
pos = (512,1490);
}
);
layerId = m012;
name = ital_gen;
shapes = (
{
pos = (-39,0);
ref = _part.t_base;
},
{
closed = 1;
nodes = (
(88,1056,l),
(80,1010,l),
(522,1010,l),
(530,1056,l)
);
}
);
width = 474;
}
);
unicode = 116;
userData = {
com.typemytype.robofont.guideline.magnetic.y5AZhPlfwM = 5;
"interface.width-adjustments" = (
-16
);
};
}
{
glyphname = u;
kernLeft = u;
kernRight = u;
layers = (
{
anchors = (
{
name = bottom;
pos = (514,0);
},
{
name = ogonek;
pos = (961,0);
},
{
name = rtophorn;
pos = (965,1118);
},
{
name = top;
pos = (698,1118);
}
);
layerId = "11F4534A-B963-4AB5-820F-DAF9A20CD933";
name = ital_gen;
shapes = (
{
closed = 1;
nodes = (
(608,-14,o),
(753,62,o),
(856,271,c),
(832,271,l),
(787,0,l),
(961,0,l),
(1146,1118,l),
(965,1118,l),
(855,448,ls),
(823,253,o),
(680,148,o),
(523,148,cs),
(366,148,o),
(289,252,o),
(317,423,cs),
(431,1118,l),
(251,1118,l),
(134,408,ls),
(87,123,o),
(219,-14,o),
(443,-14,cs)
);
}
);
width = 1212;
},
{
anchors = (
{
name = bottom;
pos = (589,0);
},
{
name = ogonek;
pos = (1136,0);
},
{
name = rtophorn;
pos = (919,1118);
},
{
name = top;
pos = (759,1118);
}
);
layerId = "D0EC06BF-13F9-4C88-A6F5-B8203AF6C77E";
name = ital_gen;
shapes = (
{
closed = 1;
nodes = (
(603,-14,o),
(731,117,o),
(810,286,c),
(798,286,l),
(759,0,l),
(1136,0,l),
(1321,1118,l),
(919,1118,l),
(815,490,ls),
(797,379,o),
(723,312,o),
(624,312,cs),
(523,312,o),
(475,379,o),
(493,490,cs),
(597,1118,l),
(195,1118,l),
(77,406,ls),
(37,162,o),
(161,-14,o),
(398,-14,cs)
);
}
);
width = 1331;
},
{
anchors = (
{
name = bottom;
pos = (506,0);
},
{
name = ogonek;
pos = (906,0);
},
{
name = rtophorn;
pos = (1045,1118);
},
{
name = top;
pos = (691,1118);
}
);
layerId = "200BE2C5-40F6-4CF4-AF4F-A33C0CC0964F";
name = ital_gen;
shapes = (
{
closed = 1;
nodes = (
(671,-16,o),
(835,69,o),
(912,240,c),
(900,240,l),
(860,0,l),
(906,0,l),
(1091,1118,l),
(1045,1118,l),
(921,368,ls),
(889,172,o),
(709,30,o),
(501,30,cs),
(298,30,o),
(179,165,o),
(213,368,cs),
(337,1118,l),
(291,1118,l),
(167,368,ls),
(129,139,o),
(272,-16,o),
(501,-16,cs)
);
}
);
width = 1197;
},
{
anchors = (
{
name = bottom;
pos = (481,0);
},
{
name = ogonek;
pos = (907,0);
},
{
name = rtophorn;
pos = (912,1056);
},
{
name = top;
pos = (648,1056);
}
);
guides = (
{
orientation = center;
angle = 80.6;
pos = (-7012,1476);
}
);
layerId = m008;
name = ital_gen;
shapes = (
{
closed = 1;
nodes = (
(591,-20,o),
(731,66,o),
(831,256,c),
(783,256,l),
(741,0,l),
(907,0,l),
(1082,1056,l),
(912,1056,l),
(810,438,ls),
(775,225,o),
(636,136,o),
(482,136,cs),
(324,136,o),
(247,229,o),
(277,412,cs),
(384,1056,l),
(214,1056,l),
(105,400,ls),
(58,119,o),
(211,-20,o),
(424,-20,cs)
);
}
);
width = 1121;
},
{
anchors = (
{
name = bottom;
pos = (569,0);
},
{
name = ogonek;
pos = (1092,0);
},
{
name = rtophorn;
pos = (867,1056);
},
{
name = top;
pos = (720,1056);
}
);
layerId = m010;
name = ital_gen;
shapes = (
{
closed = 1;
nodes = (
(564,-24,o),
(702,107,o),
(797,291,c),
(745,291,l),
(697,0,l),
(1092,0,l),
(1267,1056,l),
(867,1056,l),
(774,496,ls),
(754,374,o),
(691,314,o),
(597,314,cs),
(503,314,o),
(460,374,o),
(477,480,cs),
(573,1056,l),
(173,1056,l),
(63,390,ls),
(21,136,o),
(115,-24,o),
(350,-24,cs)
);
}
);
width = 1266;
},
{
anchors = (
{
name = bottom;
pos = (447,0);
},
{
name = ogonek;
pos = (847,0);
},
{
name = rtophorn;
pos = (976,1056);
},
{
name = top;
pos = (622,1056);
}
);
layerId = m012;
name = ital_gen;
shapes = (
{
closed = 1;
nodes = (
(612,-16,o),
(776,69,o),
(853,240,c),
(841,240,l),
(801,0,l),
(847,0,l),
(1022,1056,l),
(976,1056,l),
(862,368,ls),
(830,172,o),
(650,30,o),
(442,30,cs),
(239,30,o),
(120,165,o),
(154,368,cs),
(268,1056,l),
(222,1056,l),
(108,368,ls),
(70,139,o),
(213,-16,o),
(442,-16,cs)
);
}
);
width = 1069;
}
);
metricLeft = "=|n";
metricRight = "=|n";
unicode = 117;
userData = {
com.typemytype.robofont.guideline.magnetic.nBhGDD3LHZ = 5;
"interface.width-adjustments" = (
-16
);
};
}
{
glyphname = w;
kernLeft = w;
kernRight = w;
layers = (
{
anchors = (
{
name = bottom;
pos = (746,0);
},
{
name = top;
pos = (931,1118);
}
);
guides = (
{
orientation = center;
angle = 80.6;
pos = (306,1108);
}
);
layerId = "11F4534A-B963-4AB5-820F-DAF9A20CD933";
name = ital_gen;
shapes = (
{
closed = 1;
nodes = (
(496,0,l),
(724,505,ls),
(790,651,o),
(860,820,o),
(931,998,c),
(892,998,l),
(904,817,o),
(918,647,o),
(935,506,cs),
(996,0,l),
(1175,0,l),
(1699,1118,l),
(1508,1118,l),
(1291,630,ls),
(1227,486,o),
(1157,322,o),
(1083,117,c),
(1115,117,l),
(1108,332,o),
(1094,496,o),
(1080,630,cs),
(1029,1118,l),
(837,1118,l),
(622,630,ls),
(559,487,o),
(490,321,o),
(417,117,c),
(448,117,l),
(440,332,o),
(424,497,o),
(409,630,cs),
(354,1118,l),
(163,1118,l),
(317,0,l)
);
}
);
width = 1676;
},
{
anchors = (
{
name = bottom;
pos = (796,0);
},
{
name = top;
pos = (989,1118);
}
);
layerId = "D0EC06BF-13F9-4C88-A6F5-B8203AF6C77E";
name = ital_gen;
shapes = (
{
closed = 1;
nodes = (
(640,0,l),
(807,368,ls),
(855,474,o),
(919,677,o),
(967,792,c),
(903,792,l),
(913,677,o),
(910,474,o),
(923,368,cs),
(968,0,l),
(1380,0,l),
(1891,1118,l),
(1463,1118,l),
(1341,768,ls),
(1285,608,o),
(1222,432,o),
(1163,224,c),
(1198,224,l),
(1202,432,o),
(1184,608,o),
(1178,768,cs),
(1165,1118,l),
(817,1118,l),
(684,768,ls),
(624,609,o),
(550,432,o),
(484,224,c),
(521,224,l),
(530,432,o),
(520,608,o),
(517,768,cs),
(511,1118,l),
(91,1118,l),
(228,0,l)
);
}
);
width = 1796;
},
{
anchors = (
{
name = bottom;
pos = (736,0);
},
{
name = top;
pos = (921,1118);
}
);
layerId = "200BE2C5-40F6-4CF4-AF4F-A33C0CC0964F";
name = ital_gen;
shapes = (
{
closed = 1;
nodes = (
(387,0,l),
(813,864,ls),
(852,944,o),
(889,1018,o),
(927,1098,c),
(909,1098,l),
(921,1018,o),
(932,944,o),
(945,864,cs),
(1085,0,l),
(1149,0,l),
(1660,1118,l),
(1613,1118,l),
(1234,288,ls),
(1192,197,o),
(1156,115,o),
(1116,24,c),
(1126,24,l),
(1113,115,o),
(1100,198,o),
(1086,288,cs),
(951,1118,l),
(891,1118,l),
(482,288,ls),
(437,198,o),
(397,115,o),
(354,24,c),
(364,24,l),
(354,115,o),
(345,197,o),
(334,288,cs),
(229,1118,l),
(182,1118,l),
(323,0,l)
);
}
);
width = 1656;
},
{
anchors = (
{
name = bottom;
pos = (682,0);
},
{
name = top;
pos = (857,1056);
}
);
guides = (
{
orientation = center;
angle = 80.6;
pos = (-8448,1108);
}
);
layerId = m008;
metricLeft = "=v";
metricRight = "=v";
name = ital_gen;
shapes = (
{
closed = 1;
nodes = (
(444,0,l),
(665,480,ls),
(731,623,o),
(794,777,o),
(857,921,c),
(812,921,l),
(828,777,o),
(839,623,o),
(857,480,cs),
(916,0,l),
(1094,0,l),
(1597,1056,l),
(1411,1056,l),
(1198,592,ls),
(1132,449,o),
(1069,297,o),
(1005,153,c),
(1032,153,l),
(1017,297,o),
(1005,449,o),
(988,592,cs),
(933,1056,l),
(765,1056,l),
(554,592,ls),
(489,449,o),
(426,297,o),
(363,153,c),
(387,153,l),
(372,297,o),
(360,449,o),
(343,592,cs),
(287,1056,l),
(117,1056,l),
(270,0,l)
);
}
);
width = 1540;
},
{
anchors = (
{
name = bottom;
pos = (808,0);
},
{
name = top;
pos = (983,1056);
}
);
layerId = m010;
metricLeft = "=v";
metricRight = "=v";
name = ital_gen;
shapes = (
{
closed = 1;
nodes = (
(644,0,l),
(814,368,ls),
(863,474,o),
(909,589,o),
(957,704,c),
(893,704,l),
(903,589,o),
(910,474,o),
(924,368,cs),
(972,0,l),
(1384,0,l),
(1883,1056,l),
(1455,1056,l),
(1345,768,ls),
(1284,608,o),
(1226,432,o),
(1166,264,c),
(1217,264,l),
(1206,432,o),
(1196,609,o),
(1182,768,cs),
(1157,1056,l),
(809,1056,l),
(688,768,ls),
(622,609,o),
(554,432,o),
(487,264,c),
(540,264,l),
(534,432,o),
(531,609,o),
(521,768,cs),
(503,1056,l),
(83,1056,l),
(232,0,l)
);
}
);
width = 1792;
},
{
anchors = (
{
name = bottom;
pos = (651,0);
},
{
name = top;
pos = (826,1056);
}
);
layerId = m012;
metricLeft = "=v";
metricRight = "=v";
name = ital_gen;
shapes = (
{
closed = 1;
nodes = (
(319,0,l),
(745,864,ls),
(774,923,o),
(802,981,o),
(830,1040,c),
(811,1040,l),
(820,981,o),
(828,923,o),
(838,864,cs),
(978,0,l),
(1042,0,l),
(1525,1056,l),
(1476,1056,l),
(1125,288,ls),
(1083,197,o),
(1043,107,o),
(1003,16,c),
(1019,16,l),
(1005,107,o),
(991,197,o),
(976,288,cs),
(852,1056,l),
(791,1056,l),
(412,288,ls),
(367,197,o),
(324,107,o),
(280,16,c),
(296,16,l),
(285,107,o),
(276,197,o),
(265,288,cs),
(169,1056,l),
(122,1056,l),
(255,0,l)
);
}
);
width = 1473;
}
);
metricRight = "=|w";
unicode = 119;
userData = {
com.typemytype.robofont.guideline.magnetic.p3iasCA57f = 5;
"interface.width-adjustments" = (
-16
);
};
}
{
glyphname = y;
kernLeft = v;
kernRight = v;
layers = (
{
anchors = (
{
name = bottom;
pos = (764,0);
},
{
name = ogonek;
pos = (574,0);
},
{
name = top;
pos = (668,1118);
}
);
background = {
shapes = (
{
pos = (-1,0);
ref = v;
}
);
};
guides = (
{
orientation = center;
angle = 80.6;
pos = (-2629,1488);
}
);
layerId = "11F4534A-B963-4AB5-820F-DAF9A20CD933";
name = ital_gen;
shapes = (
{
closed = 1;
nodes = (
(-1,-415,o),
(49,-426,o),
(108,-426,cs),
(267,-426,o),
(389,-344,o),
(486,-167,cs),
(1190,1118,l),
(985,1118,l),
(636,455,ls),
(563,317,o),
(510,179,o),
(450,51,c),
(516,51,l),
(499,179,o),
(491,317,o),
(464,455,cs),
(335,1118,l),
(147,1118,l),
(388,-6,l),
(341,-99,ls),
(261,-257,o),
(180,-279,o),
(70,-253,cs),
(53,-249,l),
(-19,-405,l)
);
}
);
width = 1151;
},
{
anchors = (
{
name = bottom;
pos = (942,0);
},
{
name = ogonek;
pos = (773,0);
},
{
name = top;
pos = (748,1118);
}
);
background = {
shapes = (
{
pos = (9,0);
ref = v;
}
);
};
layerId = "D0EC06BF-13F9-4C88-A6F5-B8203AF6C77E";
name = ital_gen;
shapes = (
{
closed = 1;
nodes = (
(6,-412,o),
(98,-426,o),
(190,-426,cs),
(471,-426,o),
(621,-285,o),
(720,-102,cs),
(1383,1118,l),
(959,1118,l),
(715,608,ls),
(643,457,o),
(584,307,o),
(519,120,c),
(592,120,l),
(588,307,o),
(597,455,o),
(580,608,cs),
(519,1118,l),
(105,1118,l),
(334,-1,l),
(340,-33,ls),
(353,-103,o),
(257,-151,o),
(132,-116,cs),
(82,-102,l),
(-53,-388,l)
);
}
);
width = 1302;
},
{
anchors = (
{
name = bottom;
pos = (666,0);
},
{
name = ogonek;
pos = (494,0);
},
{
name = top;
pos = (649,1118);
}
);
background = {
anchors = (
{
name = bottom;
pos = (558,0);
},
{
name = top;
pos = (558,1118);
}
);
};
layerId = "200BE2C5-40F6-4CF4-AF4F-A33C0CC0964F";
name = ital_gen;
shapes = (
{
closed = 1;
nodes = (
(16,-417,o),
(58,-426,o),
(95,-426,cs),
(205,-426,o),
(302,-352,o),
(379,-212,cs),
(1107,1118,l),
(1055,1118,l),
(627,336,ls),
(568,229,o),
(513,123,o),
(457,16,c),
(469,16,l),
(450,123,o),
(431,229,o),
(408,336,cs),
(240,1118,l),
(193,1118,l),
(438,-14,l),
(339,-195,ls),
(251,-356,o),
(138,-419,o),
(10,-362,cs),
(1,-358,l),
(-24,-398,l)
);
}
);
width = 1114;
},
{
anchors = (
{
name = bottom;
pos = (709,0);
},
{
name = ogonek;
pos = (517,0);
},
{
name = top;
pos = (603,1056);
}
);
background = {
shapes = (
{
ref = v;
}
);
};
guides = (
{
orientation = center;
angle = 80.6;
pos = (-8705,1488);
}
);
layerId = m008;
name = ital_gen;
shapes = (
{
closed = 1;
nodes = (
(12,-418,o),
(46,-418,o),
(81,-418,cs),
(209,-418,o),
(335,-333,o),
(411,-196,cs),
(1105,1056,l),
(916,1056,l),
(591,448,ls),
(537,347,o),
(483,245,o),
(433,144,c),
(478,144,l),
(461,245,o),
(441,347,o),
(420,448,cs),
(293,1056,l),
(117,1056,l),
(352,9,l),
(270,-141,ls),
(222,-229,o),
(171,-268,o),
(106,-268,cs),
(2,-268,l),
(-23,-418,l)
);
}
);
width = 1048;
},
{
anchors = (
{
name = bottom;
pos = (894,0);
},
{
name = ogonek;
pos = (725,0);
},
{
name = top;
pos = (659,1056);
}
);
background = {
shapes = (
{
ref = v;
}
);
};
layerId = m010;
name = ital_gen;
shapes = (
{
closed = 1;
nodes = (
(58,-418,o),
(154,-418,o),
(242,-418,cs),
(432,-418,o),
(545,-340,o),
(656,-134,cs),
(1299,1056,l),
(871,1056,l),
(659,608,ls),
(592,466,o),
(529,320,o),
(470,176,c),
(587,176,l),
(574,320,o),
(561,465,o),
(542,608,cs),
(483,1056,l),
(83,1056,l),
(313,0,l),
(305,-16,ls),
(268,-89,o),
(254,-114,o),
(180,-114,cs),
(20,-114,l),
(-30,-418,l)
);
}
);
width = 1208;
},
{
anchors = (
{
name = bottom;
pos = (574,0);
},
{
name = ogonek;
pos = (440,0);
},
{
name = top;
pos = (586,1056);
}
);
layerId = m012;
name = ital_gen;
shapes = (
{
closed = 1;
nodes = (
(-3,-418,o),
(9,-418,o),
(46,-418,cs),
(174,-418,o),
(225,-377,o),
(320,-211,cs),
(1050,1056,l),
(998,1056,l),
(583,336,ls),
(524,234,o),
(466,132,o),
(407,30,c),
(422,30,l),
(398,132,o),
(373,234,o),
(348,336,cs),
(168,1056,l),
(122,1056,l),
(388,-8,l),
(280,-195,ls),
(194,-344,o),
(159,-372,o),
(53,-372,cs),
(-35,-372,l),
(-42,-418,l)
);
}
);
width = 998;
},
{
anchors = (
{
name = bottom;
pos = (898,0);
},
{
name = ogonek;
pos = (745,0);
},
{
name = top;
pos = (679,1056);
}
);
associatedMasterId = m010;
layerId = "E931D47C-9CB9-4041-9F7F-FDFFE4D9BE0C";
name = "May 5, 23, 10:12";
shapes = (
{
closed = 1;
nodes = (
(452,-418,o),
(568,-340,o),
(676,-134,cs),
(1299,1056,l),
(887,1056,l),
(687,608,ls),
(623,465,o),
(564,320,o),
(503,176,c),
(598,176,l),
(583,320,o),
(571,465,o),
(554,608,cs),
(499,1056,l),
(83,1056,l),
(286,0,l),
(278,-16,ls),
(243,-89,o),
(227,-114,o),
(153,-114,cs),
(40,-114,l),
(-10,-418,l),
(78,-418,o),
(174,-418,o),
(262,-418,cs)
);
}
);
width = 1208;
}
);
metricLeft = v;
metricRight = v;
unicode = 121;
userData = {
com.typemytype.robofont.guideline.magnetic.lsCjxlYELh = 5;
"interface.width-adjustments" = (
-16
);
};
}
{
glyphname = braceleft;
kernLeft = parenleft;
kernRight = parenleft;
layers = (
{
guides = (
{
name = "Mid center";
pos = (1,651);
}
);
layerId = "11F4534A-B963-4AB5-820F-DAF9A20CD933";
shapes = (
{
closed = 1;
nodes = (
(485,646,o),
(561,752,o),
(586,901,cs),
(634,1187,ls),
(662,1354,o),
(726,1431,o),
(895,1430,c),
(920,1581,l),
(633,1581,o),
(514,1462,o),
(469,1190,cs),
(431,960,ls),
(405,803,o),
(339,741,o),
(175,741,c),
(160,646,l)
);
},
{
closed = 1;
nodes = (
(638,-130,l),
(468,-130,o),
(428,-54,o),
(456,115,cs),
(503,399,ls),
(528,550,o),
(483,656,o),
(162,656,c),
(146,561,l),
(310,560,o),
(354,496,o),
(328,340,cs),
(290,112,ls),
(244,-164,o),
(328,-279,o),
(612,-279,c)
);
},
{
closed = 1;
nodes = (
(325,560,l),
(356,742,l),
(176,742,l),
(146,560,l)
);
}
);
width = 875;
},
{
guides = (
{
name = "Mid center";
pos = (1,651);
}
);
layerId = "D0EC06BF-13F9-4C88-A6F5-B8203AF6C77E";
shapes = (
{
closed = 1;
nodes = (
(664,627,o),
(778,804,o),
(802,949,cs),
(828,1109,ls),
(848,1231,o),
(897,1289,o),
(1072,1289,c),
(1120,1581,l),
(820,1581,o),
(532,1580,o),
(463,1161,cs),
(441,1033,ls),
(418,890,o),
(350,825,o),
(181,825,c),
(148,627,l)
);
},
{
closed = 1;
nodes = (
(861,13,l),
(686,13,o),
(656,71,o),
(676,193,cs),
(703,353,ls),
(727,498,o),
(672,675,o),
(156,675,c),
(123,477,l),
(292,477,o),
(339,412,o),
(315,269,cs),
(294,141,ls),
(224,-278,o),
(512,-279,o),
(812,-279,c)
);
},
{
closed = 1;
nodes = (
(463,477,l),
(521,825,l),
(181,825,l),
(123,477,l)
);
}
);
width = 1035;
},
{
guides = (
{
name = "Mid center";
pos = (0,651);
}
);
layerId = "200BE2C5-40F6-4CF4-AF4F-A33C0CC0964F";
shapes = (
{
closed = 1;
nodes = (
(378,629,o),
(458,698,o),
(490,889,cs),
(553,1271,ls),
(584,1457,o),
(662,1536,o),
(814,1536,c),
(821,1582,l),
(641,1582,o),
(541,1482,o),
(506,1271,cs),
(443,889,ls),
(416,723,o),
(359,675,o),
(191,675,c),
(184,629,l)
);
},
{
closed = 1;
nodes = (
(521,-234,l),
(369,-234,o),
(317,-154,o),
(348,31,cs),
(411,413,ls),
(442,604,o),
(385,675,o),
(191,675,c),
(184,629,l),
(352,629,o),
(391,579,o),
(364,413,cs),
(301,31,ls),
(266,-179,o),
(333,-280,o),
(513,-280,c)
);
},
{
closed = 1;
nodes = (
(340,629,l),
(347,675,l),
(191,675,l),
(184,629,l)
);
}
);
width = 810;
},
{
associatedMasterId = "200BE2C5-40F6-4CF4-AF4F-A33C0CC0964F";
layerId = "E1153A20-61E3-4E8B-B4AA-0B11F14B2800";
name = "Dec 27 18, 14:59";
shapes = (
{
closed = 0;
nodes = (
(146,634,l),
(349,634,o),
(399,716,o),
(424,872,cs),
(486,1248,ls),
(521,1452,o),
(614,1536,o),
(776,1536,c)
);
},
{
closed = 0;
nodes = (
(474,-280,l),
(314,-279,o),
(247,-195,o),
(282,8,cs),
(344,384,ls),
(369,541,o),
(346,623,o),
(146,622,c)
);
}
);
width = 646;
},
{
background = {
guides = (
{
pos = (717,1480);
},
{
pos = (753,864);
}
);
shapes = (
{
pos = (-1,0);
ref = bracketleft;
}
);
};
guides = (
{
angle = -9.4;
pos = (-271,2144);
},
{
angle = -9.4;
pos = (-271,-416);
},
{
angle = -9.4;
name = "Mid center";
pos = (-31,636);
}
);
layerId = m008;
name = ital_gen;
shapes = (
{
closed = 1;
nodes = (
(440.244,608,o),
(528.938,733,o),
(553.935,884,cs),
(602.276,1176,ls),
(630.419,1346,o),
(687.67,1420,o),
(856.67,1420,c),
(880.84,1566,l),
(595.84,1566,o),
(482.477,1443,o),
(438.276,1176,cs),
(399.537,942,ls),
(373.215,783,o),
(307.116,722,o),
(145.116,722,c),
(126.244,608,l)
);
},
{
closed = 1;
nodes = (
(597.089,-148,l),
(428.089,-148,o),
(395.174,-75,o),
(423.483,96,cs),
(471.492,386,ls),
(496.324,536,o),
(449.515,664,o),
(135.515,664,c),
(116.642,550,l),
(278.477,549,o),
(324.212,487,o),
(297.89,328,cs),
(259.483,96,ls),
(215.116,-172,o),
(287.919,-294,o),
(572.919,-294,c)
);
},
{
closed = 1;
nodes = (
(290.477,549,l),
(319.282,723,l),
(145.282,723,l),
(116.477,549,l)
);
}
);
width = 788;
},
{
background = {
guides = (
{
pos = (1197,792);
}
);
shapes = (
{
pos = (-15,0);
ref = bracketleft;
}
);
};
guides = (
{
angle = -9.4;
pos = (1105,-464);
},
{
angle = -9.4;
name = "Mid center";
pos = (-15,636);
}
);
layerId = m010;
name = ital_gen;
shapes = (
{
closed = 1;
nodes = (
(648.257,596,o),
(777.559,773,o),
(801.564,918,cs),
(830.701,1094,ls),
(853.712,1233,o),
(901.837,1270,o),
(1057.837,1270,c),
(1106.84,1566,l),
(806.84,1566,o),
(518.674,1565,o),
(449.309,1146,cs),
(428.119,1018,ls),
(404.445,875,o),
(336.685,810,o),
(167.685,810,c),
(132.257,596,l)
);
},
{
closed = 1;
nodes = (
(847.921,2,l),
(691.921,2,o),
(656.047,39,o),
(679.058,178,cs),
(708.194,354,ls),
(732.199,499,o),
(661.501,676,o),
(145.501,676,c),
(110.074,462,l),
(279.074,462,o),
(325.313,397,o),
(301.64,254,cs),
(280.449,126,ls),
(211.084,-293,o),
(498.919,-294,o),
(798.919,-294,c)
);
},
{
closed = 1;
nodes = (
(470.074,462,l),
(527.685,810,l),
(167.685,810,l),
(110.074,462,l)
);
}
);
width = 995;
},
{
guides = (
{
angle = -9.4;
pos = (-140,2144);
},
{
angle = -9.4;
pos = (-140,-416);
},
{
angle = -9.4;
name = "Mid center";
pos = (-64,636);
}
);
layerId = m012;
name = ital_gen;
shapes = (
{
closed = 1;
nodes = (
(316.237,614,o),
(395.66,683,o),
(427.28,874,cs),
(490.52,1256,ls),
(521.312,1442,o),
(600.39,1521,o),
(752.39,1521,c),
(760.005,1567,l),
(580.005,1567,o),
(479.45,1467,o),
(444.52,1256,cs),
(381.28,874,ls),
(353.799,708,o),
(297.852,660,o),
(129.852,660,c),
(122.237,614,l)
);
},
{
closed = 1;
nodes = (
(459.368,-249,l),
(307.368,-249,o),
(254.612,-169,o),
(285.239,16,cs),
(348.479,398,ls),
(380.098,589,o),
(323.852,660,o),
(129.852,660,c),
(122.237,614,l),
(290.237,614,o),
(329.96,564,o),
(302.479,398,cs),
(239.239,16,ls),
(204.474,-194,o),
(271.753,-295,o),
(451.753,-295,c)
);
},
{
closed = 1;
nodes = (
(270.237,614,l),
(277.852,660,l),
(129.852,660,l),
(122.237,614,l)
);
}
);
width = 682;
}
);
metricLeft = hyphen;
metricRight = bracketleft;
unicode = 123;
}
{
glyphname = bar;
kernLeft = B;
kernRight = H;
layers = (
{
layerId = "11F4534A-B963-4AB5-820F-DAF9A20CD933";
shapes = (
{
closed = 1;
nodes = (
(494,1970,l),
(90,-480,l),
(247,-480,l),
(651,1970,l)
);
}
);
width = 681;
},
{
guides = (
{
pos = (340,1240);
},
{
pos = (26,764);
}
);
layerId = "D0EC06BF-13F9-4C88-A6F5-B8203AF6C77E";
shapes = (
{
closed = 1;
nodes = (
(452,1970,l),
(46,-480,l),
(440,-480,l),
(846,1970,l)
);
}
);
width = 830;
},
{
layerId = "200BE2C5-40F6-4CF4-AF4F-A33C0CC0964F";
shapes = (
{
closed = 1;
nodes = (
(490,1970,l),
(84,-480,l),
(130,-480,l),
(536,1970,l)
);
}
);
width = 558;
},
{
layerId = m008;
name = ital_gen;
shapes = (
{
closed = 1;
nodes = (
(468.722,1970,l),
(63.127,-480,l),
(209.127,-480,l),
(614.722,1970,l)
);
}
);
width = 606;
},
{
guides = (
{
angle = -9.4;
pos = (-128,1240);
},
{
angle = -9.4;
pos = (-128,764);
}
);
layerId = m010;
name = ital_gen;
shapes = (
{
closed = 1;
nodes = (
(440.722,1970,l),
(35.127,-480,l),
(427.127,-480,l),
(832.722,1970,l)
);
}
);
width = 798;
},
{
layerId = m012;
name = ital_gen;
shapes = (
{
closed = 1;
nodes = (
(430.722,1970,l),
(25.127,-480,l),
(71.127,-480,l),
(476.722,1970,l)
);
}
);
width = 430;
}
);
unicode = 124;
userData = {
"interface.width-adjustments" = (
-16
);
};
}
{
glyphname = cent;
kernLeft = o;
kernRight = o;
layers = (
{
layerId = "11F4534A-B963-4AB5-820F-DAF9A20CD933";
name = ital_gen;
shapes = (
{
closed = 1;
nodes = (
(569,0,l),
(816,1490,l),
(698,1490,l),
(451,0,l)
);
},
{
pos = (32,190);
ref = c;
}
);
width = 1171;
},
{
guides = (
{
orientation = center;
angle = 80.6;
pos = (-379,1372);
}
);
layerId = "D0EC06BF-13F9-4C88-A6F5-B8203AF6C77E";
name = ital_gen;
shapes = (
{
closed = 1;
nodes = (
(611,0,l),
(858,1490,l),
(738,1490,l),
(491,0,l)
);
},
{
pos = (31,190);
ref = c;
}
);
width = 1233;
},
{
layerId = "200BE2C5-40F6-4CF4-AF4F-A33C0CC0964F";
name = ital_gen;
shapes = (
{
closed = 1;
nodes = (
(504,0,l),
(751,1490,l),
(705,1490,l),
(458,0,l)
);
},
{
alignment = -1;
pos = (31,190);
ref = c;
}
);
width = 1095;
},
{
guides = (
{
angle = 80.6;
pos = (540,1440);
}
);
layerId = m008;
name = ital_gen;
shapes = (
{
closed = 1;
nodes = (
(543,0,l),
(790,1490,l),
(644,1490,l),
(397,0,l)
);
},
{
pos = (35,216);
ref = c;
}
);
width = 1070;
},
{
guides = (
{
orientation = center;
angle = 80.6;
pos = (-3313,1372);
}
);
layerId = m010;
name = ital_gen;
shapes = (
{
closed = 1;
nodes = (
(581,0,l),
(828,1490,l),
(724,1490,l),
(477,0,l)
);
},
{
pos = (36,217);
ref = c;
}
);
width = 1193;
},
{
layerId = m012;
name = ital_gen;
shapes = (
{
closed = 1;
nodes = (
(463,0,l),
(710,1490,l),
(664,1490,l),
(417,0,l)
);
},
{
alignment = -1;
pos = (36,217);
ref = c;
}
);
width = 1020;
}
);
metricLeft = c;
metricRight = c;
unicode = 162;
userData = {
com.typemytype.robofont.guideline.magnetic.Wyvc05k93r = 5;
"interface.width-adjustments" = (
-16
);
};
}
{
glyphname = currency;
layers = (
{
guides = (
{
angle = 90;
pos = (1464,1696);
},
{
pos = (208,836);
}
);
layerId = "11F4534A-B963-4AB5-820F-DAF9A20CD933";
shapes = (
{
closed = 1;
nodes = (
(969,-20,o),
(1287,251,o),
(1345,609,cs),
(1403,967,o),
(1174,1234,o),
(848,1234,cs),
(519,1234,o),
(210,963,o),
(153,608,c),
(94,253,o),
(313,-20,o),
(642,-20,cs)
);
},
{
closed = 1;
nodes = (
(430,142,o),
(271,353,o),
(315,608,c),
(358,867,o),
(584,1074,o),
(822,1074,cs),
(1060,1074,o),
(1222,866,o),
(1177,606,cs),
(1133,351,o),
(906,142,o),
(668,142,cs)
);
},
{
closed = 1;
nodes = (
(1462,1131,l),
(1360,1255,l),
(1124,1049,l),
(1222,925,l)
);
},
{
closed = 1;
nodes = (
(1290,109,l),
(1122,313,l),
(982,191,l),
(1148,-15,l)
);
},
{
closed = 1;
nodes = (
(380,191,l),
(280,313,l),
(44,109,l),
(141,-15,l)
);
},
{
closed = 1;
nodes = (
(522,1049,l),
(354,1255,l),
(216,1131,l),
(382,925,l)
);
}
);
width = 1484;
},
{
guides = (
{
pos = (176,1240);
},
{
pos = (20,764);
}
);
layerId = "D0EC06BF-13F9-4C88-A6F5-B8203AF6C77E";
shapes = (
{
closed = 1;
nodes = (
(1057,-20,o),
(1386,253,o),
(1446,608,cs),
(1503,963,o),
(1264,1233,o),
(926,1234,cs),
(580,1233,o),
(255,963,o),
(198,608,c),
(138,253,o),
(374,-20,o),
(718,-20,cs)
);
},
{
closed = 1;
nodes = (
(513,189,o),
(359,369,o),
(402,608,c),
(441,849,o),
(653,1027,o),
(894,1026,cs),
(1124,1027,o),
(1284,849,o),
(1246,608,cs),
(1203,369,o),
(985,189,o),
(754,190,cs)
);
},
{
closed = 1;
nodes = (
(1576,1114,l),
(1446,1272,l),
(1202,1064,l),
(1330,908,l)
);
},
{
closed = 1;
nodes = (
(1410,126,l),
(1234,328,l),
(1054,174,l),
(1228,-32,l)
);
},
{
closed = 1;
nodes = (
(450,174,l),
(320,328,l),
(76,126,l),
(204,-32,l)
);
},
{
closed = 1;
nodes = (
(600,1064,l),
(422,1272,l),
(242,1114,l),
(416,908,l)
);
}
);
width = 1624;
},
{
layerId = "200BE2C5-40F6-4CF4-AF4F-A33C0CC0964F";
shapes = (
{
closed = 1;
nodes = (
(927,-20,o),
(1221,250,o),
(1280,608,cs),
(1337,961,o),
(1130,1233,o),
(800,1234,cs),
(473,1233,o),
(183,970,o),
(122,608,cs),
(64,259,o),
(276,-20,o),
(600,-20,cs)
);
},
{
closed = 1;
nodes = (
(303,26,o),
(114,276,o),
(168,608,cs),
(223,938,o),
(499,1187,o),
(798,1186,cs),
(1099,1187,o),
(1290,942,o),
(1234,608,cs),
(1178,283,o),
(902,26,o),
(600,26,cs)
);
},
{
closed = 1;
nodes = (
(1388,1182,l),
(1360,1218,l),
(1154,1038,l),
(1182,1000,l)
);
},
{
closed = 1;
nodes = (
(1192,32,l),
(1048,212,l),
(1014,180,l),
(1160,0,l)
);
},
{
closed = 1;
nodes = (
(244,180,l),
(216,216,l),
(14,36,l),
(40,0,l)
);
},
{
closed = 1;
nodes = (
(386,1036,l),
(242,1216,l),
(208,1184,l),
(352,1004,l)
);
}
);
width = 1394;
},
{
guides = (
{
angle = 80.6;
pos = (712,1696);
},
{
angle = -9.4;
pos = (-116,836);
}
);
layerId = m008;
name = ital_gen;
shapes = (
{
closed = 1;
nodes = (
(942.279,-20,o),
(1254.474,253,o),
(1313.244,608,cs),
(1372.014,963,o),
(1149.712,1233,o),
(820.878,1234,cs),
(491.712,1233,o),
(183.014,963,o),
(123.244,608,c),
(65.474,253,o),
(284.279,-20,o),
(613.279,-20,cs)
);
},
{
closed = 1;
nodes = (
(400.767,140,o),
(241.863,352,o),
(283.244,608,c),
(327.121,867,o),
(555.721,1076,o),
(794.721,1076,cs),
(1033.721,1076,o),
(1191.121,867,o),
(1147.244,608,cs),
(1105.863,352,o),
(878.767,140,o),
(639.767,140,cs)
);
},
{
closed = 1;
nodes = (
(1429.992,1132,l),
(1330.189,1254,l),
(1096.085,1048,l),
(1191.888,926,l)
);
},
{
closed = 1;
nodes = (
(1260.469,108,l),
(1090.241,312,l),
(954.376,192,l),
(1120.272,-14,l)
);
},
{
closed = 1;
nodes = (
(352.376,192,l),
(252.241,312,l),
(18.469,108,l),
(114.272,-14,l)
);
},
{
closed = 1;
nodes = (
(494.085,1048,l),
(324.189,1254,l),
(187.992,1132,l),
(353.888,926,l)
);
}
);
width = 1416;
},
{
guides = (
{
angle = -9.4;
pos = (-76,1240);
},
{
angle = -9.4;
pos = (-76,764);
}
);
layerId = m010;
name = ital_gen;
shapes = (
{
closed = 1;
nodes = (
(1046.279,-20,o),
(1374.474,253,o),
(1435.244,608,cs),
(1492.014,963,o),
(1253.712,1233,o),
(914.878,1234,cs),
(570.712,1233,o),
(244.014,963,o),
(187.244,608,c),
(126.474,253,o),
(363.279,-20,o),
(707.279,-20,cs)
);
},
{
closed = 1;
nodes = (
(502.879,189,o),
(348.678,369,o),
(389.244,608,c),
(428.141,849,o),
(641.609,1027,o),
(880.443,1026,cs),
(1112.609,1027,o),
(1272.141,849,o),
(1233.244,608,cs),
(1192.678,369,o),
(973.879,189,o),
(742.044,190,cs)
);
},
{
closed = 1;
nodes = (
(1565.012,1114,l),
(1433.168,1272,l),
(1190.734,1064,l),
(1318.909,908,l)
);
},
{
closed = 1;
nodes = (
(1401.449,126,l),
(1222.89,328,l),
(1043.396,174,l),
(1217.293,-32,l)
);
},
{
closed = 1;
nodes = (
(439.396,174,l),
(308.89,328,l),
(65.449,126,l),
(193.293,-32,l)
);
},
{
closed = 1;
nodes = (
(586.734,1064,l),
(409.168,1272,l),
(229.012,1114,l),
(404.909,908,l)
);
}
);
width = 1592;
},
{
layerId = m012;
name = ital_gen;
shapes = (
{
closed = 1;
nodes = (
(868.279,-20,o),
(1164.474,253,o),
(1223.244,608,cs),
(1282.014,963,o),
(1075.712,1233,o),
(746.878,1234,cs),
(421.712,1233,o),
(124.014,963,o),
(65.244,608,cs),
(6.474,253,o),
(214.279,-20,o),
(539.279,-20,cs)
);
},
{
closed = 1;
nodes = (
(248.894,26,o),
(57.778,279,o),
(111.244,608,cs),
(166.875,938,o),
(442.097,1187,o),
(738.931,1186,cs),
(1038.097,1187,o),
(1232.875,938,o),
(1177.244,608,cs),
(1120.778,279,o),
(847.894,26,o),
(546.894,26,cs)
);
},
{
closed = 1;
nodes = (
(1328.6,1184,l),
(1304.229,1218,l),
(1100.43,1038,l),
(1124.801,1004,l)
);
},
{
closed = 1;
nodes = (
(1138.219,34,l),
(994.018,214,l),
(958.389,180,l),
(1102.59,0,l)
);
},
{
closed = 1;
nodes = (
(188.389,180,l),
(164.018,214,l),
(-41.781,34,l),
(-15.41,0,l)
);
},
{
closed = 1;
nodes = (
(330.43,1038,l),
(186.229,1218,l),
(148.6,1184,l),
(294.801,1004,l)
);
}
);
width = 1266;
}
);
unicode = 164;
userData = {
com.typemytype.robofont.guideline.magnetic.1UyvG88lVl = 5;
com.typemytype.robofont.guideline.magnetic.UzBXDjMMIk = 5;
interface.gridadjust.original = "{'width': 2002.0, 'leftMargin': 143, 'rightMargin': 118.0}";
"interface.width-adjustments" = (
-16
);
};
}
{
glyphname = yen;
layers = (
{
guides = (
{
angle = 90;
pos = (412,48);
}
);
layerId = "11F4534A-B963-4AB5-820F-DAF9A20CD933";
shapes = (
{
closed = 1;
nodes = (
(187,1490,l),
(479,600,l),
(636,666,l),
(396,1490,l)
);
},
{
closed = 1;
nodes = (
(666,600,l),
(1255,1490,l),
(1046,1490,l),
(534,666,l)
);
},
{
closed = 1;
nodes = (
(510,782,l),
(378,0,l),
(568,0,l),
(699,782,l)
);
},
{
closed = 1;
nodes = (
(175,744,l),
(154,608,l),
(993,608,l),
(1014,744,l)
);
},
{
closed = 1;
nodes = (
(129,456,l),
(108,320,l),
(947,320,l),
(967,456,l)
);
}
);
width = 1129;
},
{
layerId = "D0EC06BF-13F9-4C88-A6F5-B8203AF6C77E";
shapes = (
{
closed = 1;
nodes = (
(184,1490,l),
(430,562,l),
(730,792,l),
(588,1490,l)
);
},
{
closed = 1;
nodes = (
(770,562,l),
(1330,1490,l),
(926,1490,l),
(558,802,l)
);
},
{
closed = 1;
nodes = (
(434,786,l),
(302,0,l),
(702,0,l),
(832,786,l)
);
},
{
closed = 1;
nodes = (
(122,786,l),
(88,574,l),
(1070,574,l),
(1106,786,l)
);
},
{
closed = 1;
nodes = (
(76,498,l),
(38,286,l),
(1022,286,l),
(1058,498,l)
);
}
);
width = 1204;
},
{
layerId = "200BE2C5-40F6-4CF4-AF4F-A33C0CC0964F";
shapes = (
{
closed = 1;
nodes = (
(198,1490,l),
(520,642,l),
(570,642,l),
(248,1490,l)
);
},
{
closed = 1;
nodes = (
(578,642,l),
(1182,1490,l),
(1124,1490,l),
(522,642,l)
);
},
{
closed = 1;
nodes = (
(536,692,l),
(418,0,l),
(466,0,l),
(582,692,l)
);
},
{
closed = 1;
nodes = (
(184,674,l),
(174,628,l),
(920,628,l),
(928,674,l)
);
},
{
closed = 1;
nodes = (
(152,488,l),
(142,442,l),
(888,442,l),
(896,488,l)
);
}
);
width = 1070;
},
{
guides = (
{
angle = 80.6;
pos = (476,48);
}
);
layerId = m008;
name = ital_gen;
shapes = (
{
closed = 1;
nodes = (
(157.258,1490,l),
(452.251,602,l),
(599.852,660,l),
(357.258,1490,l)
);
},
{
closed = 1;
nodes = (
(632.251,602,l),
(1221.258,1490,l),
(1021.258,1490,l),
(501.852,660,l)
);
},
{
closed = 1;
nodes = (
(482.049,782,l),
(352.59,0,l),
(532.59,0,l),
(662.049,782,l)
);
},
{
closed = 1;
nodes = (
(149.427,742,l),
(127.575,610,l),
(959.575,610,l),
(981.427,742,l)
);
},
{
closed = 1;
nodes = (
(101.749,454,l),
(79.897,322,l),
(911.897,322,l),
(933.749,454,l)
);
}
);
width = 1058;
},
{
layerId = m010;
name = ital_gen;
shapes = (
{
closed = 1;
nodes = (
(173.258,1490,l),
(419.629,562,l),
(719.705,792,l),
(577.258,1490,l)
);
},
{
closed = 1;
nodes = (
(759.629,562,l),
(1319.258,1490,l),
(913.258,1490,l),
(547.36,802,l)
);
},
{
closed = 1;
nodes = (
(422.712,786,l),
(292.59,0,l),
(690.59,0,l),
(820.712,786,l)
);
},
{
closed = 1;
nodes = (
(110.712,786,l),
(75.615,574,l),
(1059.615,574,l),
(1094.712,786,l)
);
},
{
closed = 1;
nodes = (
(63.034,498,l),
(27.937,286,l),
(1011.937,286,l),
(1047.034,498,l)
);
}
);
width = 1172;
},
{
layerId = m012;
name = ital_gen;
shapes = (
{
closed = 1;
nodes = (
(139.258,1490,l),
(460.873,642,l),
(512.873,642,l),
(191.258,1490,l)
);
},
{
closed = 1;
nodes = (
(518.873,642,l),
(1121.258,1490,l),
(1069.258,1490,l),
(466.873,642,l)
);
},
{
closed = 1;
nodes = (
(475.15,692,l),
(360.59,0,l),
(406.59,0,l),
(521.15,692,l)
);
},
{
closed = 1;
nodes = (
(120.846,666,l),
(113.231,620,l),
(859.231,620,l),
(866.846,666,l)
);
},
{
closed = 1;
nodes = (
(91.378,488,l),
(83.763,442,l),
(829.763,442,l),
(837.378,488,l)
);
}
);
width = 942;
}
);
note = "line up with uni20BD";
unicode = 165;
userData = {
com.typemytype.robofont.guideline.magnetic.tTOmEYBKMR = 5;
"interface.width-adjustments" = (
-16
);
};
}
{
glyphname = brokenbar;
layers = (
{
guides = (
{
pos = (532,832);
},
{
pos = (924,1116);
},
{
pos = (644,552);
}
);
layerId = "11F4534A-B963-4AB5-820F-DAF9A20CD933";
shapes = (
{
closed = 1;
nodes = (
(52,-280,l),
(221,-280,l),
(335,403,l),
(166,403,l)
);
},
{
closed = 1;
nodes = (
(346,1490,l),
(232,811,l),
(401,811,l),
(515,1490,l)
);
}
);
width = 553;
},
{
guides = (
{
pos = (936,1092);
},
{
pos = (800,576);
}
);
layerId = "D0EC06BF-13F9-4C88-A6F5-B8203AF6C77E";
shapes = (
{
closed = 1;
nodes = (
(90,-280,l),
(446,-280,l),
(562,424,l),
(206,424,l)
);
},
{
closed = 1;
nodes = (
(384,1490,l),
(268,788,l),
(622,788,l),
(738,1490,l)
);
}
);
width = 814;
},
{
layerId = "200BE2C5-40F6-4CF4-AF4F-A33C0CC0964F";
shapes = (
{
closed = 1;
nodes = (
(28,-280,l),
(74,-280,l),
(188,386,l),
(142,386,l)
);
},
{
closed = 1;
nodes = (
(322,1490,l),
(210,826,l),
(258,826,l),
(368,1490,l)
);
}
);
width = 382;
},
{
guides = (
{
angle = -9.4;
pos = (208,832);
},
{
angle = -9.4;
pos = (460,1116);
},
{
angle = -9.4;
pos = (460,552);
}
);
layerId = m008;
name = ital_gen;
shapes = (
{
closed = 1;
nodes = (
(26.236,-280,l),
(186.236,-280,l),
(299.141,402,l),
(139.141,402,l)
);
},
{
closed = 1;
nodes = (
(319.258,1490,l),
(207.016,812,l),
(367.016,812,l),
(479.258,1490,l)
);
}
);
width = 480;
},
{
guides = (
{
angle = -9.4;
pos = (732,1092);
},
{
angle = -9.4;
pos = (768,576);
}
);
layerId = m010;
name = ital_gen;
shapes = (
{
closed = 1;
nodes = (
(80.236,-280,l),
(434.236,-280,l),
(550.783,424,l),
(196.783,424,l)
);
},
{
closed = 1;
nodes = (
(373.258,1490,l),
(257.043,788,l),
(611.043,788,l),
(727.258,1490,l)
);
}
);
width = 782;
},
{
layerId = m012;
name = ital_gen;
shapes = (
{
closed = 1;
nodes = (
(-29.764,-280,l),
(16.236,-280,l),
(126.492,386,l),
(80.492,386,l)
);
},
{
closed = 1;
nodes = (
(263.258,1490,l),
(153.334,826,l),
(199.334,826,l),
(309.258,1490,l)
);
}
);
width = 254;
}
);
unicode = 166;
userData = {
com.typemytype.robofont.guideline.magnetic.7XIyiEEc60 = 5;
com.typemytype.robofont.guideline.magnetic.MxvJVkfsW3 = 5;
com.typemytype.robofont.guideline.magnetic.YQqXyZ7Bm4 = 5;
interface.gridadjust.original = "{'width': 690, 'leftMargin': 199, 'rightMargin': 216}";
"interface.width-adjustments" = (
-16
);
};
}
{
glyphname = dieresis;
layers = (
{
layerId = "11F4534A-B963-4AB5-820F-DAF9A20CD933";
name = ital_gen;
shapes = (
{
alignment = 1;
ref = dieresiscomb;
}
);
width = 1211;
},
{
layerId = "D0EC06BF-13F9-4C88-A6F5-B8203AF6C77E";
name = ital_gen;
shapes = (
{
alignment = 1;
ref = dieresiscomb;
}
);
width = 1330;
},
{
anchors = (
{
name = _top;
pos = (722,1304);
},
{
name = mkmktop_acc;
pos = (768,1580);
}
);
associatedMasterId = "11F4534A-B963-4AB5-820F-DAF9A20CD933";
layerId = "FD370712-F2DE-4791-A54C-6A752E8C6BB0";
name = "Oct 8 18, 09:02";
shapes = (
{
closed = 1;
nodes = (
(582,1289,o),
(640,1344,o),
(648,1406,cs),
(660,1472,o),
(620,1521,o),
(552,1522,cs),
(492,1521,o),
(428,1472,o),
(416,1406,cs),
(407,1344,o),
(454,1289,o),
(514,1288,cs)
);
},
{
closed = 1;
nodes = (
(995,1289,o),
(1053,1344,o),
(1062,1406,cs),
(1073,1472,o),
(1033,1521,o),
(966,1522,cs),
(905,1521,o),
(841,1472,o),
(830,1406,cs),
(820,1344,o),
(867,1289,o),
(928,1288,cs)
);
}
);
width = 1198;
},
{
anchors = (
{
name = _top;
pos = (588,1254);
},
{
name = mkmktop_acc;
pos = (648,1624);
}
);
associatedMasterId = "D0EC06BF-13F9-4C88-A6F5-B8203AF6C77E";
guides = (
{
orientation = center;
angle = 90;
pos = (1056,1892);
}
);
layerId = "57299F82-0966-4503-B9BA-00CF51503498";
name = "Oct 8 18, 19:27";
shapes = (
{
closed = 1;
nodes = (
(448,1228,o),
(529,1295,o),
(544,1376,cs),
(556,1457,o),
(497,1524,o),
(410,1524,cs),
(326,1524,o),
(244,1457,o),
(232,1376,cs),
(218,1295,o),
(276,1228,o),
(360,1228,cs)
);
},
{
closed = 1;
nodes = (
(887,1228,o),
(969,1295,o),
(984,1376,cs),
(995,1457,o),
(937,1524,o),
(850,1524,cs),
(765,1524,o),
(684,1457,o),
(672,1376,cs),
(657,1295,o),
(716,1228,o),
(800,1228,cs)
);
}
);
width = 942;
},
{
layerId = "200BE2C5-40F6-4CF4-AF4F-A33C0CC0964F";
name = ital_gen;
shapes = (
{
alignment = 1;
ref = dieresiscomb;
}
);
width = 1197;
},
{
layerId = m008;
name = ital_gen;
shapes = (
{
alignment = 1;
ref = dieresiscomb;
}
);
width = 1120;
},
{
anchors = (
{
name = _top;
pos = (722,1304);
},
{
name = mkmktop_acc;
pos = (768,1580);
}
);
associatedMasterId = m008;
layerId = "A78AD8CE-53EB-4B0E-880B-AFA2114057BD";
name = "Oct 8 18, 09:02";
shapes = (
{
closed = 1;
nodes = (
(582,1289,o),
(640,1344,o),
(648,1406,cs),
(660,1472,o),
(620,1521,o),
(552,1522,cs),
(492,1521,o),
(428,1472,o),
(416,1406,cs),
(407,1344,o),
(454,1289,o),
(514,1288,cs)
);
},
{
closed = 1;
nodes = (
(995,1289,o),
(1053,1344,o),
(1062,1406,cs),
(1073,1472,o),
(1033,1521,o),
(966,1522,cs),
(905,1521,o),
(841,1472,o),
(830,1406,cs),
(820,1344,o),
(867,1289,o),
(928,1288,cs)
);
}
);
width = 1198;
},
{
layerId = m010;
name = ital_gen;
shapes = (
{
alignment = 1;
ref = dieresiscomb;
}
);
width = 1266;
},
{
anchors = (
{
name = _top;
pos = (588,1254);
},
{
name = mkmktop_acc;
pos = (648,1624);
}
);
associatedMasterId = m010;
guides = (
{
orientation = center;
angle = 90;
pos = (1056,1892);
}
);
layerId = "F8D79124-86DA-4266-A0AB-D24E37CF140C";
name = "Oct 8 18, 19:27";
shapes = (
{
closed = 1;
nodes = (
(448,1228,o),
(529,1295,o),
(544,1376,cs),
(556,1457,o),
(497,1524,o),
(410,1524,cs),
(326,1524,o),
(244,1457,o),
(232,1376,cs),
(218,1295,o),
(276,1228,o),
(360,1228,cs)
);
},
{
closed = 1;
nodes = (
(887,1228,o),
(969,1295,o),
(984,1376,cs),
(995,1457,o),
(937,1524,o),
(850,1524,cs),
(765,1524,o),
(684,1457,o),
(672,1376,cs),
(657,1295,o),
(716,1228,o),
(800,1228,cs)
);
}
);
width = 942;
},
{
layerId = m012;
name = ital_gen;
shapes = (
{
alignment = 1;
ref = dieresiscomb;
}
);
width = 1068;
}
);
unicode = 168;
userData = {
"interface.width-adjustments" = (
-16
);
};
}
{
glyphname = copyright;
kernLeft = C;
kernRight = D;
layers = (
{
layerId = "11F4534A-B963-4AB5-820F-DAF9A20CD933";
shapes = (
{
closed = 1;
nodes = (
(503,506,o),
(665,313,o),
(904,312,cs),
(1110,313,o),
(1293,458,o),
(1352,652,c),
(1176,652,l),
(1139,553,o),
(1029,481,o),
(916,482,cs),
(772,481,o),
(689,609,o),
(712,744,cs),
(736,900,o),
(890,1008,o),
(1032,1008,cs),
(1148,1008,o),
(1219,938,o),
(1222,838,c),
(1398,838,l),
(1402,1031,o),
(1252,1177,o),
(1046,1176,cs),
(807,1177,o),
(582,983,o),
(542,744,cs)
);
},
{
pos = (2,0);
ref = circlewhite;
}
);
width = 1874;
},
{
guides = (
{
pos = (332,1240);
},
{
pos = (18,764);
}
);
layerId = "D0EC06BF-13F9-4C88-A6F5-B8203AF6C77E";
shapes = (
{
closed = 1;
nodes = (
(540,527,o),
(688,349,o),
(906,350,cs),
(1100,349,o),
(1286,490,o),
(1336,674,c),
(1092,674,l),
(1071,618,o),
(1006,582,o),
(936,582,cs),
(839,582,o),
(793,653,o),
(808,746,cs),
(825,845,o),
(905,908,o),
(1000,908,cs),
(1071,908,o),
(1113,872,o),
(1116,814,c),
(1358,814,l),
(1370,999,o),
(1231,1140,o),
(1038,1140,cs),
(819,1140,o),
(612,963,o),
(576,744,cs)
);
},
{
ref = circlewhite;
}
);
width = 1874;
},
{
layerId = "200BE2C5-40F6-4CF4-AF4F-A33C0CC0964F";
shapes = (
{
closed = 1;
nodes = (
(516,506,o),
(678,313,o),
(916,312,cs),
(1088,313,o),
(1238,413,o),
(1318,558,c),
(1266,558,l),
(1194,439,o),
(1059,359,o),
(914,360,cs),
(701,359,o),
(567,532,o),
(602,744,cs),
(639,959,o),
(847,1130,o),
(1058,1130,cs),
(1204,1130,o),
(1296,1050,o),
(1326,930,c),
(1378,930,l),
(1348,1076,o),
(1231,1177,o),
(1058,1176,cs),
(820,1177,o),
(595,983,o),
(556,744,cs)
);
},
{
ref = circlewhite;
}
);
width = 1874;
},
{
background = {
shapes = (
{
closed = 1;
nodes = (
(1175,313,o),
(1369,506,o),
(1368,744,cs),
(1369,983,o),
(1175,1177,o),
(936,1176,cs),
(698,1177,o),
(505,983,o),
(504,744,cs),
(505,506,o),
(698,313,o),
(936,312,cs)
);
}
);
};
layerId = m008;
name = ital_gen;
shapes = (
{
closed = 1;
nodes = (
(476.358,506,o),
(637.407,313,o),
(876.241,312,cs),
(1083.407,313,o),
(1265.412,458,o),
(1324.528,652,c),
(1148.528,652,l),
(1111.973,552,o),
(1016.219,481,o),
(904.385,482,cs),
(759.219,481,o),
(660.754,599,o),
(683.759,744,cs),
(708.929,890,o),
(846.463,1008,o),
(991.463,1008,cs),
(1103.463,1008,o),
(1191.71,937,o),
(1195.32,838,c),
(1371.32,838,l),
(1375.271,1031,o),
(1226.441,1177,o),
(1019.276,1176,cs),
(780.441,1177,o),
(555.325,983,o),
(515.759,744,cs)
);
},
{
ref = circlewhite;
}
);
width = 1810;
},
{
background = {
shapes = (
{
closed = 1;
nodes = (
(1154,350,o),
(1332,526,o),
(1332,744,cs),
(1333,962,o),
(1154,1140,o),
(936,1140,cs),
(718,1141,o),
(540,962,o),
(542,744,cs),
(542,526,o),
(718,348,o),
(936,350,cs)
);
}
);
};
guides = (
{
angle = -9.4;
pos = (-76,1240);
},
{
angle = -9.4;
pos = (-76,764);
}
);
layerId = m010;
name = ital_gen;
shapes = (
{
closed = 1;
nodes = (
(528.834,527,o),
(677.367,349,o),
(896.532,350,cs),
(1089.367,349,o),
(1274.709,490,o),
(1324.17,674,c),
(1082.17,674,l),
(1061.231,620,o),
(998.94,582,o),
(934.94,582,cs),
(844.94,582,o),
(783.19,656,o),
(798.09,746,cs),
(812.989,836,o),
(898.909,908,o),
(988.909,908,cs),
(1052.909,908,o),
(1102.618,870,o),
(1105.347,814,c),
(1347.347,814,l),
(1358.974,999,o),
(1220.316,1140,o),
(1027.316,1140,cs),
(808.316,1140,o),
(601.014,963,o),
(565.759,744,cs)
);
},
{
ref = circlewhite;
}
);
width = 1842;
},
{
layerId = m012;
name = ital_gen;
shapes = (
{
closed = 1;
nodes = (
(457.358,506,o),
(619.407,313,o),
(858.241,312,cs),
(1029.407,313,o),
(1179.962,413,o),
(1258.966,558,c),
(1206.966,558,l),
(1136.266,439,o),
(1011.022,359,o),
(866.188,360,cs),
(653.022,359,o),
(508.662,532,o),
(543.759,744,cs),
(579.352,959,o),
(780.66,1130,o),
(993.66,1130,cs),
(1138.66,1130,o),
(1237.417,1050,o),
(1268.551,930,c),
(1320.551,930,l),
(1289.721,1076,o),
(1172.441,1177,o),
(1001.276,1176,cs),
(762.441,1177,o),
(536.325,983,o),
(497.759,744,cs)
);
},
{
ref = circlewhite;
}
);
width = 1746;
}
);
metricWidth = circleblack;
note = "Stroke R: 116\012Stroke B: 160";
unicode = 169;
userData = {
interface.gridadjust.original = "{'width': 2204, 'leftMargin': 121, 'rightMargin': 132}";
"interface.width-adjustments" = (
-16
);
};
}
{
glyphname = degree;
kernLeft = asciicircum;
kernRight = asciicircum;
layers = (
{
layerId = "11F4534A-B963-4AB5-820F-DAF9A20CD933";
shapes = (
{
closed = 1;
nodes = (
(753,829,o),
(903,979,o),
(903,1164,cs),
(903,1350,o),
(753,1502,o),
(568,1502,cs),
(382,1502,o),
(232,1350,o),
(232,1164,cs),
(232,980,o),
(382,829,o),
(568,829,cs)
);
},
{
closed = 1;
nodes = (
(465,979,o),
(381,1062,o),
(381,1164,cs),
(381,1268,o),
(465,1351,o),
(568,1351,cs),
(671,1351,o),
(753,1267,o),
(753,1164,cs),
(753,1062,o),
(671,979,o),
(568,979,cs)
);
}
);
width = 933;
},
{
layerId = "D0EC06BF-13F9-4C88-A6F5-B8203AF6C77E";
shapes = (
{
closed = 1;
nodes = (
(773,753,o),
(940,920,o),
(940,1126,cs),
(940,1332,o),
(773,1498,o),
(568,1498,cs),
(361,1498,o),
(195,1332,o),
(194,1126,cs),
(195,920,o),
(361,753,o),
(568,754,cs)
);
},
{
closed = 1;
nodes = (
(498,1001,o),
(442,1057,o),
(442,1126,cs),
(442,1195,o),
(498,1251,o),
(568,1250,cs),
(636,1251,o),
(692,1195,o),
(692,1126,cs),
(692,1057,o),
(636,1001,o),
(568,1000,cs)
);
}
);
width = 948;
},
{
layerId = "200BE2C5-40F6-4CF4-AF4F-A33C0CC0964F";
shapes = (
{
closed = 1;
nodes = (
(739,905,o),
(874,1040,o),
(874,1208,cs),
(874,1375,o),
(739,1510,o),
(572,1510,cs),
(404,1510,o),
(269,1375,o),
(270,1208,cs),
(269,1040,o),
(404,905,o),
(572,904,cs)
);
},
{
closed = 1;
nodes = (
(430,951,o),
(316,1065,o),
(316,1208,cs),
(316,1349,o),
(430,1463,o),
(572,1464,cs),
(713,1463,o),
(828,1349,o),
(828,1208,cs),
(828,1065,o),
(713,951,o),
(572,952,cs)
);
}
);
width = 930;
},
{
layerId = m008;
name = ital_gen;
shapes = (
{
closed = 1;
nodes = (
(669,832,o),
(844,982,o),
(874,1166,cs),
(905,1351,o),
(779,1501,o),
(596,1502,cs),
(410,1501,o),
(236,1351,o),
(204,1166,cs),
(175,982,o),
(300,832,o),
(485,832,cs)
);
},
{
closed = 1;
nodes = (
(404,977,o),
(333,1062,o),
(350,1166,cs),
(367,1271,o),
(466,1356,o),
(571,1356,cs),
(675,1356,o),
(746,1271,o),
(728,1166,cs),
(712,1062,o),
(613,977,o),
(509,978,cs)
);
}
);
width = 866;
},
{
layerId = m010;
name = ital_gen;
shapes = (
{
closed = 1;
nodes = (
(702,753,o),
(896,920,o),
(929,1126,cs),
(965,1332,o),
(825,1498,o),
(619,1498,cs),
(413,1498,o),
(220,1332,o),
(185,1126,cs),
(151,920,o),
(290,753,o),
(496,754,cs)
);
},
{
closed = 1;
nodes = (
(468,1001,o),
(421,1057,o),
(433,1126,cs),
(444,1195,o),
(509,1251,o),
(578,1250,cs),
(647,1251,o),
(694,1195,o),
(683,1126,cs),
(671,1057,o),
(606,1001,o),
(537,1000,cs)
);
}
);
width = 916;
},
{
layerId = m012;
name = ital_gen;
shapes = (
{
closed = 1;
nodes = (
(632,905,o),
(789,1040,o),
(817,1208,cs),
(845,1375,o),
(732,1510,o),
(565,1510,cs),
(397,1510,o),
(240,1375,o),
(211,1208,cs),
(184,1040,o),
(297,905,o),
(465,904,cs)
);
},
{
closed = 1;
nodes = (
(330,951,o),
(234,1065,o),
(259,1208,cs),
(281,1349,o),
(415,1463,o),
(557,1464,cs),
(698,1463,o),
(793,1349,o),
(771,1208,cs),
(746,1065,o),
(613,951,o),
(473,952,cs)
);
}
);
width = 802;
}
);
unicode = 176;
userData = {
interface.gridadjust.original = "{'width': 896, 'leftMargin': 28, 'rightMargin': 168}";
"interface.width-adjustments" = (
-16
);
};
}
{
glyphname = acute;
layers = (
{
background = {
shapes = (
{
closed = 1;
nodes = (
(550,1264,l),
(742,1557,l),
(548,1557,l),
(408,1264,l)
);
}
);
};
guides = (
{
pos = (240,1264);
},
{
pos = (240,1557);
}
);
layerId = "11F4534A-B963-4AB5-820F-DAF9A20CD933";
name = ital_gen;
shapes = (
{
alignment = 1;
ref = acutecomb;
}
);
width = 422;
},
{
background = {
shapes = (
{
closed = 1;
nodes = (
(694,1256,l),
(912,1582,l),
(568,1582,l),
(430,1256,l)
);
}
);
};
guides = (
{
pos = (260,1256);
},
{
pos = (260,1582);
}
);
layerId = "D0EC06BF-13F9-4C88-A6F5-B8203AF6C77E";
name = ital_gen;
shapes = (
{
alignment = 1;
ref = acutecomb;
}
);
width = 562;
},
{
background = {
shapes = (
{
closed = 1;
nodes = (
(506,1283,l),
(673,1557,l),
(613,1557,l),
(460,1283,l)
);
}
);
};
guides = (
{
pos = (280,1283);
},
{
pos = (280,1557);
}
);
layerId = "200BE2C5-40F6-4CF4-AF4F-A33C0CC0964F";
name = ital_gen;
shapes = (
{
alignment = 1;
ref = acutecomb;
}
);
width = 294;
},
{
guides = (
{
pos = (0,1192);
},
{
pos = (0,1490);
}
);
layerId = m008;
name = ital_gen;
shapes = (
{
alignment = 1;
ref = acutecomb;
}
);
width = 415;
},
{
background = {
shapes = (
{
closed = 1;
nodes = (
(376,1181,l),
(682,1507,l),
(314,1507,l),
(112,1181,l)
);
}
);
};
guides = (
{
pos = (48,1181);
},
{
pos = (48,1507);
}
);
layerId = m010;
name = ital_gen;
shapes = (
{
alignment = 1;
ref = acutecomb;
}
);
width = 649;
},
{
background = {
shapes = (
{
closed = 1;
nodes = (
(346,1192,l),
(478,1490,l),
(420,1490,l),
(301,1192,l)
);
}
);
};
guides = (
{
pos = (195,1192);
}
);
layerId = m012;
name = ital_gen;
shapes = (
{
alignment = 1;
ref = acutecomb;
}
);
width = 333;
}
);
unicode = 180;
userData = {
"interface.width-adjustments" = (
-16
);
};
}
{
glyphname = micro;
kernLeft = u;
kernRight = u;
layers = (
{
background = {
shapes = (
{
pos = (1,1118);
ref = h;
scale = (1,-1);
}
);
};
layerId = "11F4534A-B963-4AB5-820F-DAF9A20CD933";
name = ital_gen;
shapes = (
{
closed = 1;
nodes = (
(177,-418,l),
(305,352,l),
(264,352,l),
(215,57,o),
(393,-16,o),
(513,-16,cs),
(632,-16,o),
(836,56,o),
(885,352,c),
(844,352,l),
(827,251,ls),
(799,85,o),
(879,0,o),
(1062,0,cs),
(1098,0,l),
(1124,155,l),
(1095,155,ls),
(1014,155,o),
(991,180,o),
(1003,253,cs),
(1146,1118,l),
(966,1118,l),
(854,440,ls),
(820,234,o),
(696,143,o),
(541,143,cs),
(393,143,o),
(284,228,o),
(319,440,cs),
(431,1118,l),
(251,1118,l),
(-3,-418,l)
);
}
);
width = 1202;
},
{
background = {
shapes = (
{
pos = (1,1118);
ref = h;
scale = (1,-1);
}
);
};
layerId = "D0EC06BF-13F9-4C88-A6F5-B8203AF6C77E";
name = ital_gen;
shapes = (
{
closed = 1;
nodes = (
(341,-418,l),
(479,417,l),
(423,417,l),
(374,119,o),
(480,32,o),
(594,32,cs),
(701,32,o),
(832,119,o),
(881,417,c),
(825,417,l),
(808,316,ls),
(775,113,o),
(853,0,o),
(1054,0,cs),
(1258,0,l),
(1308,304,l),
(1250,304,ls),
(1208,304,o),
(1190,328,o),
(1197,370,cs),
(1321,1118,l),
(921,1118,l),
(814,472,ls),
(796,364,o),
(719,298,o),
(622,298,cs),
(525,298,o),
(470,364,o),
(488,472,cs),
(595,1118,l),
(195,1118,l),
(-59,-418,l)
);
}
);
width = 1361;
},
{
background = {
shapes = (
{
pos = (1,1118);
ref = h;
scale = (1,-1);
}
);
};
layerId = "200BE2C5-40F6-4CF4-AF4F-A33C0CC0964F";
name = ital_gen;
shapes = (
{
closed = 1;
nodes = (
(83,-418,l),
(213,368,l),
(177,368,l),
(130,86,o),
(345,-16,o),
(511,-16,cs),
(677,-16,o),
(910,86,o),
(957,368,c),
(921,368,l),
(893,198,ls),
(871,62,o),
(921,0,o),
(1044,0,cs),
(1068,0,l),
(1076,46,l),
(1052,46,ls),
(956,46,o),
(921,89,o),
(939,198,cs),
(1091,1118,l),
(1045,1118,l),
(921,368,ls),
(889,175,o),
(714,30,o),
(511,30,cs),
(308,30,o),
(181,175,o),
(213,368,cs),
(337,1118,l),
(291,1118,l),
(37,-418,l)
);
}
);
width = 1201;
},
{
background = {
shapes = (
{
pos = (0,1056);
ref = h;
scale = (1,-1);
}
);
};
layerId = m008;
name = ital_gen;
shapes = (
{
closed = 1;
nodes = (
(139,-418,l),
(266,349,l),
(226,349,l),
(177,54,o),
(351,-18,o),
(471,-18,cs),
(591,-18,o),
(790,54,o),
(839,349,c),
(798,349,l),
(781,248,ls),
(754,86,o),
(831,0,o),
(1016,0,cs),
(1044,0,l),
(1069,148,l),
(1041,148,ls),
(959,148,o),
(935,173,o),
(947,248,cs),
(1081,1056,l),
(911,1056,l),
(809,438,ls),
(773,225,o),
(653,136,o),
(499,136,cs),
(345,136,o),
(245,225,o),
(281,438,cs),
(383,1056,l),
(213,1056,l),
(-31,-418,l)
);
}
);
width = 1132;
},
{
background = {
shapes = (
{
pos = (0,1056);
ref = h;
scale = (1,-1);
}
);
};
layerId = m010;
name = ital_gen;
shapes = (
{
closed = 1;
nodes = (
(329,-418,l),
(467,417,l),
(411,417,l),
(362,119,o),
(452,32,o),
(566,32,cs),
(673,32,o),
(788,119,o),
(837,417,c),
(781,417,l),
(764,316,ls),
(731,113,o),
(809,0,o),
(1010,0,cs),
(1214,0,l),
(1264,304,l),
(1206,304,ls),
(1164,304,o),
(1146,328,o),
(1153,370,cs),
(1267,1056,l),
(867,1056,l),
(770,472,ls),
(752,364,o),
(691,298,o),
(594,298,cs),
(497,298,o),
(458,364,o),
(476,472,cs),
(573,1056,l),
(173,1056,l),
(-71,-418,l)
);
}
);
width = 1301;
},
{
layerId = m012;
name = ital_gen;
shapes = (
{
closed = 1;
nodes = (
(23,-418,l),
(153,368,l),
(117,368,l),
(70,86,o),
(285,-16,o),
(451,-16,cs),
(617,-16,o),
(850,86,o),
(897,368,c),
(861,368,l),
(833,198,ls),
(811,62,o),
(861,0,o),
(984,0,cs),
(1008,0,l),
(1016,46,l),
(992,46,ls),
(896,46,o),
(861,89,o),
(879,198,cs),
(1021,1056,l),
(975,1056,l),
(861,368,ls),
(829,175,o),
(654,30,o),
(451,30,cs),
(248,30,o),
(121,175,o),
(153,368,cs),
(267,1056,l),
(221,1056,l),
(-23,-418,l)
);
}
);
width = 1096;
}
);
metricLeft = l;
unicode = 181;
userData = {
com.typemytype.robofont.guideline.magnetic.8IeEFgbS4T = 5;
com.typemytype.robofont.guideline.magnetic.eXsOmptB9v = 5;
com.typemytype.robofont.guideline.magnetic.s5uJiJNNNn = 5;
interface.gridadjust.original = "{'width': 1796, 'leftMargin': 256, 'rightMargin': 292}";
"interface.width-adjustments" = (
-16
);
};
}
{
glyphname = multiply;
kernLeft = bullet;
kernRight = bullet;
layers = (
{
layerId = "11F4534A-B963-4AB5-820F-DAF9A20CD933";
shapes = (
{
closed = 1;
nodes = (
(1086,221,l),
(399,1044,l),
(274,936,l),
(961,112,l)
);
},
{
closed = 1;
nodes = (
(1208,917,l),
(1101,1042,l),
(162,240,l),
(269,116,l)
);
}
);
width = 1356;
},
{
layerId = "D0EC06BF-13F9-4C88-A6F5-B8203AF6C77E";
shapes = (
{
closed = 1;
nodes = (
(1236,276,l),
(482,1178,l),
(198,930,l),
(952,32,l)
);
},
{
closed = 1;
nodes = (
(1344,930,l),
(1140,1178,l),
(90,276,l),
(294,32,l)
);
}
);
width = 1420;
},
{
layerId = "200BE2C5-40F6-4CF4-AF4F-A33C0CC0964F";
shapes = (
{
closed = 1;
nodes = (
(1016,186,l),
(332,1006,l),
(296,978,l),
(980,158,l)
);
},
{
closed = 1;
nodes = (
(1150,974,l),
(1120,1010,l),
(162,190,l),
(192,154,l)
);
}
);
width = 1304;
},
{
layerId = m008;
name = ital_gen;
shapes = (
{
closed = 1;
nodes = (
(1057,222,l),
(373,1042,l),
(247,932,l),
(931,112,l)
);
},
{
closed = 1;
nodes = (
(1172,913,l),
(1065,1038,l),
(131,240,l),
(238,117,l)
);
}
);
width = 1287;
},
{
layerId = m010;
name = ital_gen;
shapes = (
{
closed = 1;
nodes = (
(1225,276,l),
(475,1178,l),
(188,930,l),
(941,32,l)
);
},
{
closed = 1;
nodes = (
(1334,930,l),
(1131,1178,l),
(79,276,l),
(285,32,l)
);
}
);
width = 1388;
},
{
guides = (
{
angle = -9.4;
pos = (138,800);
}
);
layerId = m012;
name = ital_gen;
shapes = (
{
closed = 1;
nodes = (
(952,186,l),
(268,1006,l),
(232,978,l),
(916,158,l)
);
},
{
closed = 1;
nodes = (
(1086,974,l),
(1056,1010,l),
(98,190,l),
(128,154,l)
);
}
);
width = 1176;
}
);
metricWidth = plus;
unicode = 215;
userData = {
"interface.width-adjustments" = (
-16
);
};
}
{
glyphname = germandbls;
kernLeft = B;
kernRight = B;
layers = (
{
layerId = "11F4534A-B963-4AB5-820F-DAF9A20CD933";
shapes = (
{
closed = 1;
nodes = (
(269,0,l),
(453,1104,ls),
(477,1248,o),
(604,1343,o),
(750,1343,cs),
(908,1343,o),
(987,1234,o),
(964,1097,cs),
(942,966,o),
(833,841,o),
(688,841,cs),
(597,841,l),
(569,671,l),
(698,671,ls),
(876,671,o),
(965,560,o),
(939,410,cs),
(914,266,o),
(797,167,o),
(644,167,cs),
(480,167,l),
(451,0,l),
(616,0,ls),
(878,0,o),
(1080,171,o),
(1121,407,cs),
(1157,615,o),
(1047,756,o),
(859,775,c),
(861,789,l),
(1008,837,o),
(1123,955,o),
(1151,1124,cs),
(1191,1366,o),
(1023,1510,o),
(773,1510,cs),
(514,1510,o),
(312,1354,o),
(271,1107,cs),
(87,0,l)
);
}
);
width = 1262;
},
{
layerId = "D0EC06BF-13F9-4C88-A6F5-B8203AF6C77E";
shapes = (
{
closed = 1;
nodes = (
(405,0,l),
(573,1012,ls),
(591,1119,o),
(669,1184,o),
(781,1184,cs),
(888,1184,o),
(940,1124,o),
(925,1036,cs),
(912,956,o),
(849,898,o),
(772,898,cs),
(704,898,l),
(656,606,l),
(762,606,ls),
(890,606,o),
(961,552,o),
(946,460,cs),
(931,369,o),
(849,314,o),
(735,314,cs),
(601,314,l),
(549,0,l),
(769,0,ls),
(1065,0,o),
(1299,132,o),
(1345,410,cs),
(1380,620,o),
(1291,779,o),
(1096,788,c),
(1099,806,l),
(1234,836,o),
(1325,951,o),
(1349,1094,cs),
(1395,1377,o),
(1138,1510,o),
(821,1510,cs),
(472,1510,o),
(227,1351,o),
(184,1088,cs),
(3,0,l)
);
}
);
width = 1418;
},
{
layerId = "200BE2C5-40F6-4CF4-AF4F-A33C0CC0964F";
shapes = (
{
closed = 1;
nodes = (
(185,0,l),
(376,1152,ls),
(409,1348,o),
(545,1464,o),
(742,1464,cs),
(939,1464,o),
(1037,1348,o),
(1004,1152,cs),
(967,928,o),
(796,791,o),
(552,791,cs),
(530,791,l),
(523,749,l),
(545,749,ls),
(827,749,o),
(982,606,o),
(945,386,cs),
(912,182,o),
(735,46,o),
(503,46,cs),
(401,46,l),
(393,0,l),
(495,0,ls),
(753,0,o),
(953,156,o),
(991,386,cs),
(1025,590,o),
(910,737,o),
(707,771,c),
(708,775,l),
(898,823,o),
(1018,960,o),
(1050,1152,cs),
(1087,1373,o),
(971,1510,o),
(749,1510,cs),
(527,1510,o),
(367,1373,o),
(330,1152,cs),
(139,0,l)
);
}
);
width = 1178;
},
{
layerId = m008;
name = ital_gen;
shapes = (
{
closed = 1;
nodes = (
(232.59,0,l),
(416.018,1108,ls),
(439.692,1251,o),
(567.081,1350,o),
(718.081,1350,cs),
(878.081,1350,o),
(957.705,1239,o),
(934.694,1100,cs),
(912.345,965,o),
(800.32,838,o),
(653.32,838,cs),
(561.32,838,l),
(534.17,674,l),
(664.17,674,ls),
(841.17,674,o),
(933.96,564,o),
(908.465,410,cs),
(884.295,264,o),
(766.078,160,o),
(609.078,160,cs),
(443.078,160,l),
(416.59,0,l),
(578.59,0,ls),
(840.59,0,o),
(1041.561,175,o),
(1080.465,410,cs),
(1114.734,617,o),
(1003.58,755,o),
(816.725,774,c),
(819.043,788,l),
(967.155,837,o),
(1082.855,956,o),
(1110.998,1126,cs),
(1150.399,1364,o),
(988.569,1510,o),
(740.569,1510,cs),
(488.569,1510,o),
(285.24,1357,o),
(244.018,1108,cs),
(60.59,0,l)
);
}
);
width = 1180;
},
{
layerId = m010;
name = ital_gen;
shapes = (
{
closed = 1;
nodes = (
(394.59,0,l),
(562.126,1012,ls),
(579.839,1119,o),
(658.6,1184,o),
(770.6,1184,cs),
(877.6,1184,o),
(928.667,1124,o),
(914.099,1036,cs),
(900.855,956,o),
(838.253,898,o),
(761.253,898,cs),
(693.253,898,l),
(644.913,606,l),
(750.913,606,ls),
(878.913,606,o),
(949.973,552,o),
(934.743,460,cs),
(919.678,369,o),
(838.573,314,o),
(724.573,314,cs),
(590.573,314,l),
(538.59,0,l),
(758.59,0,ls),
(1054.59,0,o),
(1288.443,132,o),
(1334.465,410,cs),
(1369.231,620,o),
(1280.553,779,o),
(1085.043,788,c),
(1088.023,806,l),
(1222.989,836,o),
(1314.027,951,o),
(1337.701,1094,cs),
(1384.551,1377,o),
(1127.569,1510,o),
(810.569,1510,cs),
(461.569,1510,o),
(216.247,1351,o),
(172.707,1088,cs),
(-7.41,0,l)
);
}
);
width = 1389;
},
{
layerId = m012;
name = ital_gen;
shapes = (
{
closed = 1;
nodes = (
(127,0,l),
(317,1152,ls),
(350,1348,o),
(486,1464,o),
(683,1464,cs),
(880,1464,o),
(978,1348,o),
(945,1152,cs),
(908,928,o),
(738,791,o),
(494,791,cs),
(472,791,l),
(465,749,l),
(487,749,ls),
(769,749,o),
(923,606,o),
(886,386,cs),
(853,182,o),
(676,46,o),
(444,46,cs),
(342,46,l),
(335,0,l),
(437,0,ls),
(695,0,o),
(894,156,o),
(932,386,cs),
(966,590,o),
(852,737,o),
(648,771,c),
(649,775,l),
(839,823,o),
(960,960,o),
(991,1152,cs),
(1028,1373,o),
(913,1510,o),
(691,1510,cs),
(469,1510,o),
(308,1373,o),
(271,1152,cs),
(81,0,l)
);
}
);
width = 1056;
}
);
metricLeft = B;
metricRight = B;
unicode = 223;
userData = {
"interface.width-adjustments" = (
-16
);
};
}
{
glyphname = ae;
kernLeft = a;
kernRight = e;
layers = (
{
anchors = (
{
name = top;
pos = (989,1118);
}
);
guides = (
{
angle = 80.6;
pos = (907,246);
}
);
layerId = "11F4534A-B963-4AB5-820F-DAF9A20CD933";
name = ital_gen;
shapes = (
{
closed = 1;
nodes = (
(652,-16,o),
(817,97,o),
(897,253,c),
(914,254,l),
(1002,786,ls),
(1037,998,o),
(898,1141,o),
(648,1141,cs),
(400,1141,o),
(210,1005,o),
(168,803,c),
(350,801,l),
(379,914,o),
(485,985,o),
(626,985,cs),
(801,985,o),
(859,915,o),
(831,765,cs),
(764,406,ls),
(739,272,o),
(632,140,o),
(422,140,cs),
(287,140,o),
(223,201,o),
(243,320,cs),
(262,433,o),
(374,485,o),
(521,485,cs),
(618,485,o),
(734,487,o),
(838,487,c),
(850,625,l),
(695,625,o),
(616,624,o),
(509,624,cs),
(203,624,o),
(91,478,o),
(65,324,cs),
(30,117,o),
(160,-16,o),
(391,-16,cs)
);
},
{
closed = 1;
nodes = (
(1437,-24,o),
(1627,86,o),
(1710,263,c),
(1543,308,l),
(1487,203,o),
(1370,135,o),
(1226,135,cs),
(1049,135,o),
(952,237,o),
(952,421,cs),
(952,454,o),
(957,488,o),
(979,623,cs),
(1012,825,o),
(1180,982,o),
(1366,982,cs),
(1482,982,o),
(1560,926,o),
(1560,841,cs),
(1560,674,o),
(1411,623,o),
(923,623,c),
(899,487,l),
(1490,487,o),
(1740,586,o),
(1740,837,cs),
(1740,1023,o),
(1600,1142,o),
(1384,1142,cs),
(1049,1142,o),
(785,823,o),
(785,425,cs),
(785,144,o),
(939,-24,o),
(1215,-24,cs)
);
}
);
width = 1859;
},
{
anchors = (
{
name = top;
pos = (1028,1118);
}
);
layerId = "D0EC06BF-13F9-4C88-A6F5-B8203AF6C77E";
name = ital_gen;
shapes = (
{
closed = 1;
nodes = (
(725,-18,o),
(955,142,o),
(996,396,c),
(1012,421,l),
(1069,766,ls),
(1108,1001,o),
(979,1132,o),
(711,1132,cs),
(424,1132,o),
(200,1001,o),
(131,792,c),
(487,756,l),
(509,817,o),
(573,856,o),
(652,856,cs),
(732,856,o),
(775,817,o),
(765,754,cs),
(706,396,ls),
(689,294,o),
(592,236,o),
(501,236,cs),
(433,236,o),
(391,269,o),
(401,332,cs),
(410,389,o),
(457,445,o),
(554,448,cs),
(623,450,o),
(692,453,o),
(761,455,c),
(797,671,l),
(694,669,o),
(591,666,o),
(488,664,cs),
(235,658,o),
(54,521,o),
(19,308,cs),
(-14,108,o),
(133,-18,o),
(401,-18,cs)
);
},
{
closed = 1;
nodes = (
(1553,-24,o),
(1748,128,o),
(1825,360,c),
(1459,360,l),
(1440,297,o),
(1365,259,o),
(1275,259,cs),
(1167,259,o),
(1116,312,o),
(1116,431,cs),
(1116,481,o),
(1134,591,o),
(1143,640,cs),
(1169,785,o),
(1233,850,o),
(1358,850,cs),
(1449,850,o),
(1499,817,o),
(1499,758,cs),
(1499,682,o),
(1415,670,o),
(885,670,c),
(848,454,l),
(1463,454,o),
(1862,487,o),
(1862,789,cs),
(1862,1006,o),
(1654,1132,o),
(1400,1132,cs),
(1054,1132,o),
(796,902,o),
(739,556,cs),
(679,194,o),
(885,-24,o),
(1244,-24,cs)
);
}
);
width = 1915;
},
{
anchors = (
{
name = top;
pos = (994,1118);
}
);
layerId = "200BE2C5-40F6-4CF4-AF4F-A33C0CC0964F";
name = ital_gen;
shapes = (
{
closed = 1;
nodes = (
(653,-24,o),
(829,178,o),
(877,446,c),
(877,451,l),
(937,802,ls),
(970,994,o),
(838,1134,o),
(625,1134,cs),
(410,1134,o),
(228,986,o),
(195,784,c),
(241,784,l),
(270,958,o),
(436,1088,o),
(627,1088,cs),
(812,1088,o),
(920,971,o),
(892,802,cs),
(838,478,ls),
(795,217,o),
(638,22,o),
(379,22,cs),
(192,22,o),
(105,122,o),
(134,302,cs),
(162,474,o),
(303,559,o),
(559,559,cs),
(662,559,o),
(775,559,o),
(878,559,c),
(885,605,l),
(776,605,o),
(668,605,o),
(559,605,cs),
(276,605,o),
(121,505,o),
(87,302,cs),
(54,102,o),
(166,-24,o),
(379,-24,cs)
);
},
{
closed = 1;
nodes = (
(1417,-16,o),
(1544,47,o),
(1668,198,c),
(1632,227,l),
(1514,83,o),
(1407,30,o),
(1234,30,cs),
(989,30,o),
(886,142,o),
(886,408,cs),
(886,413,o),
(886,418,o),
(886,422,cs),
(886,817,o),
(1118,1088,o),
(1443,1088,cs),
(1615,1088,o),
(1706,1015,o),
(1706,879,cs),
(1706,673,o),
(1500,605,o),
(880,605,c),
(880,559,l),
(1517,559,o),
(1752,645,o),
(1752,879,cs),
(1752,1039,o),
(1636,1134,o),
(1443,1134,cs),
(1089,1134,o),
(842,832,o),
(842,408,cs),
(842,119,o),
(966,-16,o),
(1234,-16,cs)
);
}
);
width = 1850;
},
{
anchors = (
{
name = top;
pos = (944,1056);
}
);
guides = (
{
pos = (1198,888);
}
);
layerId = m008;
name = ital_gen;
shapes = (
{
closed = 1;
nodes = (
(614,-16,o),
(778,92,o),
(861,246,c),
(878,246,l),
(957,722,ls),
(992,931,o),
(854,1076,o),
(603,1076,cs),
(358,1076,o),
(169,941,o),
(128,738,c),
(301,738,l),
(330,853,o),
(438,926,o),
(583,926,cs),
(737,926,o),
(812,857,o),
(791,734,cs),
(736,406,ls),
(713,268,o),
(601,136,o),
(387,136,cs),
(246,136,o),
(186,193,o),
(204,309,cs),
(223,428,o),
(341,461,o),
(488,461,cs),
(589,461,o),
(704,452,o),
(810,452,c),
(821,587,l),
(664,587,o),
(589,601,o),
(479,601,cs),
(214,601,o),
(67,506,o),
(36,315,cs),
(2,112,o),
(127,-16,o),
(359,-16,cs)
);
},
{
closed = 1;
nodes = (
(1405,-24,o),
(1582,99,o),
(1661,320,c),
(1484,320,l),
(1434,210,o),
(1313,129,o),
(1157,129,cs),
(982,129,o),
(912,227,o),
(912,410,cs),
(912,454,o),
(925,524,o),
(932,563,cs),
(967,783,o),
(1107,926,o),
(1331,926,cs),
(1447,926,o),
(1518,891,o),
(1518,802,cs),
(1518,644,o),
(1375,581,o),
(888,581,c),
(873,449,l),
(1419,449,o),
(1689,531,o),
(1689,766,cs),
(1689,964,o),
(1540,1080,o),
(1319,1080,cs),
(991,1080,o),
(768,826,o),
(768,438,cs),
(768,118,o),
(919,-24,o),
(1168,-24,cs)
);
}
);
width = 1762;
},
{
anchors = (
{
name = top;
pos = (995,1056);
}
);
layerId = m010;
name = ital_gen;
shapes = (
{
closed = 1;
nodes = (
(749,-19,o),
(914,122,o),
(956,374,c),
(973,374,l),
(1032,724,l),
(1064,920,o),
(995,1080,o),
(671,1080,cs),
(341,1080,o),
(150,905,o),
(103,706,c),
(469,706,l),
(486,768,o),
(542,802,o),
(625,802,cs),
(710,802,o),
(751,768,o),
(741,706,c),
(686,374,l),
(670,280,o),
(572,230,o),
(486,230,cs),
(418,230,o),
(375,262,o),
(384,316,cs),
(393,370,o),
(450,409,o),
(534,411,cs),
(604,413,o),
(673,416,o),
(743,416,c),
(777,626,l),
(674,623,o),
(571,623,o),
(468,621,cs),
(218,616,o),
(40,494,o),
(6,292,cs),
(-26,101,o),
(118,-19,o),
(379,-19,cs)
);
},
{
closed = 1;
nodes = (
(1528,-24,o),
(1723,128,o),
(1800,360,c),
(1434,360,l),
(1415,297,o),
(1362,255,o),
(1253,255,cs),
(1164,255,o),
(1091,284,o),
(1091,403,cs),
(1091,453,o),
(1109,563,o),
(1118,612,cs),
(1145,757,o),
(1208,798,o),
(1333,798,cs),
(1423,798,o),
(1474,768,o),
(1474,724,cs),
(1474,664,o),
(1390,631,o),
(860,631,c),
(823,416,l),
(1438,416,o),
(1837,459,o),
(1837,761,cs),
(1837,978,o),
(1629,1080,o),
(1375,1080,cs),
(1029,1080,o),
(771,874,o),
(714,528,cs),
(654,166,o),
(860,-24,o),
(1219,-24,cs)
);
}
);
width = 1869;
},
{
anchors = (
{
name = top;
pos = (922,1056);
}
);
background = {
shapes = (
{
closed = 1;
nodes = (
(482,-24,o),
(635,69,o),
(732,226,c),
(780,226,l),
(879,802,l),
(911,994,o),
(780,1134,o),
(567,1134,cs),
(352,1134,o),
(170,986,o),
(137,784,c),
(183,784,l),
(212,958,o),
(378,1088,o),
(569,1088,cs),
(754,1088,o),
(862,971,o),
(834,802,cs),
(780,478,ls),
(737,217,o),
(540,22,o),
(321,22,cs),
(134,22,o),
(47,122,o),
(76,302,cs),
(104,474,o),
(245,559,o),
(501,559,cs),
(604,559,o),
(717,559,o),
(820,559,c),
(827,605,l),
(718,605,o),
(610,605,o),
(501,605,cs),
(218,605,o),
(63,505,o),
(29,302,cs),
(-4,102,o),
(108,-24,o),
(321,-24,cs)
);
}
);
};
layerId = m012;
name = ital_gen;
shapes = (
{
closed = 1;
nodes = (
(595,-24,o),
(771,178,o),
(819,446,c),
(819,451,l),
(879,802,ls),
(912,994,o),
(780,1134,o),
(567,1134,cs),
(352,1134,o),
(170,986,o),
(137,784,c),
(183,784,l),
(212,958,o),
(378,1088,o),
(569,1088,cs),
(754,1088,o),
(862,971,o),
(834,802,cs),
(780,478,ls),
(737,217,o),
(580,22,o),
(321,22,cs),
(134,22,o),
(47,122,o),
(76,302,cs),
(104,474,o),
(245,559,o),
(501,559,cs),
(604,559,o),
(717,559,o),
(820,559,c),
(827,605,l),
(718,605,o),
(610,605,o),
(501,605,cs),
(218,605,o),
(63,505,o),
(29,302,cs),
(-4,102,o),
(108,-24,o),
(321,-24,cs)
);
},
{
closed = 1;
nodes = (
(1359,-16,o),
(1486,47,o),
(1610,198,c),
(1574,227,l),
(1456,83,o),
(1349,30,o),
(1176,30,cs),
(931,30,o),
(828,142,o),
(828,408,cs),
(828,413,o),
(828,418,o),
(828,422,cs),
(828,817,o),
(1060,1088,o),
(1385,1088,cs),
(1557,1088,o),
(1648,1015,o),
(1648,879,cs),
(1648,673,o),
(1442,605,o),
(822,605,c),
(822,559,l),
(1459,559,o),
(1694,645,o),
(1694,879,cs),
(1694,1039,o),
(1578,1134,o),
(1385,1134,cs),
(1031,1134,o),
(784,832,o),
(784,408,cs),
(784,119,o),
(908,-16,o),
(1176,-16,cs)
);
}
);
width = 1727;
},
{
anchors = (
{
name = top;
pos = (982,1262);
}
);
associatedMasterId = m008;
background = {
hints = (
{
horizontal = 1;
options = 4;
place = (-26, 212);
type = TTStem;
},
{
horizontal = 1;
options = 4;
place = (1132, 208);
type = TTStem;
},
{
horizontal = 1;
options = 4;
place = (0, 0);
type = TTSnap;
},
{
horizontal = 1;
options = 4;
place = (-24, 212);
type = TTStem;
},
{
horizontal = 1;
options = 4;
place = (500, 204);
type = TTStem;
},
{
horizontal = 1;
options = 4;
place = (1132, 212);
type = TTStem;
},
{
horizontal = 1;
options = 4;
place = (-24, 212);
type = TTStem;
},
{
horizontal = 1;
options = 4;
place = (500, 204);
type = TTStem;
},
{
horizontal = 1;
options = 4;
place = (1132, 212);
type = TTStem;
}
);
shapes = (
{
pos = (12,0);
ref = a;
}
);
};
guides = (
{
pos = (1048,888);
}
);
layerId = "B5F41864-33C9-4BFC-92AC-67C96F3A2686";
name = "Oct 22, 22, 09:08";
shapes = (
{
closed = 1;
nodes = (
(1374.351,-16,o),
(1576.535,118,o),
(1649.976,320,c),
(1479.976,320,l),
(1429.765,210,o),
(1304.846,138,o),
(1173.846,138,cs),
(979.846,138,o),
(890.002,296,o),
(921.457,486,cs),
(939.667,596,ls),
(966.983,761,o),
(1104.305,920,o),
(1295.305,920,cs),
(1461.305,920,o),
(1565.439,800,o),
(1542.303,624,c),
(919.303,624,l),
(895.463,480,l),
(1692.463,480,l),
(1700.079,526,ls),
(1753.054,846,o),
(1618.468,1072,o),
(1324.468,1072,cs),
(1134.468,1072,o),
(971.576,976,o),
(866.916,821,c),
(766.228,243,l),
(818.741,83,o),
(953.351,-16,o),
(1148.351,-16,cs)
);
},
{
closed = 1;
nodes = (
(272.846,138,o),
(199.282,195,o),
(215.671,294,cs),
(235.372,413,o),
(358.325,455,o),
(483.139,472,cs),
(606.953,489,o),
(737.099,508,o),
(767.072,532,c),
(745.22,400,ls),
(722.374,262,o),
(615.846,138,o),
(407.846,138,cs)
);
},
{
closed = 1;
nodes = (
(590.682,-14,o),
(738.257,68,o),
(820.242,231,c),
(837.242,231,l),
(918.857,724,l),
(953.457,933,o),
(868.468,1072,o),
(622.468,1072,cs),
(372.468,1072,o),
(177.795,929,o),
(136.844,736,c),
(314.844,736,l),
(340.896,839,o),
(450.305,920,o),
(597.305,920,cs),
(745.305,920,o),
(817.896,839,o),
(798.857,724,cs),
(797.864,718,ls),
(784.455,637,o),
(720.779,645,o),
(515.309,618,cs),
(298.674,590,o),
(83.39,546,o),
(43.327,304,cs),
(10.052,103,o),
(134.682,-14,o),
(382.682,-14,cs)
);
}
);
width = 1768;
},
{
anchors = (
{
name = top;
pos = (1005,1304);
}
);
associatedMasterId = m012;
layerId = "68BACAA0-F625-495F-9005-5963757FBD39";
name = "Oct 22, 22, 09:29";
shapes = (
{
closed = 1;
nodes = (
(1633,-16,o),
(1760,47,o),
(1884,198,c),
(1848,227,l),
(1730,83,o),
(1623,30,o),
(1450,30,cs),
(1205,30,o),
(1102,142,o),
(1102,408,cs),
(1102,413,o),
(1102,418,o),
(1102,422,cs),
(1102,817,o),
(1334,1088,o),
(1659,1088,cs),
(1831,1088,o),
(1922,1015,o),
(1922,879,cs),
(1922,673,o),
(1716,605,o),
(1096,605,c),
(1096,559,l),
(1733,559,o),
(1968,645,o),
(1968,879,cs),
(1968,1039,o),
(1852,1134,o),
(1659,1134,cs),
(1305,1134,o),
(1056,832,o),
(1056,408,cs),
(1056,119,o),
(1182,-16,o),
(1450,-16,cs)
);
},
{
closed = 1;
nodes = (
(241,559,o),
(118,480,o),
(118,302,cs),
(118,132,o),
(245,22,o),
(414,22,cs),
(625,22,o),
(794,207,o),
(794,478,cs),
(794,802,ls),
(794,965,o),
(663,1088,o),
(472,1088,cs),
(281,1088,o),
(146,958,o),
(146,784,c),
(100,784,l),
(100,984,o),
(255,1134,o),
(472,1134,cs),
(687,1134,o),
(840,992,o),
(840,802,cs),
(840,0,l),
(794,0,l),
(794,226,l),
(788,226,l),
(719,76,o),
(582,-24,o),
(414,-24,cs),
(230,-24,o),
(72,93,o),
(72,302,cs),
(72,454,o),
(149,605,o),
(494,605,cs),
(603,605,o),
(711,605,o),
(820,605,c),
(820,559,l),
(717,559,o),
(597,559,o),
(494,559,cs)
);
}
);
width = 1755;
},
{
anchors = (
{
name = top;
pos = (1021,1262);
}
);
associatedMasterId = m010;
layerId = "931771CD-B034-42AC-851F-98B15A04361F";
name = "Oct 22, 22, 09:46";
shapes = (
{
closed = 1;
nodes = (
(456,420,o),
(407,370,o),
(407,316,cs),
(407,262,o),
(455,230,o),
(523,230,cs),
(609,230,o),
(699,280,o),
(699,374,c),
(699,706,l),
(699,768,o),
(655,802,o),
(577,802,cs),
(498,802,o),
(450,768,o),
(443,706,c),
(77,706,l),
(91,905,o),
(253,1080,o),
(583,1080,cs),
(899,1080,o),
(1091,920,o),
(1091,724,cs),
(1091,0,l),
(701,0,l),
(701,148,l),
(697,148,l),
(627,22,o),
(528,-19,o),
(393,-19,cs),
(181,-19,o),
(33,82,o),
(33,292,cs),
(33,528,o),
(211,630,o),
(439,630,cs),
(945,630,l),
(945,420,l),
(810,420,o),
(674,420,o),
(539,420,cs)
);
},
{
closed = 1;
nodes = (
(2058,-24,o),
(2253,128,o),
(2330,360,c),
(1964,360,l),
(1945,297,o),
(1892,255,o),
(1783,255,cs),
(1694,255,o),
(1621,284,o),
(1621,403,cs),
(1621,453,o),
(1639,563,o),
(1648,612,cs),
(1675,757,o),
(1738,798,o),
(1863,798,cs),
(1953,798,o),
(2004,768,o),
(2004,724,cs),
(2004,664,o),
(1920,633,o),
(1390,633,c),
(1353,409,l),
(1968,409,o),
(2367,459,o),
(2367,761,cs),
(2367,978,o),
(2159,1080,o),
(1905,1080,cs),
(1559,1080,o),
(1301,874,o),
(1244,528,cs),
(1184,166,o),
(1390,-24,o),
(1749,-24,cs)
);
}
);
width = 2400;
},
{
anchors = (
{
name = top;
pos = (1039,1304);
}
);
associatedMasterId = "D0EC06BF-13F9-4C88-A6F5-B8203AF6C77E";
layerId = "D58157E4-39F6-41F9-AA9D-8C048157EE2A";
name = "Oct 22, 22, 09:54";
shapes = (
{
closed = 1;
nodes = (
(231,647,o),
(52,553,o),
(52,308,cs),
(52,86,o),
(201,-18,o),
(416,-18,cs),
(561,-18,o),
(670,32,o),
(738,158,c),
(746,158,l),
(746,0,l),
(1122,0,l),
(1122,766,ls),
(1122,972,o),
(926,1132,o),
(608,1132,cs),
(273,1132,o),
(109,957,o),
(96,754,c),
(464,754,l),
(473,817,o),
(526,856,o),
(602,856,cs),
(677,856,o),
(724,817,o),
(724,754,cs),
(724,396,ls),
(724,294,o),
(637,236,o),
(546,236,cs),
(478,236,o),
(430,269,o),
(430,332,cs),
(430,389,o),
(470,433,o),
(564,448,c),
(770,456,l),
(770,672,l),
(462,664,l)
);
},
{
closed = 1;
nodes = (
(2143,-24,o),
(2338,128,o),
(2415,360,c),
(2049,360,l),
(2030,297,o),
(1955,259,o),
(1865,259,cs),
(1757,259,o),
(1706,312,o),
(1706,431,cs),
(1706,481,o),
(1724,591,o),
(1733,640,cs),
(1759,785,o),
(1823,850,o),
(1948,850,cs),
(2039,850,o),
(2089,817,o),
(2089,758,cs),
(2089,682,o),
(2005,670,o),
(1475,670,c),
(1438,450,l),
(2053,450,o),
(2452,487,o),
(2452,789,cs),
(2452,1006,o),
(2244,1132,o),
(1990,1132,cs),
(1644,1132,o),
(1386,902,o),
(1329,556,cs),
(1269,194,o),
(1475,-24,o),
(1834,-24,cs)
);
}
);
width = 2506;
},
{
anchors = (
{
name = top;
pos = (1039,1304);
}
);
associatedMasterId = "D0EC06BF-13F9-4C88-A6F5-B8203AF6C77E";
layerId = "770EA383-7922-4001-9D7C-65F14D42D553";
name = "Oct 22, 22, 09:57";
shapes = (
{
closed = 1;
nodes = (
(231,647,o),
(52,553,o),
(52,308,cs),
(52,86,o),
(201,-18,o),
(416,-18,cs),
(561,-18,o),
(670,32,o),
(738,158,c),
(746,158,l),
(746,0,l),
(1122,0,l),
(1122,766,ls),
(1122,972,o),
(926,1132,o),
(608,1132,cs),
(273,1132,o),
(109,957,o),
(96,754,c),
(464,754,l),
(473,817,o),
(526,856,o),
(602,856,cs),
(677,856,o),
(724,817,o),
(724,754,cs),
(724,396,ls),
(724,294,o),
(637,236,o),
(546,236,cs),
(478,236,o),
(430,269,o),
(430,332,cs),
(430,389,o),
(470,433,o),
(564,448,c),
(770,456,l),
(770,672,l),
(462,664,l)
);
},
{
closed = 1;
nodes = (
(2143,-24,o),
(2338,128,o),
(2415,360,c),
(2049,360,l),
(2030,297,o),
(1955,259,o),
(1865,259,cs),
(1757,259,o),
(1706,312,o),
(1706,431,cs),
(1706,481,o),
(1724,591,o),
(1733,640,cs),
(1759,785,o),
(1823,850,o),
(1948,850,cs),
(2039,850,o),
(2089,817,o),
(2089,758,cs),
(2089,682,o),
(2005,670,o),
(1475,670,c),
(1438,450,l),
(2053,450,o),
(2452,487,o),
(2452,789,cs),
(2452,1006,o),
(2244,1132,o),
(1990,1132,cs),
(1644,1132,o),
(1386,902,o),
(1329,556,cs),
(1269,194,o),
(1475,-24,o),
(1834,-24,cs)
);
}
);
width = 2506;
},
{
anchors = (
{
name = top;
pos = (1698,1304);
}
);
associatedMasterId = "D0EC06BF-13F9-4C88-A6F5-B8203AF6C77E";
layerId = "615F0055-40A2-4735-B960-5A788DBA8C07";
name = "Oct 22, 22, 09:58";
shapes = (
{
closed = 1;
nodes = (
(2802,-24,o),
(2997,128,o),
(3074,360,c),
(2708,360,l),
(2689,297,o),
(2614,259,o),
(2524,259,cs),
(2416,259,o),
(2365,312,o),
(2365,431,cs),
(2365,481,o),
(2383,591,o),
(2392,640,cs),
(2418,785,o),
(2482,850,o),
(2607,850,cs),
(2698,850,o),
(2748,817,o),
(2748,758,cs),
(2748,682,o),
(2664,670,o),
(2134,670,c),
(2097,450,l),
(2712,450,o),
(3111,487,o),
(3111,789,cs),
(3111,1006,o),
(2903,1132,o),
(2649,1132,cs),
(2303,1132,o),
(2045,902,o),
(1988,556,cs),
(1928,194,o),
(2134,-24,o),
(2493,-24,cs)
);
},
{
closed = 1;
nodes = (
(980,1132,o),
(778,1001,o),
(743,792,c),
(1105,756,l),
(1117,817,o),
(1174,856,o),
(1253,856,cs),
(1333,856,o),
(1383,817,o),
(1383,754,cs),
(1383,396,ls),
(1383,294,o),
(1296,236,o),
(1205,236,cs),
(1137,236,o),
(1089,269,o),
(1089,332,cs),
(1089,389,o),
(1129,433,o),
(1223,448,c),
(1429,456,l),
(1429,672,l),
(1121,664,l),
(890,647,o),
(711,553,o),
(711,308,cs),
(711,86,o),
(860,-18,o),
(1075,-18,cs),
(1220,-18,o),
(1329,32,o),
(1397,158,c),
(1405,158,l),
(1405,0,l),
(1781,0,l),
(1781,766,ls),
(1781,991,o),
(1583,1132,o),
(1267,1132,cs)
);
}
);
width = 3165;
}
);
metricLeft = a;
metricRight = e;
note = "custom italic";
unicode = 230;
userData = {
com.typemytype.robofont.guideline.magnetic.47oKtqvLS5 = 5;
interface.gridadjust.original = "{'width': 2377, 'leftMargin': 106, 'rightMargin': 93}";
"interface.width-adjustments" = (
-16
);
};
}
{
glyphname = divide;
kernLeft = hyphen;
kernRight = hyphen;
layers = (
{
layerId = "11F4534A-B963-4AB5-820F-DAF9A20CD933";
shapes = (
{
closed = 1;
nodes = (
(227,668,l),
(200,498,l),
(1138,498,l),
(1165,668,l)
);
},
{
closed = 1;
nodes = (
(671,72,o),
(741,123,o),
(749,196,cs),
(758,278,o),
(701,336,o),
(631,336,cs),
(562,336,o),
(496,283,o),
(488,215,cs),
(479,139,o),
(526,72,o),
(609,72,cs)
);
},
{
closed = 1;
nodes = (
(801,830,o),
(863,884,o),
(874,952,cs),
(887,1032,o),
(830,1095,o),
(758,1095,cs),
(687,1095,o),
(622,1041,o),
(611,973,cs),
(598,893,o),
(656,830,o),
(734,830,cs)
);
}
);
width = 1356;
},
{
guides = (
{
pos = (812,896);
}
);
layerId = "D0EC06BF-13F9-4C88-A6F5-B8203AF6C77E";
shapes = (
{
closed = 1;
nodes = (
(204,756,l),
(154,454,l),
(1230,454,l),
(1280,756,l)
);
},
{
closed = 1;
nodes = (
(736,-23,o),
(829,58,o),
(846,160,cs),
(868,285,o),
(785,387,o),
(660,386,cs),
(559,387,o),
(463,308,o),
(446,206,cs),
(424,81,o),
(509,-23,o),
(634,-24,cs)
);
},
{
closed = 1;
nodes = (
(879,823,o),
(972,905,o),
(986,1006,cs),
(1004,1132,o),
(925,1233,o),
(800,1234,cs),
(698,1233,o),
(602,1155,o),
(584,1054,cs),
(564,928,o),
(652,823,o),
(776,824,cs)
);
}
);
width = 1420;
},
{
layerId = "200BE2C5-40F6-4CF4-AF4F-A33C0CC0964F";
shapes = (
{
closed = 1;
nodes = (
(238,606,l),
(230,558,l),
(1074,558,l),
(1082,606,l)
);
},
{
closed = 1;
nodes = (
(628,198,o),
(652,221,o),
(652,250,cs),
(652,279,o),
(628,303,o),
(600,302,cs),
(570,303,o),
(547,279,o),
(546,250,cs),
(547,221,o),
(570,198,o),
(600,198,cs)
);
},
{
closed = 1;
nodes = (
(739,861,o),
(762,884,o),
(762,914,cs),
(762,943,o),
(739,966,o),
(710,966,cs),
(681,966,o),
(657,943,o),
(658,914,cs),
(657,884,o),
(681,861,o),
(710,862,cs)
);
}
);
width = 1304;
},
{
guides = (
{
angle = -9.4;
pos = (-24,800);
}
);
layerId = m008;
name = ital_gen;
shapes = (
{
closed = 1;
nodes = (
(200.515,664,l),
(173.365,500,l),
(1103.365,500,l),
(1130.515,664,l)
);
},
{
closed = 1;
nodes = (
(638.172,76,o),
(705.774,134,o),
(716.693,206,cs),
(729.282,276,o),
(681.049,335,o),
(609.884,334,cs),
(538.049,335,o),
(470.282,276,o),
(458.693,206,cs),
(446.774,134,o),
(495.172,76,o),
(567.172,76,cs)
);
},
{
closed = 1;
nodes = (
(762.83,829,o),
(830.432,887,o),
(841.517,960,cs),
(854.106,1030,o),
(805.707,1088,o),
(734.707,1088,cs),
(662.707,1088,o),
(595.106,1030,o),
(583.517,960,cs),
(571.432,887,o),
(619.83,829,o),
(691.996,830,cs)
);
}
);
width = 1287;
},
{
guides = (
{
orientation = center;
angle = -9.4;
pos = (-3182,832);
}
);
layerId = m010;
name = ital_gen;
shapes = (
{
closed = 1;
nodes = (
(193.745,756,l),
(143.749,454,l),
(1219.749,454,l),
(1269.745,756,l)
);
},
{
closed = 1;
nodes = (
(714.783,-23,o),
(820.847,68,o),
(841.051,184,cs),
(858.427,295,o),
(782.658,387,o),
(670.492,386,cs),
(555.658,387,o),
(448.427,295,o),
(431.051,184,cs),
(410.847,68,o),
(487.783,-23,o),
(602.617,-24,cs)
);
},
{
closed = 1;
nodes = (
(855.837,823,o),
(961.233,916,o),
(981.106,1030,cs),
(998.813,1143,o),
(923.712,1233,o),
(810.878,1234,cs),
(696.712,1233,o),
(588.813,1143,o),
(571.106,1030,cs),
(551.233,916,o),
(628.837,823,o),
(743.002,824,cs)
);
}
);
width = 1388;
},
{
guides = (
{
angle = -9.4;
pos = (140,800);
}
);
layerId = m012;
name = ital_gen;
shapes = (
{
closed = 1;
nodes = (
(178.913,606,l),
(170.966,558,l),
(1014.966,558,l),
(1022.913,606,l)
);
},
{
closed = 1;
nodes = (
(562.369,198,o),
(589.176,221,o),
(593.977,250,cs),
(598.778,279,o),
(579.751,303,o),
(550.586,302,cs),
(521.751,303,o),
(493.778,279,o),
(489.977,250,cs),
(484.176,221,o),
(504.369,198,o),
(533.369,198,cs)
);
},
{
closed = 1;
nodes = (
(672.128,861,o),
(698.935,884,o),
(703.902,914,cs),
(708.703,943,o),
(689.51,966,o),
(660.51,966,cs),
(631.51,966,o),
(603.703,943,o),
(599.902,914,cs),
(593.935,884,o),
(614.128,861,o),
(643.293,862,cs)
);
}
);
width = 1176;
}
);
metricWidth = plus;
unicode = 247;
userData = {
"interface.width-adjustments" = (
-16
);
};
}
